SplineFontDB: 3.2
FontName: Untitled1
FullName: Untitled1
FamilyName: Untitled1
Weight: Regular
Copyright: Copyright (c) 2025, Nicolas Crespo-Berker
UComments: "2025-6-18: Created with FontForge (http://fontforge.org)"
Version: 001.000
ItalicAngle: 0
UnderlinePosition: -100
UnderlineWidth: 50
Ascent: 800
Descent: 200
InvalidEm: 0
LayerCount: 2
Layer: 0 0 "Back" 1
Layer: 1 0 "Fore" 0
XUID: [1021 25 -1731502392 7653826]
StyleMap: 0x0000
FSType: 0
OS2Version: 0
OS2_WeightWidthSlopeOnly: 0
OS2_UseTypoMetrics: 1
CreationTime: 1750285841
ModificationTime: 1750285841
PfmFamily: 16
TTFWeight: 400
TTFWidth: 5
LineGap: 0
VLineGap: 90
Panose: 2 0 5 3 0 0 0 0 0 0
OS2TypoAscent: 800
OS2TypoAOffset: 0
OS2TypoDescent: -200
OS2TypoDOffset: 0
OS2TypoLinegap: 0
OS2WinAscent: 800
OS2WinAOffset: 0
OS2WinDescent: 200
OS2WinDOffset: 0
HheadAscent: 800
HheadAOffset: 0
HheadDescent: -200
HheadDOffset: 0
OS2SubXSize: 650
OS2SubYSize: 700
OS2SubXOff: 0
OS2SubYOff: 140
OS2SupXSize: 650
OS2SupYSize: 700
OS2SupXOff: 0
OS2SupYOff: 480
OS2StrikeYSize: 49
OS2StrikeYPos: 258
DEI: 91125
Encoding: UnicodeFull
UnicodeInterp: none
NameList: AGL For New Fonts
DisplaySize: -48
AntiAlias: 1
FitToEm: 0
OnlyBitmaps: 1
BeginChars: 1114112 814

StartChar: uni23B8
Encoding: 9144 9144 2
Width: 1000
Flags: HW
LayerCount: 2
Fore
SplineSet
0 800 m 1
 112 800 l 1
 112 -200 l 1
 0 -200 l 1
 0 800 l 1
EndSplineSet
EndChar

StartChar: uni23B9
Encoding: 9145 9145 3
Width: 1000
Flags: HW
LayerCount: 2
Fore
SplineSet
888 800 m 1
 1000 800 l 1
 1000 -200 l 1
 888 -200 l 1
 888 800 l 1
EndSplineSet
EndChar

StartChar: uni23BA
Encoding: 9146 9146 4
Width: 1000
Flags: HW
LayerCount: 2
Fore
SplineSet
0 688 m 1
 0 800 l 1
 1000 800 l 1
 1000 688 l 1
 0 688 l 1
EndSplineSet
EndChar

StartChar: uni23BB
Encoding: 9147 9147 5
Width: 1000
Flags: HW
LayerCount: 2
Fore
SplineSet
0 466 m 1
 0 578 l 1
 1000 578 l 1
 1000 466 l 1
 0 466 l 1
EndSplineSet
EndChar

StartChar: uni23BC
Encoding: 9148 9148 6
Width: 1000
Flags: HW
LayerCount: 2
Fore
SplineSet
0 22 m 1
 0 134 l 1
 1000 134 l 1
 1000 22 l 1
 0 22 l 1
EndSplineSet
EndChar

StartChar: uni23BD
Encoding: 9149 9149 7
Width: 1000
Flags: HW
LayerCount: 2
Fore
SplineSet
0 -200 m 1
 0 -88 l 1
 1000 -88 l 1
 1000 -200 l 1
 0 -200 l 1
EndSplineSet
EndChar

StartChar: SF100000
Encoding: 9472 9472 8
Width: 1000
Flags: HW
LayerCount: 2
Fore
SplineSet
0 244 m 1
 0 356 l 1
 1000 356 l 1
 1000 244 l 1
 0 244 l 1
EndSplineSet
EndChar

StartChar: uni2501
Encoding: 9473 9473 9
Width: 1000
Flags: HW
LayerCount: 2
Fore
SplineSet
0 189 m 1
 0 411 l 1
 1000 411 l 1
 1000 189 l 1
 0 189 l 1
EndSplineSet
EndChar

StartChar: SF110000
Encoding: 9474 9474 10
Width: 1000
Flags: HW
LayerCount: 2
Fore
SplineSet
444 800 m 1
 556 800 l 1
 556 -200 l 1
 444 -200 l 1
 444 800 l 1
EndSplineSet
EndChar

StartChar: uni2503
Encoding: 9475 9475 11
Width: 1000
Flags: HW
LayerCount: 2
Fore
SplineSet
389 800 m 1
 611 800 l 1
 611 -200 l 1
 389 -200 l 1
 389 800 l 1
EndSplineSet
EndChar

StartChar: uni2504
Encoding: 9476 9476 12
Width: 1000
Flags: HW
LayerCount: 2
Fore
SplineSet
722 244 m 1
 722 356 l 1
 944 356 l 1
 944 244 l 1
 722 244 l 1
389 244 m 1
 389 356 l 1
 611 356 l 1
 611 244 l 1
 389 244 l 1
56 244 m 1
 56 356 l 1
 278 356 l 1
 278 244 l 1
 56 244 l 1
EndSplineSet
EndChar

StartChar: uni2505
Encoding: 9477 9477 13
Width: 1000
Flags: HW
LayerCount: 2
Fore
SplineSet
722 189 m 1
 722 411 l 1
 944 411 l 1
 944 189 l 1
 722 189 l 1
389 189 m 1
 389 411 l 1
 611 411 l 1
 611 189 l 1
 389 189 l 1
56 189 m 1
 56 411 l 1
 278 411 l 1
 278 189 l 1
 56 189 l 1
EndSplineSet
EndChar

StartChar: uni2506
Encoding: 9478 9478 14
Width: 1000
Flags: HW
LayerCount: 2
Fore
SplineSet
444 78 m 1
 556 78 l 1
 556 -144 l 1
 444 -144 l 1
 444 78 l 1
444 411 m 1
 556 411 l 1
 556 189 l 1
 444 189 l 1
 444 411 l 1
444 744 m 1
 556 744 l 1
 556 522 l 1
 444 522 l 1
 444 744 l 1
EndSplineSet
EndChar

StartChar: uni2507
Encoding: 9479 9479 15
Width: 1000
Flags: HW
LayerCount: 2
Fore
SplineSet
389 78 m 1
 611 78 l 1
 611 -144 l 1
 389 -144 l 1
 389 78 l 1
389 411 m 1
 611 411 l 1
 611 189 l 1
 389 189 l 1
 389 411 l 1
389 744 m 1
 611 744 l 1
 611 522 l 1
 389 522 l 1
 389 744 l 1
EndSplineSet
EndChar

StartChar: uni2508
Encoding: 9480 9480 16
Width: 1000
Flags: HW
LayerCount: 2
Fore
SplineSet
806 244 m 1
 806 356 l 1
 944 356 l 1
 944 244 l 1
 806 244 l 1
556 244 m 1
 556 356 l 1
 694 356 l 1
 694 244 l 1
 556 244 l 1
306 244 m 1
 306 356 l 1
 444 356 l 1
 444 244 l 1
 306 244 l 1
56 244 m 1
 56 356 l 1
 194 356 l 1
 194 244 l 1
 56 244 l 1
EndSplineSet
EndChar

StartChar: uni2509
Encoding: 9481 9481 17
Width: 1000
Flags: HW
LayerCount: 2
Fore
SplineSet
806 189 m 1
 806 411 l 1
 944 411 l 1
 944 189 l 1
 806 189 l 1
556 189 m 1
 556 411 l 1
 694 411 l 1
 694 189 l 1
 556 189 l 1
306 189 m 1
 306 411 l 1
 444 411 l 1
 444 189 l 1
 306 189 l 1
56 189 m 1
 56 411 l 1
 194 411 l 1
 194 189 l 1
 56 189 l 1
EndSplineSet
EndChar

StartChar: uni250A
Encoding: 9482 9482 18
Width: 1000
Flags: HW
LayerCount: 2
Fore
SplineSet
444 -6 m 1
 556 -6 l 1
 556 -144 l 1
 444 -144 l 1
 444 -6 l 1
444 244 m 1
 556 244 l 1
 556 106 l 1
 444 106 l 1
 444 244 l 1
444 494 m 1
 556 494 l 1
 556 356 l 1
 444 356 l 1
 444 494 l 1
444 744 m 1
 556 744 l 1
 556 606 l 1
 444 606 l 1
 444 744 l 1
EndSplineSet
EndChar

StartChar: uni250B
Encoding: 9483 9483 19
Width: 1000
Flags: HW
LayerCount: 2
Fore
SplineSet
389 -6 m 1
 611 -6 l 1
 611 -144 l 1
 389 -144 l 1
 389 -6 l 1
389 244 m 1
 611 244 l 1
 611 106 l 1
 389 106 l 1
 389 244 l 1
389 494 m 1
 611 494 l 1
 611 356 l 1
 389 356 l 1
 389 494 l 1
389 744 m 1
 611 744 l 1
 611 606 l 1
 389 606 l 1
 389 744 l 1
EndSplineSet
EndChar

StartChar: SF010000
Encoding: 9484 9484 20
Width: 1000
Flags: HW
LayerCount: 2
Fore
SplineSet
556 244 m 1
 556 -200 l 1
 444 -200 l 1
 444 356 l 1
 1000 356 l 1
 1000 244 l 1
 556 244 l 1
EndSplineSet
EndChar

StartChar: uni250D
Encoding: 9485 9485 21
Width: 1000
Flags: HW
LayerCount: 2
Fore
SplineSet
556 -200 m 1
 444 -200 l 1
 444 411 l 1
 1000 411 l 1
 1000 189 l 1
 556 189 l 1
 556 -200 l 1
EndSplineSet
EndChar

StartChar: uni250E
Encoding: 9486 9486 22
Width: 1000
Flags: HW
LayerCount: 2
Fore
SplineSet
611 -200 m 1
 389 -200 l 1
 389 356 l 1
 1000 356 l 1
 1000 244 l 1
 611 244 l 1
 611 -200 l 1
EndSplineSet
EndChar

StartChar: uni250F
Encoding: 9487 9487 23
Width: 1000
Flags: HW
LayerCount: 2
Fore
SplineSet
611 189 m 1
 611 -200 l 1
 389 -200 l 1
 389 411 l 1
 1000 411 l 1
 1000 189 l 1
 611 189 l 1
EndSplineSet
EndChar

StartChar: SF030000
Encoding: 9488 9488 24
Width: 1000
Flags: HW
LayerCount: 2
Fore
SplineSet
556 -200 m 1
 444 -200 l 1
 444 244 l 1
 0 244 l 1
 0 356 l 1
 556 356 l 1
 556 -200 l 1
EndSplineSet
EndChar

StartChar: uni2511
Encoding: 9489 9489 25
Width: 1000
Flags: HW
LayerCount: 2
Fore
SplineSet
556 -200 m 1
 444 -200 l 1
 444 189 l 1
 0 189 l 1
 0 411 l 1
 556 411 l 1
 556 -200 l 1
EndSplineSet
EndChar

StartChar: uni2512
Encoding: 9490 9490 26
Width: 1000
Flags: HW
LayerCount: 2
Fore
SplineSet
611 -200 m 1
 389 -200 l 1
 389 244 l 1
 0 244 l 1
 0 356 l 1
 611 356 l 1
 611 -200 l 1
EndSplineSet
EndChar

StartChar: uni2513
Encoding: 9491 9491 27
Width: 1000
Flags: HW
LayerCount: 2
Fore
SplineSet
611 -200 m 1
 389 -200 l 1
 389 189 l 1
 0 189 l 1
 0 411 l 1
 611 411 l 1
 611 -200 l 1
EndSplineSet
EndChar

StartChar: SF020000
Encoding: 9492 9492 28
Width: 1000
Flags: HW
LayerCount: 2
Fore
SplineSet
444 800 m 1
 556 800 l 1
 556 356 l 1
 1000 356 l 1
 1000 244 l 1
 444 244 l 1
 444 800 l 1
EndSplineSet
EndChar

StartChar: uni2515
Encoding: 9493 9493 29
Width: 1000
Flags: HW
LayerCount: 2
Fore
SplineSet
444 800 m 1
 556 800 l 1
 556 411 l 1
 1000 411 l 1
 1000 189 l 1
 444 189 l 1
 444 800 l 1
EndSplineSet
EndChar

StartChar: uni2516
Encoding: 9494 9494 30
Width: 1000
Flags: HW
LayerCount: 2
Fore
SplineSet
389 800 m 1
 611 800 l 1
 611 356 l 1
 1000 356 l 1
 1000 244 l 1
 389 244 l 1
 389 800 l 1
EndSplineSet
EndChar

StartChar: uni2517
Encoding: 9495 9495 31
Width: 1000
Flags: HW
LayerCount: 2
Fore
SplineSet
389 800 m 1
 611 800 l 1
 611 411 l 1
 1000 411 l 1
 1000 189 l 1
 389 189 l 1
 389 800 l 1
EndSplineSet
EndChar

StartChar: SF040000
Encoding: 9496 9496 32
Width: 1000
Flags: HW
LayerCount: 2
Fore
SplineSet
444 356 m 1
 444 800 l 1
 556 800 l 1
 556 244 l 1
 0 244 l 1
 0 356 l 1
 444 356 l 1
EndSplineSet
EndChar

StartChar: uni2519
Encoding: 9497 9497 33
Width: 1000
Flags: HW
LayerCount: 2
Fore
SplineSet
444 800 m 1
 556 800 l 1
 556 189 l 1
 0 189 l 1
 0 411 l 1
 444 411 l 1
 444 800 l 1
EndSplineSet
EndChar

StartChar: uni251A
Encoding: 9498 9498 34
Width: 1000
Flags: HW
LayerCount: 2
Fore
SplineSet
389 800 m 1
 611 800 l 1
 611 244 l 1
 0 244 l 1
 0 356 l 1
 389 356 l 1
 389 800 l 1
EndSplineSet
EndChar

StartChar: uni251B
Encoding: 9499 9499 35
Width: 1000
Flags: HW
LayerCount: 2
Fore
SplineSet
389 411 m 1
 389 800 l 1
 611 800 l 1
 611 189 l 1
 0 189 l 1
 0 411 l 1
 389 411 l 1
EndSplineSet
EndChar

StartChar: SF080000
Encoding: 9500 9500 36
Width: 1000
Flags: HW
LayerCount: 2
Fore
SplineSet
444 800 m 1
 556 800 l 1
 556 356 l 1
 1000 356 l 1
 1000 244 l 1
 556 244 l 1
 556 -200 l 1
 444 -200 l 1
 444 800 l 1
EndSplineSet
EndChar

StartChar: uni251D
Encoding: 9501 9501 37
Width: 1000
Flags: HW
LayerCount: 2
Fore
SplineSet
444 800 m 1
 556 800 l 1
 556 411 l 1
 1000 411 l 1
 1000 189 l 1
 556 189 l 1
 556 -200 l 1
 444 -200 l 1
 444 800 l 1
EndSplineSet
EndChar

StartChar: uni251E
Encoding: 9502 9502 38
Width: 1000
Flags: HW
LayerCount: 2
Fore
SplineSet
389 800 m 1
 611 800 l 1
 611 356 l 1
 1000 356 l 1
 1000 244 l 1
 556 244 l 1
 556 -200 l 1
 444 -200 l 1
 444 244 l 1
 389 244 l 1
 389 800 l 1
EndSplineSet
EndChar

StartChar: uni251F
Encoding: 9503 9503 39
Width: 1000
Flags: HW
LayerCount: 2
Fore
SplineSet
444 800 m 1
 556 800 l 1
 556 356 l 1
 1000 356 l 1
 1000 244 l 1
 611 244 l 1
 611 -200 l 1
 389 -200 l 1
 389 356 l 1
 444 356 l 1
 444 800 l 1
EndSplineSet
EndChar

StartChar: uni2520
Encoding: 9504 9504 40
Width: 1000
Flags: HW
LayerCount: 2
Fore
SplineSet
389 800 m 1
 611 800 l 1
 611 356 l 1
 1000 356 l 1
 1000 244 l 1
 611 244 l 1
 611 -200 l 1
 389 -200 l 1
 389 800 l 1
EndSplineSet
EndChar

StartChar: uni2521
Encoding: 9505 9505 41
Width: 1000
Flags: HW
LayerCount: 2
Fore
SplineSet
389 800 m 1
 611 800 l 1
 611 411 l 1
 1000 411 l 1
 1000 189 l 1
 556 189 l 1
 556 -200 l 1
 444 -200 l 1
 444 189 l 1
 389 189 l 1
 389 800 l 1
EndSplineSet
EndChar

StartChar: uni2522
Encoding: 9506 9506 42
Width: 1000
Flags: HW
LayerCount: 2
Fore
SplineSet
611 189 m 1
 611 -200 l 1
 389 -200 l 1
 389 411 l 1
 444 411 l 1
 444 800 l 1
 556 800 l 1
 556 411 l 1
 1000 411 l 1
 1000 189 l 1
 611 189 l 1
EndSplineSet
EndChar

StartChar: uni2523
Encoding: 9507 9507 43
Width: 1000
Flags: HW
LayerCount: 2
Fore
SplineSet
389 800 m 1
 611 800 l 1
 611 411 l 1
 1000 411 l 1
 1000 189 l 1
 611 189 l 1
 611 -200 l 1
 389 -200 l 1
 389 800 l 1
EndSplineSet
EndChar

StartChar: SF090000
Encoding: 9508 9508 44
Width: 1000
Flags: HW
LayerCount: 2
Fore
SplineSet
444 800 m 1
 556 800 l 1
 556 -200 l 1
 444 -200 l 1
 444 244 l 1
 0 244 l 1
 0 356 l 1
 444 356 l 1
 444 800 l 1
EndSplineSet
EndChar

StartChar: uni2525
Encoding: 9509 9509 45
Width: 1000
Flags: HW
LayerCount: 2
Fore
SplineSet
444 800 m 1
 556 800 l 1
 556 -200 l 1
 444 -200 l 1
 444 189 l 1
 0 189 l 1
 0 411 l 1
 444 411 l 1
 444 800 l 1
EndSplineSet
EndChar

StartChar: uni2526
Encoding: 9510 9510 46
Width: 1000
Flags: HW
LayerCount: 2
Fore
SplineSet
556 -200 m 1
 444 -200 l 1
 444 244 l 1
 0 244 l 1
 0 356 l 1
 389 356 l 1
 389 800 l 1
 611 800 l 1
 611 244 l 1
 556 244 l 1
 556 -200 l 1
EndSplineSet
EndChar

StartChar: uni2527
Encoding: 9511 9511 47
Width: 1000
Flags: HW
LayerCount: 2
Fore
SplineSet
611 -200 m 1
 389 -200 l 1
 389 244 l 1
 0 244 l 1
 0 356 l 1
 444 356 l 1
 444 800 l 1
 556 800 l 1
 556 356 l 1
 611 356 l 1
 611 -200 l 1
EndSplineSet
EndChar

StartChar: uni2528
Encoding: 9512 9512 48
Width: 1000
Flags: HW
LayerCount: 2
Fore
SplineSet
389 800 m 1
 611 800 l 1
 611 -200 l 1
 389 -200 l 1
 389 244 l 1
 0 244 l 1
 0 356 l 1
 389 356 l 1
 389 800 l 1
EndSplineSet
EndChar

StartChar: uni2529
Encoding: 9513 9513 49
Width: 1000
Flags: HW
LayerCount: 2
Fore
SplineSet
389 411 m 1
 389 800 l 1
 611 800 l 1
 611 189 l 1
 556 189 l 1
 556 -200 l 1
 444 -200 l 1
 444 189 l 1
 0 189 l 1
 0 411 l 1
 389 411 l 1
EndSplineSet
EndChar

StartChar: uni252A
Encoding: 9514 9514 50
Width: 1000
Flags: HW
LayerCount: 2
Fore
SplineSet
611 -200 m 1
 389 -200 l 1
 389 189 l 1
 0 189 l 1
 0 411 l 1
 444 411 l 1
 444 800 l 1
 556 800 l 1
 556 411 l 1
 611 411 l 1
 611 -200 l 1
EndSplineSet
EndChar

StartChar: uni252B
Encoding: 9515 9515 51
Width: 1000
Flags: HW
LayerCount: 2
Fore
SplineSet
389 800 m 1
 611 800 l 1
 611 -200 l 1
 389 -200 l 1
 389 189 l 1
 0 189 l 1
 0 411 l 1
 389 411 l 1
 389 800 l 1
EndSplineSet
EndChar

StartChar: SF060000
Encoding: 9516 9516 52
Width: 1000
Flags: HW
LayerCount: 2
Fore
SplineSet
0 244 m 1
 0 356 l 1
 1000 356 l 1
 1000 244 l 1
 556 244 l 1
 556 -200 l 1
 444 -200 l 1
 444 244 l 1
 0 244 l 1
EndSplineSet
EndChar

StartChar: uni252D
Encoding: 9517 9517 53
Width: 1000
Flags: HW
LayerCount: 2
Fore
SplineSet
0 189 m 1
 0 411 l 1
 556 411 l 1
 556 356 l 1
 1000 356 l 1
 1000 244 l 1
 556 244 l 1
 556 -200 l 1
 444 -200 l 1
 444 189 l 1
 0 189 l 1
EndSplineSet
EndChar

StartChar: uni252E
Encoding: 9518 9518 54
Width: 1000
Flags: HW
LayerCount: 2
Fore
SplineSet
556 -200 m 1
 444 -200 l 1
 444 244 l 1
 0 244 l 1
 0 356 l 1
 444 356 l 1
 444 411 l 1
 1000 411 l 1
 1000 189 l 1
 556 189 l 1
 556 -200 l 1
EndSplineSet
EndChar

StartChar: uni252F
Encoding: 9519 9519 55
Width: 1000
Flags: HW
LayerCount: 2
Fore
SplineSet
0 189 m 1
 0 411 l 1
 1000 411 l 1
 1000 189 l 1
 556 189 l 1
 556 -200 l 1
 444 -200 l 1
 444 189 l 1
 0 189 l 1
EndSplineSet
EndChar

StartChar: uni2530
Encoding: 9520 9520 56
Width: 1000
Flags: HW
LayerCount: 2
Fore
SplineSet
0 244 m 1
 0 356 l 1
 1000 356 l 1
 1000 244 l 1
 611 244 l 1
 611 -200 l 1
 389 -200 l 1
 389 244 l 1
 0 244 l 1
EndSplineSet
EndChar

StartChar: uni2531
Encoding: 9521 9521 57
Width: 1000
Flags: HW
LayerCount: 2
Fore
SplineSet
611 -200 m 1
 389 -200 l 1
 389 189 l 1
 0 189 l 1
 0 411 l 1
 611 411 l 1
 611 356 l 1
 1000 356 l 1
 1000 244 l 1
 611 244 l 1
 611 -200 l 1
EndSplineSet
EndChar

StartChar: uni2532
Encoding: 9522 9522 58
Width: 1000
Flags: HW
LayerCount: 2
Fore
SplineSet
611 189 m 1
 611 -200 l 1
 389 -200 l 1
 389 244 l 1
 0 244 l 1
 0 356 l 1
 389 356 l 1
 389 411 l 1
 1000 411 l 1
 1000 189 l 1
 611 189 l 1
EndSplineSet
EndChar

StartChar: uni2533
Encoding: 9523 9523 59
Width: 1000
Flags: HW
LayerCount: 2
Fore
SplineSet
0 189 m 1
 0 411 l 1
 1000 411 l 1
 1000 189 l 1
 611 189 l 1
 611 -200 l 1
 389 -200 l 1
 389 189 l 1
 0 189 l 1
EndSplineSet
EndChar

StartChar: SF070000
Encoding: 9524 9524 60
Width: 1000
Flags: HW
LayerCount: 2
Fore
SplineSet
0 244 m 1
 0 356 l 1
 444 356 l 1
 444 800 l 1
 556 800 l 1
 556 356 l 1
 1000 356 l 1
 1000 244 l 1
 0 244 l 1
EndSplineSet
EndChar

StartChar: uni2535
Encoding: 9525 9525 61
Width: 1000
Flags: HW
LayerCount: 2
Fore
SplineSet
444 800 m 1
 556 800 l 1
 556 356 l 1
 1000 356 l 1
 1000 244 l 1
 556 244 l 1
 556 189 l 1
 0 189 l 1
 0 411 l 1
 444 411 l 1
 444 800 l 1
EndSplineSet
EndChar

StartChar: uni2536
Encoding: 9526 9526 62
Width: 1000
Flags: HW
LayerCount: 2
Fore
SplineSet
1000 411 m 1
 1000 189 l 1
 444 189 l 1
 444 244 l 1
 0 244 l 1
 0 356 l 1
 444 356 l 1
 444 800 l 1
 556 800 l 1
 556 411 l 1
 1000 411 l 1
EndSplineSet
EndChar

StartChar: uni2537
Encoding: 9527 9527 63
Width: 1000
Flags: HW
LayerCount: 2
Fore
SplineSet
0 189 m 1
 0 411 l 1
 444 411 l 1
 444 800 l 1
 556 800 l 1
 556 411 l 1
 1000 411 l 1
 1000 189 l 1
 0 189 l 1
EndSplineSet
EndChar

StartChar: uni2538
Encoding: 9528 9528 64
Width: 1000
Flags: HW
LayerCount: 2
Fore
SplineSet
0 244 m 1
 0 356 l 1
 389 356 l 1
 389 800 l 1
 611 800 l 1
 611 356 l 1
 1000 356 l 1
 1000 244 l 1
 0 244 l 1
EndSplineSet
EndChar

StartChar: uni2539
Encoding: 9529 9529 65
Width: 1000
Flags: HW
LayerCount: 2
Fore
SplineSet
389 411 m 1
 389 800 l 1
 611 800 l 1
 611 356 l 1
 1000 356 l 1
 1000 244 l 1
 611 244 l 1
 611 189 l 1
 0 189 l 1
 0 411 l 1
 389 411 l 1
EndSplineSet
EndChar

StartChar: uni253A
Encoding: 9530 9530 66
Width: 1000
Flags: HW
LayerCount: 2
Fore
SplineSet
389 800 m 1
 611 800 l 1
 611 411 l 1
 1000 411 l 1
 1000 189 l 1
 389 189 l 1
 389 244 l 1
 0 244 l 1
 0 356 l 1
 389 356 l 1
 389 800 l 1
EndSplineSet
EndChar

StartChar: uni253B
Encoding: 9531 9531 67
Width: 1000
Flags: HW
LayerCount: 2
Fore
SplineSet
0 189 m 1
 0 411 l 1
 389 411 l 1
 389 800 l 1
 611 800 l 1
 611 411 l 1
 1000 411 l 1
 1000 189 l 1
 0 189 l 1
EndSplineSet
EndChar

StartChar: SF050000
Encoding: 9532 9532 68
Width: 1000
Flags: HW
LayerCount: 2
Fore
SplineSet
0 244 m 1
 0 356 l 1
 444 356 l 1
 444 800 l 1
 556 800 l 1
 556 356 l 1
 1000 356 l 1
 1000 244 l 1
 556 244 l 1
 556 -200 l 1
 444 -200 l 1
 444 244 l 1
 0 244 l 1
EndSplineSet
EndChar

StartChar: uni253D
Encoding: 9533 9533 69
Width: 1000
Flags: HW
LayerCount: 2
Fore
SplineSet
444 800 m 1
 556 800 l 1
 556 356 l 1
 1000 356 l 1
 1000 244 l 1
 556 244 l 1
 556 -200 l 1
 444 -200 l 1
 444 189 l 1
 0 189 l 1
 0 411 l 1
 444 411 l 1
 444 800 l 1
EndSplineSet
EndChar

StartChar: uni253E
Encoding: 9534 9534 70
Width: 1000
Flags: HW
LayerCount: 2
Fore
SplineSet
444 800 m 1
 556 800 l 1
 556 411 l 1
 1000 411 l 1
 1000 189 l 1
 556 189 l 1
 556 -200 l 1
 444 -200 l 1
 444 244 l 1
 0 244 l 1
 0 356 l 1
 444 356 l 1
 444 800 l 1
EndSplineSet
EndChar

StartChar: uni253F
Encoding: 9535 9535 71
Width: 1000
Flags: HW
LayerCount: 2
Fore
SplineSet
444 800 m 1
 556 800 l 1
 556 411 l 1
 1000 411 l 1
 1000 189 l 1
 556 189 l 1
 556 -200 l 1
 444 -200 l 1
 444 189 l 1
 0 189 l 1
 0 411 l 1
 444 411 l 1
 444 800 l 1
EndSplineSet
EndChar

StartChar: uni2540
Encoding: 9536 9536 72
Width: 1000
Flags: HW
LayerCount: 2
Fore
SplineSet
0 244 m 1
 0 356 l 1
 389 356 l 1
 389 800 l 1
 611 800 l 1
 611 356 l 1
 1000 356 l 1
 1000 244 l 1
 556 244 l 1
 556 -200 l 1
 444 -200 l 1
 444 244 l 1
 0 244 l 1
EndSplineSet
EndChar

StartChar: uni2541
Encoding: 9537 9537 73
Width: 1000
Flags: HW
LayerCount: 2
Fore
SplineSet
0 244 m 1
 0 356 l 1
 444 356 l 1
 444 800 l 1
 556 800 l 1
 556 356 l 1
 1000 356 l 1
 1000 244 l 1
 611 244 l 1
 611 -200 l 1
 389 -200 l 1
 389 244 l 1
 0 244 l 1
EndSplineSet
EndChar

StartChar: uni2542
Encoding: 9538 9538 74
Width: 1000
Flags: HW
LayerCount: 2
Fore
SplineSet
0 244 m 1
 0 356 l 1
 389 356 l 1
 389 800 l 1
 611 800 l 1
 611 356 l 1
 1000 356 l 1
 1000 244 l 1
 611 244 l 1
 611 -200 l 1
 389 -200 l 1
 389 244 l 1
 0 244 l 1
EndSplineSet
EndChar

StartChar: uni2543
Encoding: 9539 9539 75
Width: 1000
Flags: HW
LayerCount: 2
Fore
SplineSet
389 411 m 1
 389 800 l 1
 611 800 l 1
 611 356 l 1
 1000 356 l 1
 1000 244 l 1
 611 244 l 1
 611 189 l 1
 556 189 l 1
 556 -200 l 1
 444 -200 l 1
 444 189 l 1
 0 189 l 1
 0 411 l 1
 389 411 l 1
EndSplineSet
EndChar

StartChar: uni2544
Encoding: 9540 9540 76
Width: 1000
Flags: HW
LayerCount: 2
Fore
SplineSet
556 -200 m 1
 444 -200 l 1
 444 189 l 1
 389 189 l 1
 389 244 l 1
 0 244 l 1
 0 356 l 1
 389 356 l 1
 389 800 l 1
 611 800 l 1
 611 411 l 1
 1000 411 l 1
 1000 189 l 1
 556 189 l 1
 556 -200 l 1
EndSplineSet
EndChar

StartChar: uni2545
Encoding: 9541 9541 77
Width: 1000
Flags: HW
LayerCount: 2
Fore
SplineSet
444 800 m 1
 556 800 l 1
 556 411 l 1
 611 411 l 1
 611 356 l 1
 1000 356 l 1
 1000 244 l 1
 611 244 l 1
 611 -200 l 1
 389 -200 l 1
 389 189 l 1
 0 189 l 1
 0 411 l 1
 444 411 l 1
 444 800 l 1
EndSplineSet
EndChar

StartChar: uni2546
Encoding: 9542 9542 78
Width: 1000
Flags: HW
LayerCount: 2
Fore
SplineSet
611 189 m 1
 611 -200 l 1
 389 -200 l 1
 389 244 l 1
 0 244 l 1
 0 356 l 1
 389 356 l 1
 389 411 l 1
 444 411 l 1
 444 800 l 1
 556 800 l 1
 556 411 l 1
 1000 411 l 1
 1000 189 l 1
 611 189 l 1
EndSplineSet
EndChar

StartChar: uni2547
Encoding: 9543 9543 79
Width: 1000
Flags: HW
LayerCount: 2
Fore
SplineSet
0 189 m 1
 0 411 l 1
 389 411 l 1
 389 800 l 1
 611 800 l 1
 611 411 l 1
 1000 411 l 1
 1000 189 l 1
 556 189 l 1
 556 -200 l 1
 444 -200 l 1
 444 189 l 1
 0 189 l 1
EndSplineSet
EndChar

StartChar: uni2548
Encoding: 9544 9544 80
Width: 1000
Flags: HW
LayerCount: 2
Fore
SplineSet
0 189 m 1
 0 411 l 1
 444 411 l 1
 444 800 l 1
 556 800 l 1
 556 411 l 1
 1000 411 l 1
 1000 189 l 1
 611 189 l 1
 611 -200 l 1
 389 -200 l 1
 389 189 l 1
 0 189 l 1
EndSplineSet
EndChar

StartChar: uni2549
Encoding: 9545 9545 81
Width: 1000
Flags: HW
LayerCount: 2
Fore
SplineSet
389 800 m 1
 611 800 l 1
 611 356 l 1
 1000 356 l 1
 1000 244 l 1
 611 244 l 1
 611 -200 l 1
 389 -200 l 1
 389 189 l 1
 0 189 l 1
 0 411 l 1
 389 411 l 1
 389 800 l 1
EndSplineSet
EndChar

StartChar: uni254A
Encoding: 9546 9546 82
Width: 1000
Flags: HW
LayerCount: 2
Fore
SplineSet
389 800 m 1
 611 800 l 1
 611 411 l 1
 1000 411 l 1
 1000 189 l 1
 611 189 l 1
 611 -200 l 1
 389 -200 l 1
 389 244 l 1
 0 244 l 1
 0 356 l 1
 389 356 l 1
 389 800 l 1
EndSplineSet
EndChar

StartChar: uni254B
Encoding: 9547 9547 83
Width: 1000
Flags: HW
LayerCount: 2
Fore
SplineSet
0 189 m 1
 0 411 l 1
 389 411 l 1
 389 800 l 1
 611 800 l 1
 611 411 l 1
 1000 411 l 1
 1000 189 l 1
 611 189 l 1
 611 -200 l 1
 389 -200 l 1
 389 189 l 1
 0 189 l 1
EndSplineSet
EndChar

StartChar: uni254C
Encoding: 9548 9548 84
Width: 1000
Flags: HW
LayerCount: 2
Fore
SplineSet
556 244 m 1
 556 356 l 1
 944 356 l 1
 944 244 l 1
 556 244 l 1
56 244 m 1
 56 356 l 1
 444 356 l 1
 444 244 l 1
 56 244 l 1
EndSplineSet
EndChar

StartChar: uni254D
Encoding: 9549 9549 85
Width: 1000
Flags: HW
LayerCount: 2
Fore
SplineSet
556 189 m 1
 556 411 l 1
 944 411 l 1
 944 189 l 1
 556 189 l 1
56 189 m 1
 56 411 l 1
 444 411 l 1
 444 189 l 1
 56 189 l 1
EndSplineSet
EndChar

StartChar: uni254E
Encoding: 9550 9550 86
Width: 1000
Flags: HW
LayerCount: 2
Fore
SplineSet
444 244 m 1
 556 244 l 1
 556 -144 l 1
 444 -144 l 1
 444 244 l 1
444 744 m 1
 556 744 l 1
 556 356 l 1
 444 356 l 1
 444 744 l 1
EndSplineSet
EndChar

StartChar: uni254F
Encoding: 9551 9551 87
Width: 1000
Flags: HW
LayerCount: 2
Fore
SplineSet
389 244 m 1
 611 244 l 1
 611 -144 l 1
 389 -144 l 1
 389 244 l 1
389 744 m 1
 611 744 l 1
 611 356 l 1
 389 356 l 1
 389 744 l 1
EndSplineSet
EndChar

StartChar: SF430000
Encoding: 9552 9552 88
Width: 1000
Flags: HW
LayerCount: 2
Fore
SplineSet
0 133 m 1
 0 245 l 1
 1000 245 l 1
 1000 133 l 1
 0 133 l 1
0 355 m 1
 0 467 l 1
 1000 467 l 1
 1000 355 l 1
 0 355 l 1
EndSplineSet
EndChar

StartChar: SF240000
Encoding: 9553 9553 89
Width: 1000
Flags: HW
LayerCount: 2
Fore
SplineSet
555 800 m 1
 667 800 l 1
 667 -200 l 1
 555 -200 l 1
 555 800 l 1
333 800 m 1
 445 800 l 1
 445 -200 l 1
 333 -200 l 1
 333 800 l 1
EndSplineSet
EndChar

StartChar: SF510000
Encoding: 9554 9554 90
Width: 1000
Flags: HW
LayerCount: 2
Fore
SplineSet
556 133 m 1
 556 -200 l 1
 444 -200 l 1
 444 467 l 1
 1000 467 l 1
 1000 355 l 1
 556 355 l 1
 556 245 l 1
 1000 245 l 1
 1000 133 l 1
 556 133 l 1
EndSplineSet
EndChar

StartChar: SF520000
Encoding: 9555 9555 91
Width: 1000
Flags: HW
LayerCount: 2
Fore
SplineSet
1000 356 m 1
 1000 244 l 1
 667 244 l 1
 667 -200 l 1
 555 -200 l 1
 555 244 l 1
 445 244 l 1
 445 -200 l 1
 333 -200 l 1
 333 356 l 1
 1000 356 l 1
EndSplineSet
EndChar

StartChar: SF390000
Encoding: 9556 9556 92
Width: 1000
Flags: HW
LayerCount: 2
Fore
SplineSet
667 133 m 1
 667 -200 l 1
 555 -200 l 1
 555 245 l 1
 1000 245 l 1
 1000 133 l 1
 667 133 l 1
445 355 m 1
 445 -200 l 1
 333 -200 l 1
 333 467 l 1
 1000 467 l 1
 1000 355 l 1
 445 355 l 1
EndSplineSet
EndChar

StartChar: SF220000
Encoding: 9557 9557 93
Width: 1000
Flags: HW
LayerCount: 2
Fore
SplineSet
556 -200 m 1
 444 -200 l 1
 444 133 l 1
 0 133 l 1
 0 245 l 1
 444 245 l 1
 444 355 l 1
 0 355 l 1
 0 467 l 1
 556 467 l 1
 556 -200 l 1
EndSplineSet
EndChar

StartChar: SF210000
Encoding: 9558 9558 94
Width: 1000
Flags: HW
LayerCount: 2
Fore
SplineSet
333 244 m 1
 0 244 l 1
 0 356 l 1
 667 356 l 1
 667 -200 l 1
 555 -200 l 1
 555 244 l 1
 445 244 l 1
 445 -200 l 1
 333 -200 l 1
 333 244 l 1
EndSplineSet
EndChar

StartChar: SF250000
Encoding: 9559 9559 95
Width: 1000
Flags: HW
LayerCount: 2
Fore
SplineSet
445 -200 m 1
 333 -200 l 1
 333 133 l 1
 0 133 l 1
 0 245 l 1
 445 245 l 1
 445 -200 l 1
667 -200 m 1
 555 -200 l 1
 555 355 l 1
 0 355 l 1
 0 467 l 1
 667 467 l 1
 667 -200 l 1
EndSplineSet
EndChar

StartChar: SF500000
Encoding: 9560 9560 96
Width: 1000
Flags: HW
LayerCount: 2
Fore
SplineSet
444 800 m 1
 556 800 l 1
 556 467 l 1
 1000 467 l 1
 1000 355 l 1
 556 355 l 1
 556 245 l 1
 1000 245 l 1
 1000 133 l 1
 444 133 l 1
 444 800 l 1
EndSplineSet
EndChar

StartChar: SF490000
Encoding: 9561 9561 97
Width: 1000
Flags: HW
LayerCount: 2
Fore
SplineSet
667 356 m 1
 1000 356 l 1
 1000 244 l 1
 333 244 l 1
 333 800 l 1
 445 800 l 1
 445 356 l 1
 555 356 l 1
 555 800 l 1
 667 800 l 1
 667 356 l 1
EndSplineSet
EndChar

StartChar: SF380000
Encoding: 9562 9562 98
Width: 1000
Flags: HW
LayerCount: 2
Fore
SplineSet
555 800 m 1
 667 800 l 1
 667 467 l 1
 1000 467 l 1
 1000 355 l 1
 555 355 l 1
 555 800 l 1
333 800 m 1
 445 800 l 1
 445 245 l 1
 1000 245 l 1
 1000 133 l 1
 333 133 l 1
 333 800 l 1
EndSplineSet
EndChar

StartChar: SF280000
Encoding: 9563 9563 99
Width: 1000
Flags: HW
LayerCount: 2
Fore
SplineSet
444 467 m 1
 444 800 l 1
 556 800 l 1
 556 133 l 1
 0 133 l 1
 0 245 l 1
 444 245 l 1
 444 355 l 1
 0 355 l 1
 0 467 l 1
 444 467 l 1
EndSplineSet
EndChar

StartChar: SF270000
Encoding: 9564 9564 100
Width: 1000
Flags: HW
LayerCount: 2
Fore
SplineSet
0 244 m 1
 0 356 l 1
 333 356 l 1
 333 800 l 1
 445 800 l 1
 445 356 l 1
 555 356 l 1
 555 800 l 1
 667 800 l 1
 667 244 l 1
 0 244 l 1
EndSplineSet
EndChar

StartChar: SF260000
Encoding: 9565 9565 101
Width: 1000
Flags: HW
LayerCount: 2
Fore
SplineSet
333 467 m 1
 333 800 l 1
 445 800 l 1
 445 355 l 1
 0 355 l 1
 0 467 l 1
 333 467 l 1
555 245 m 1
 555 800 l 1
 667 800 l 1
 667 133 l 1
 0 133 l 1
 0 245 l 1
 555 245 l 1
EndSplineSet
EndChar

StartChar: SF360000
Encoding: 9566 9566 102
Width: 1000
Flags: HW
LayerCount: 2
Fore
SplineSet
444 800 m 1
 556 800 l 1
 556 467 l 1
 1000 467 l 1
 1000 355 l 1
 556 355 l 1
 556 245 l 1
 1000 245 l 1
 1000 133 l 1
 556 133 l 1
 556 -200 l 1
 444 -200 l 1
 444 800 l 1
EndSplineSet
EndChar

StartChar: SF370000
Encoding: 9567 9567 103
Width: 1000
Flags: HW
LayerCount: 2
Fore
SplineSet
555 800 m 1
 667 800 l 1
 667 356 l 1
 1000 356 l 1
 1000 244 l 1
 667 244 l 1
 667 -200 l 1
 555 -200 l 1
 555 800 l 1
333 800 m 1
 445 800 l 1
 445 -200 l 1
 333 -200 l 1
 333 800 l 1
EndSplineSet
EndChar

StartChar: SF420000
Encoding: 9568 9568 104
Width: 1000
Flags: HW
LayerCount: 2
Fore
SplineSet
667 133 m 1
 667 -200 l 1
 555 -200 l 1
 555 245 l 1
 1000 245 l 1
 1000 133 l 1
 667 133 l 1
555 800 m 1
 667 800 l 1
 667 467 l 1
 1000 467 l 1
 1000 355 l 1
 555 355 l 1
 555 800 l 1
333 800 m 1
 445 800 l 1
 445 -200 l 1
 333 -200 l 1
 333 800 l 1
EndSplineSet
EndChar

StartChar: SF190000
Encoding: 9569 9569 105
Width: 1000
Flags: HW
LayerCount: 2
Fore
SplineSet
444 800 m 1
 556 800 l 1
 556 -200 l 1
 444 -200 l 1
 444 133 l 1
 0 133 l 1
 0 245 l 1
 444 245 l 1
 444 355 l 1
 0 355 l 1
 0 467 l 1
 444 467 l 1
 444 800 l 1
EndSplineSet
EndChar

StartChar: SF200000
Encoding: 9570 9570 106
Width: 1000
Flags: HW
LayerCount: 2
Fore
SplineSet
333 800 m 1
 445 800 l 1
 445 -200 l 1
 333 -200 l 1
 333 244 l 1
 0 244 l 1
 0 356 l 1
 333 356 l 1
 333 800 l 1
555 800 m 1
 667 800 l 1
 667 -200 l 1
 555 -200 l 1
 555 800 l 1
EndSplineSet
EndChar

StartChar: SF230000
Encoding: 9571 9571 107
Width: 1000
Flags: HW
LayerCount: 2
Fore
SplineSet
445 -200 m 1
 333 -200 l 1
 333 133 l 1
 0 133 l 1
 0 245 l 1
 445 245 l 1
 445 -200 l 1
333 467 m 1
 333 800 l 1
 445 800 l 1
 445 355 l 1
 0 355 l 1
 0 467 l 1
 333 467 l 1
555 800 m 1
 667 800 l 1
 667 -200 l 1
 555 -200 l 1
 555 800 l 1
EndSplineSet
EndChar

StartChar: SF470000
Encoding: 9572 9572 108
Width: 1000
Flags: HW
LayerCount: 2
Fore
SplineSet
0 133 m 1
 0 245 l 1
 1000 245 l 1
 1000 133 l 1
 556 133 l 1
 556 -200 l 1
 444 -200 l 1
 444 133 l 1
 0 133 l 1
0 355 m 1
 0 467 l 1
 1000 467 l 1
 1000 355 l 1
 0 355 l 1
EndSplineSet
EndChar

StartChar: SF480000
Encoding: 9573 9573 109
Width: 1000
Flags: HW
LayerCount: 2
Fore
SplineSet
0 244 m 1
 0 356 l 1
 1000 356 l 1
 1000 244 l 1
 667 244 l 1
 667 -200 l 1
 555 -200 l 1
 555 244 l 1
 445 244 l 1
 445 -200 l 1
 333 -200 l 1
 333 244 l 1
 0 244 l 1
EndSplineSet
EndChar

StartChar: SF410000
Encoding: 9574 9574 110
Width: 1000
Flags: HW
LayerCount: 2
Fore
SplineSet
1000 245 m 1
 1000 133 l 1
 667 133 l 1
 667 -200 l 1
 555 -200 l 1
 555 245 l 1
 1000 245 l 1
333 133 m 1
 0 133 l 1
 0 245 l 1
 445 245 l 1
 445 -200 l 1
 333 -200 l 1
 333 133 l 1
0 355 m 1
 0 467 l 1
 1000 467 l 1
 1000 355 l 1
 0 355 l 1
EndSplineSet
EndChar

StartChar: SF450000
Encoding: 9575 9575 111
Width: 1000
Flags: HW
LayerCount: 2
Fore
SplineSet
0 355 m 1
 0 467 l 1
 444 467 l 1
 444 800 l 1
 556 800 l 1
 556 467 l 1
 1000 467 l 1
 1000 355 l 1
 0 355 l 1
0 133 m 1
 0 245 l 1
 1000 245 l 1
 1000 133 l 1
 0 133 l 1
EndSplineSet
EndChar

StartChar: SF460000
Encoding: 9576 9576 112
Width: 1000
Flags: HW
LayerCount: 2
Fore
SplineSet
0 244 m 1
 0 356 l 1
 333 356 l 1
 333 800 l 1
 445 800 l 1
 445 356 l 1
 555 356 l 1
 555 800 l 1
 667 800 l 1
 667 356 l 1
 1000 356 l 1
 1000 244 l 1
 0 244 l 1
EndSplineSet
EndChar

StartChar: SF400000
Encoding: 9577 9577 113
Width: 1000
Flags: HW
LayerCount: 2
Fore
SplineSet
667 467 m 1
 1000 467 l 1
 1000 355 l 1
 555 355 l 1
 555 800 l 1
 667 800 l 1
 667 467 l 1
0 355 m 1
 0 467 l 1
 333 467 l 1
 333 800 l 1
 445 800 l 1
 445 355 l 1
 0 355 l 1
0 133 m 1
 0 245 l 1
 1000 245 l 1
 1000 133 l 1
 0 133 l 1
EndSplineSet
EndChar

StartChar: SF540000
Encoding: 9578 9578 114
Width: 1000
Flags: HW
LayerCount: 2
Fore
SplineSet
0 355 m 1
 0 467 l 1
 444 467 l 1
 444 800 l 1
 556 800 l 1
 556 467 l 1
 1000 467 l 1
 1000 355 l 1
 556 355 l 1
 556 245 l 1
 1000 245 l 1
 1000 133 l 1
 556 133 l 1
 556 -200 l 1
 444 -200 l 1
 444 133 l 1
 0 133 l 1
 0 245 l 1
 444 245 l 1
 444 355 l 1
 0 355 l 1
EndSplineSet
EndChar

StartChar: SF530000
Encoding: 9579 9579 115
Width: 1000
Flags: HW
LayerCount: 2
Fore
SplineSet
333 800 m 1
 445 800 l 1
 445 356 l 1
 555 356 l 1
 555 800 l 1
 667 800 l 1
 667 356 l 1
 1000 356 l 1
 1000 244 l 1
 667 244 l 1
 667 -200 l 1
 555 -200 l 1
 555 244 l 1
 445 244 l 1
 445 -200 l 1
 333 -200 l 1
 333 244 l 1
 0 244 l 1
 0 356 l 1
 333 356 l 1
 333 800 l 1
EndSplineSet
EndChar

StartChar: SF440000
Encoding: 9580 9580 116
Width: 1000
Flags: HW
LayerCount: 2
Fore
SplineSet
667 133 m 1
 667 -200 l 1
 555 -200 l 1
 555 245 l 1
 1000 245 l 1
 1000 133 l 1
 667 133 l 1
445 -200 m 1
 333 -200 l 1
 333 133 l 1
 0 133 l 1
 0 245 l 1
 445 245 l 1
 445 -200 l 1
555 800 m 1
 667 800 l 1
 667 467 l 1
 1000 467 l 1
 1000 355 l 1
 555 355 l 1
 555 800 l 1
333 467 m 1
 333 800 l 1
 445 800 l 1
 445 355 l 1
 0 355 l 1
 0 467 l 1
 333 467 l 1
EndSplineSet
EndChar

StartChar: uni256D
Encoding: 9581 9581 117
Width: 1000
Flags: HW
LayerCount: 2
Fore
SplineSet
556 -200 m 1
 444 -200 l 1
 444 107 693 356 1000 356 c 1
 1000 244 l 1
 755 244 556 45 556 -200 c 1
EndSplineSet
EndChar

StartChar: uni256E
Encoding: 9582 9582 118
Width: 1000
Flags: HW
LayerCount: 2
Fore
SplineSet
0 244 m 1
 0 356 l 1
 307 356 556 107 556 -200 c 1
 444 -200 l 1
 444 45 245 244 0 244 c 1
EndSplineSet
EndChar

StartChar: uni256F
Encoding: 9583 9583 119
Width: 1000
Flags: HW
LayerCount: 2
Fore
SplineSet
0 356 m 1
 245 356 444 555 444 800 c 1
 556 800 l 1
 556 493 307 244 0 244 c 1
 0 356 l 1
EndSplineSet
EndChar

StartChar: uni2570
Encoding: 9584 9584 120
Width: 1000
Flags: HW
LayerCount: 2
Fore
SplineSet
1000 356 m 1
 1000 244 l 1
 693 244 444 493 444 800 c 1
 556 800 l 1
 556 555 755 356 1000 356 c 1
EndSplineSet
EndChar

StartChar: uni2571
Encoding: 9585 9585 121
Width: 1000
Flags: HW
LayerCount: 2
Fore
SplineSet
0 -121 m 1
 921 800 l 1
 1000 800 l 1
 1000 721 l 1
 79 -200 l 1
 0 -200 l 1
 0 -121 l 1
EndSplineSet
EndChar

StartChar: uni2572
Encoding: 9586 9586 122
Width: 1000
Flags: HW
LayerCount: 2
Fore
SplineSet
0 721 m 1
 0 800 l 1
 79 800 l 1
 1000 -121 l 1
 1000 -200 l 1
 921 -200 l 1
 0 721 l 1
EndSplineSet
EndChar

StartChar: uni2573
Encoding: 9587 9587 123
Width: 1000
Flags: HW
LayerCount: 2
Fore
SplineSet
0 721 m 1
 0 800 l 1
 79 800 l 1
 500 379 l 1
 921 800 l 1
 1000 800 l 1
 1000 721 l 1
 579 300 l 1
 1000 -121 l 1
 1000 -200 l 1
 921 -200 l 1
 500 221 l 1
 79 -200 l 1
 0 -200 l 1
 0 -121 l 1
 421 300 l 1
 0 721 l 1
EndSplineSet
EndChar

StartChar: uni2574
Encoding: 9588 9588 124
Width: 1000
Flags: HW
LayerCount: 2
Fore
SplineSet
0 244 m 1
 0 356 l 1
 500 356 l 1
 500 244 l 1
 0 244 l 1
EndSplineSet
EndChar

StartChar: uni2575
Encoding: 9589 9589 125
Width: 1000
Flags: HW
LayerCount: 2
Fore
SplineSet
444 800 m 1
 556 800 l 1
 556 300 l 1
 444 300 l 1
 444 800 l 1
EndSplineSet
EndChar

StartChar: uni2576
Encoding: 9590 9590 126
Width: 1000
Flags: HW
LayerCount: 2
Fore
SplineSet
1000 356 m 1
 1000 244 l 1
 500 244 l 1
 500 356 l 1
 1000 356 l 1
EndSplineSet
EndChar

StartChar: uni2577
Encoding: 9591 9591 127
Width: 1000
Flags: HW
LayerCount: 2
Fore
SplineSet
556 -200 m 1
 444 -200 l 1
 444 300 l 1
 556 300 l 1
 556 -200 l 1
EndSplineSet
EndChar

StartChar: uni2578
Encoding: 9592 9592 128
Width: 1000
Flags: HW
LayerCount: 2
Fore
SplineSet
0 189 m 1
 0 411 l 1
 500 411 l 1
 500 189 l 1
 0 189 l 1
EndSplineSet
EndChar

StartChar: uni2579
Encoding: 9593 9593 129
Width: 1000
Flags: HW
LayerCount: 2
Fore
SplineSet
389 800 m 1
 611 800 l 1
 611 300 l 1
 389 300 l 1
 389 800 l 1
EndSplineSet
EndChar

StartChar: uni257A
Encoding: 9594 9594 130
Width: 1000
Flags: HW
LayerCount: 2
Fore
SplineSet
1000 411 m 1
 1000 189 l 1
 500 189 l 1
 500 411 l 1
 1000 411 l 1
EndSplineSet
EndChar

StartChar: uni257B
Encoding: 9595 9595 131
Width: 1000
Flags: HW
LayerCount: 2
Fore
SplineSet
611 -200 m 1
 389 -200 l 1
 389 300 l 1
 611 300 l 1
 611 -200 l 1
EndSplineSet
EndChar

StartChar: uni257C
Encoding: 9596 9596 132
Width: 1000
Flags: HW
LayerCount: 2
Fore
SplineSet
0 244 m 1
 0 356 l 1
 500 356 l 1
 500 411 l 1
 1000 411 l 1
 1000 189 l 1
 500 189 l 1
 500 244 l 1
 0 244 l 1
EndSplineSet
EndChar

StartChar: uni257D
Encoding: 9597 9597 133
Width: 1000
Flags: HW
LayerCount: 2
Fore
SplineSet
444 800 m 1
 556 800 l 1
 556 300 l 1
 611 300 l 1
 611 -200 l 1
 389 -200 l 1
 389 300 l 1
 444 300 l 1
 444 800 l 1
EndSplineSet
EndChar

StartChar: uni257E
Encoding: 9598 9598 134
Width: 1000
Flags: HW
LayerCount: 2
Fore
SplineSet
1000 356 m 1
 1000 244 l 1
 500 244 l 1
 500 189 l 1
 0 189 l 1
 0 411 l 1
 500 411 l 1
 500 356 l 1
 1000 356 l 1
EndSplineSet
EndChar

StartChar: uni257F
Encoding: 9599 9599 135
Width: 1000
Flags: HW
LayerCount: 2
Fore
SplineSet
556 -200 m 1
 444 -200 l 1
 444 300 l 1
 389 300 l 1
 389 800 l 1
 611 800 l 1
 611 300 l 1
 556 300 l 1
 556 -200 l 1
EndSplineSet
EndChar

StartChar: upblock
Encoding: 9600 9600 136
Width: 1000
Flags: HW
LayerCount: 2
Fore
SplineSet
0 800 m 1
 1000 800 l 1
 1000 300 l 1
 0 300 l 1
 0 800 l 1
EndSplineSet
EndChar

StartChar: uni2581
Encoding: 9601 9601 137
Width: 1000
Flags: HW
LayerCount: 2
Fore
SplineSet
0 -75 m 1
 1000 -75 l 1
 1000 -200 l 1
 0 -200 l 1
 0 -75 l 1
EndSplineSet
EndChar

StartChar: uni2582
Encoding: 9602 9602 138
Width: 1000
Flags: HW
LayerCount: 2
Fore
SplineSet
0 50 m 1
 1000 50 l 1
 1000 -200 l 1
 0 -200 l 1
 0 50 l 1
EndSplineSet
EndChar

StartChar: uni2583
Encoding: 9603 9603 139
Width: 1000
Flags: HW
LayerCount: 2
Fore
SplineSet
0 175 m 1
 1000 175 l 1
 1000 -200 l 1
 0 -200 l 1
 0 175 l 1
EndSplineSet
EndChar

StartChar: dnblock
Encoding: 9604 9604 140
Width: 1000
Flags: HW
LayerCount: 2
Fore
SplineSet
0 300 m 1
 1000 300 l 1
 1000 -200 l 1
 0 -200 l 1
 0 300 l 1
EndSplineSet
EndChar

StartChar: uni2585
Encoding: 9605 9605 141
Width: 1000
Flags: HW
LayerCount: 2
Fore
SplineSet
0 425 m 1
 1000 425 l 1
 1000 -200 l 1
 0 -200 l 1
 0 425 l 1
EndSplineSet
EndChar

StartChar: uni2586
Encoding: 9606 9606 142
Width: 1000
Flags: HW
LayerCount: 2
Fore
SplineSet
0 550 m 1
 1000 550 l 1
 1000 -200 l 1
 0 -200 l 1
 0 550 l 1
EndSplineSet
EndChar

StartChar: uni2587
Encoding: 9607 9607 143
Width: 1000
Flags: HW
LayerCount: 2
Fore
SplineSet
0 675 m 1
 1000 675 l 1
 1000 -200 l 1
 0 -200 l 1
 0 675 l 1
EndSplineSet
EndChar

StartChar: block
Encoding: 9608 9608 144
Width: 1000
Flags: HW
LayerCount: 2
Fore
SplineSet
0 800 m 1
 1000 800 l 1
 1000 -200 l 1
 0 -200 l 1
 0 800 l 1
EndSplineSet
EndChar

StartChar: uni2589
Encoding: 9609 9609 145
Width: 1000
Flags: HW
LayerCount: 2
Fore
SplineSet
0 800 m 1
 875 800 l 1
 875 -200 l 1
 0 -200 l 1
 0 800 l 1
EndSplineSet
EndChar

StartChar: uni258A
Encoding: 9610 9610 146
Width: 1000
Flags: HW
LayerCount: 2
Fore
SplineSet
0 800 m 1
 750 800 l 1
 750 -200 l 1
 0 -200 l 1
 0 800 l 1
EndSplineSet
EndChar

StartChar: uni258B
Encoding: 9611 9611 147
Width: 1000
Flags: HW
LayerCount: 2
Fore
SplineSet
0 800 m 1
 625 800 l 1
 625 -200 l 1
 0 -200 l 1
 0 800 l 1
EndSplineSet
EndChar

StartChar: lfblock
Encoding: 9612 9612 148
Width: 1000
Flags: HW
LayerCount: 2
Fore
SplineSet
0 800 m 1
 500 800 l 1
 500 -200 l 1
 0 -200 l 1
 0 800 l 1
EndSplineSet
EndChar

StartChar: uni258D
Encoding: 9613 9613 149
Width: 1000
Flags: HW
LayerCount: 2
Fore
SplineSet
0 800 m 1
 375 800 l 1
 375 -200 l 1
 0 -200 l 1
 0 800 l 1
EndSplineSet
EndChar

StartChar: uni258E
Encoding: 9614 9614 150
Width: 1000
Flags: HW
LayerCount: 2
Fore
SplineSet
0 800 m 1
 250 800 l 1
 250 -200 l 1
 0 -200 l 1
 0 800 l 1
EndSplineSet
EndChar

StartChar: uni258F
Encoding: 9615 9615 151
Width: 1000
Flags: HW
LayerCount: 2
Fore
SplineSet
0 800 m 1
 125 800 l 1
 125 -200 l 1
 0 -200 l 1
 0 800 l 1
EndSplineSet
EndChar

StartChar: rtblock
Encoding: 9616 9616 152
Width: 1000
Flags: HW
LayerCount: 2
Fore
SplineSet
500 800 m 1
 1000 800 l 1
 1000 -200 l 1
 500 -200 l 1
 500 800 l 1
EndSplineSet
EndChar

StartChar: ltshade
Encoding: 9617 9617 153
Width: 1000
Flags: HW
LayerCount: 2
Fore
SplineSet
950 -100 m 1
 1000 -100 l 1
 1000 -150 l 1
 950 -150 l 1
 950 -100 l 1
850 -100 m 1
 900 -100 l 1
 900 -150 l 1
 850 -150 l 1
 850 -100 l 1
750 -100 m 1
 800 -100 l 1
 800 -150 l 1
 750 -150 l 1
 750 -100 l 1
650 -100 m 1
 700 -100 l 1
 700 -150 l 1
 650 -150 l 1
 650 -100 l 1
550 -100 m 1
 600 -100 l 1
 600 -150 l 1
 550 -150 l 1
 550 -100 l 1
450 -100 m 1
 500 -100 l 1
 500 -150 l 1
 450 -150 l 1
 450 -100 l 1
350 -100 m 1
 400 -100 l 1
 400 -150 l 1
 350 -150 l 1
 350 -100 l 1
250 -100 m 1
 300 -100 l 1
 300 -150 l 1
 250 -150 l 1
 250 -100 l 1
150 -100 m 1
 200 -100 l 1
 200 -150 l 1
 150 -150 l 1
 150 -100 l 1
50 -100 m 1
 100 -100 l 1
 100 -150 l 1
 50 -150 l 1
 50 -100 l 1
900 0 m 1
 950 0 l 1
 950 -50 l 1
 900 -50 l 1
 900 0 l 1
800 0 m 1
 850 0 l 1
 850 -50 l 1
 800 -50 l 1
 800 0 l 1
700 0 m 1
 750 0 l 1
 750 -50 l 1
 700 -50 l 1
 700 0 l 1
600 0 m 1
 650 0 l 1
 650 -50 l 1
 600 -50 l 1
 600 0 l 1
500 0 m 1
 550 0 l 1
 550 -50 l 1
 500 -50 l 1
 500 0 l 1
400 0 m 1
 450 0 l 1
 450 -50 l 1
 400 -50 l 1
 400 0 l 1
300 0 m 1
 350 0 l 1
 350 -50 l 1
 300 -50 l 1
 300 0 l 1
200 0 m 1
 250 0 l 1
 250 -50 l 1
 200 -50 l 1
 200 0 l 1
100 0 m 1
 150 0 l 1
 150 -50 l 1
 100 -50 l 1
 100 0 l 1
0 0 m 1
 50 0 l 1
 50 -50 l 1
 0 -50 l 1
 0 0 l 1
950 100 m 1
 1000 100 l 1
 1000 50 l 1
 950 50 l 1
 950 100 l 1
850 100 m 1
 900 100 l 1
 900 50 l 1
 850 50 l 1
 850 100 l 1
750 100 m 1
 800 100 l 1
 800 50 l 1
 750 50 l 1
 750 100 l 1
650 100 m 1
 700 100 l 1
 700 50 l 1
 650 50 l 1
 650 100 l 1
550 100 m 1
 600 100 l 1
 600 50 l 1
 550 50 l 1
 550 100 l 1
450 100 m 1
 500 100 l 1
 500 50 l 1
 450 50 l 1
 450 100 l 1
350 100 m 1
 400 100 l 1
 400 50 l 1
 350 50 l 1
 350 100 l 1
250 100 m 1
 300 100 l 1
 300 50 l 1
 250 50 l 1
 250 100 l 1
150 100 m 1
 200 100 l 1
 200 50 l 1
 150 50 l 1
 150 100 l 1
50 100 m 1
 100 100 l 1
 100 50 l 1
 50 50 l 1
 50 100 l 1
900 200 m 1
 950 200 l 1
 950 150 l 1
 900 150 l 1
 900 200 l 1
800 200 m 1
 850 200 l 1
 850 150 l 1
 800 150 l 1
 800 200 l 1
700 200 m 1
 750 200 l 1
 750 150 l 1
 700 150 l 1
 700 200 l 1
600 200 m 1
 650 200 l 1
 650 150 l 1
 600 150 l 1
 600 200 l 1
500 200 m 1
 550 200 l 1
 550 150 l 1
 500 150 l 1
 500 200 l 1
400 200 m 1
 450 200 l 1
 450 150 l 1
 400 150 l 1
 400 200 l 1
300 200 m 1
 350 200 l 1
 350 150 l 1
 300 150 l 1
 300 200 l 1
200 200 m 1
 250 200 l 1
 250 150 l 1
 200 150 l 1
 200 200 l 1
100 200 m 1
 150 200 l 1
 150 150 l 1
 100 150 l 1
 100 200 l 1
0 200 m 1
 50 200 l 1
 50 150 l 1
 0 150 l 1
 0 200 l 1
950 300 m 1
 1000 300 l 1
 1000 250 l 1
 950 250 l 1
 950 300 l 1
850 300 m 1
 900 300 l 1
 900 250 l 1
 850 250 l 1
 850 300 l 1
750 300 m 1
 800 300 l 1
 800 250 l 1
 750 250 l 1
 750 300 l 1
650 300 m 1
 700 300 l 1
 700 250 l 1
 650 250 l 1
 650 300 l 1
550 300 m 1
 600 300 l 1
 600 250 l 1
 550 250 l 1
 550 300 l 1
450 300 m 1
 500 300 l 1
 500 250 l 1
 450 250 l 1
 450 300 l 1
350 300 m 1
 400 300 l 1
 400 250 l 1
 350 250 l 1
 350 300 l 1
250 300 m 1
 300 300 l 1
 300 250 l 1
 250 250 l 1
 250 300 l 1
150 300 m 1
 200 300 l 1
 200 250 l 1
 150 250 l 1
 150 300 l 1
50 300 m 1
 100 300 l 1
 100 250 l 1
 50 250 l 1
 50 300 l 1
900 400 m 1
 950 400 l 1
 950 350 l 1
 900 350 l 1
 900 400 l 1
800 400 m 1
 850 400 l 1
 850 350 l 1
 800 350 l 1
 800 400 l 1
700 400 m 1
 750 400 l 1
 750 350 l 1
 700 350 l 1
 700 400 l 1
600 400 m 1
 650 400 l 1
 650 350 l 1
 600 350 l 1
 600 400 l 1
500 400 m 1
 550 400 l 1
 550 350 l 1
 500 350 l 1
 500 400 l 1
400 400 m 1
 450 400 l 1
 450 350 l 1
 400 350 l 1
 400 400 l 1
300 400 m 1
 350 400 l 1
 350 350 l 1
 300 350 l 1
 300 400 l 1
200 400 m 1
 250 400 l 1
 250 350 l 1
 200 350 l 1
 200 400 l 1
100 400 m 1
 150 400 l 1
 150 350 l 1
 100 350 l 1
 100 400 l 1
0 400 m 1
 50 400 l 1
 50 350 l 1
 0 350 l 1
 0 400 l 1
950 500 m 1
 1000 500 l 1
 1000 450 l 1
 950 450 l 1
 950 500 l 1
850 500 m 1
 900 500 l 1
 900 450 l 1
 850 450 l 1
 850 500 l 1
750 500 m 1
 800 500 l 1
 800 450 l 1
 750 450 l 1
 750 500 l 1
650 500 m 1
 700 500 l 1
 700 450 l 1
 650 450 l 1
 650 500 l 1
550 500 m 1
 600 500 l 1
 600 450 l 1
 550 450 l 1
 550 500 l 1
450 500 m 1
 500 500 l 1
 500 450 l 1
 450 450 l 1
 450 500 l 1
350 500 m 1
 400 500 l 1
 400 450 l 1
 350 450 l 1
 350 500 l 1
250 500 m 1
 300 500 l 1
 300 450 l 1
 250 450 l 1
 250 500 l 1
150 500 m 1
 200 500 l 1
 200 450 l 1
 150 450 l 1
 150 500 l 1
50 500 m 1
 100 500 l 1
 100 450 l 1
 50 450 l 1
 50 500 l 1
900 600 m 1
 950 600 l 1
 950 550 l 1
 900 550 l 1
 900 600 l 1
800 600 m 1
 850 600 l 1
 850 550 l 1
 800 550 l 1
 800 600 l 1
700 600 m 1
 750 600 l 1
 750 550 l 1
 700 550 l 1
 700 600 l 1
600 600 m 1
 650 600 l 1
 650 550 l 1
 600 550 l 1
 600 600 l 1
500 600 m 1
 550 600 l 1
 550 550 l 1
 500 550 l 1
 500 600 l 1
400 600 m 1
 450 600 l 1
 450 550 l 1
 400 550 l 1
 400 600 l 1
300 600 m 1
 350 600 l 1
 350 550 l 1
 300 550 l 1
 300 600 l 1
200 600 m 1
 250 600 l 1
 250 550 l 1
 200 550 l 1
 200 600 l 1
100 600 m 1
 150 600 l 1
 150 550 l 1
 100 550 l 1
 100 600 l 1
0 600 m 1
 50 600 l 1
 50 550 l 1
 0 550 l 1
 0 600 l 1
950 700 m 1
 1000 700 l 1
 1000 650 l 1
 950 650 l 1
 950 700 l 1
850 700 m 1
 900 700 l 1
 900 650 l 1
 850 650 l 1
 850 700 l 1
750 700 m 1
 800 700 l 1
 800 650 l 1
 750 650 l 1
 750 700 l 1
650 700 m 1
 700 700 l 1
 700 650 l 1
 650 650 l 1
 650 700 l 1
550 700 m 1
 600 700 l 1
 600 650 l 1
 550 650 l 1
 550 700 l 1
450 700 m 1
 500 700 l 1
 500 650 l 1
 450 650 l 1
 450 700 l 1
350 700 m 1
 400 700 l 1
 400 650 l 1
 350 650 l 1
 350 700 l 1
250 700 m 1
 300 700 l 1
 300 650 l 1
 250 650 l 1
 250 700 l 1
150 700 m 1
 200 700 l 1
 200 650 l 1
 150 650 l 1
 150 700 l 1
50 700 m 1
 100 700 l 1
 100 650 l 1
 50 650 l 1
 50 700 l 1
900 800 m 1
 950 800 l 1
 950 750 l 1
 900 750 l 1
 900 800 l 1
800 800 m 1
 850 800 l 1
 850 750 l 1
 800 750 l 1
 800 800 l 1
700 800 m 1
 750 800 l 1
 750 750 l 1
 700 750 l 1
 700 800 l 1
600 800 m 1
 650 800 l 1
 650 750 l 1
 600 750 l 1
 600 800 l 1
500 800 m 1
 550 800 l 1
 550 750 l 1
 500 750 l 1
 500 800 l 1
400 800 m 1
 450 800 l 1
 450 750 l 1
 400 750 l 1
 400 800 l 1
300 800 m 1
 350 800 l 1
 350 750 l 1
 300 750 l 1
 300 800 l 1
200 800 m 1
 250 800 l 1
 250 750 l 1
 200 750 l 1
 200 800 l 1
100 800 m 1
 150 800 l 1
 150 750 l 1
 100 750 l 1
 100 800 l 1
0 800 m 1
 50 800 l 1
 50 750 l 1
 0 750 l 1
 0 800 l 1
EndSplineSet
EndChar

StartChar: shade
Encoding: 9618 9618 154
Width: 1000
Flags: HW
LayerCount: 2
Fore
SplineSet
950 -150 m 1
 1000 -150 l 1
 1000 -200 l 1
 950 -200 l 1
 950 -150 l 1
850 -150 m 1
 900 -150 l 1
 900 -200 l 1
 850 -200 l 1
 850 -150 l 1
750 -150 m 1
 800 -150 l 1
 800 -200 l 1
 750 -200 l 1
 750 -150 l 1
650 -150 m 1
 700 -150 l 1
 700 -200 l 1
 650 -200 l 1
 650 -150 l 1
550 -150 m 1
 600 -150 l 1
 600 -200 l 1
 550 -200 l 1
 550 -150 l 1
450 -150 m 1
 500 -150 l 1
 500 -200 l 1
 450 -200 l 1
 450 -150 l 1
350 -150 m 1
 400 -150 l 1
 400 -200 l 1
 350 -200 l 1
 350 -150 l 1
250 -150 m 1
 300 -150 l 1
 300 -200 l 1
 250 -200 l 1
 250 -150 l 1
150 -150 m 1
 200 -150 l 1
 200 -200 l 1
 150 -200 l 1
 150 -150 l 1
50 -150 m 1
 100 -150 l 1
 100 -200 l 1
 50 -200 l 1
 50 -150 l 1
900 -100 m 1
 950 -100 l 1
 950 -150 l 1
 900 -150 l 1
 900 -100 l 1
800 -100 m 1
 850 -100 l 1
 850 -150 l 1
 800 -150 l 1
 800 -100 l 1
700 -100 m 1
 750 -100 l 1
 750 -150 l 1
 700 -150 l 1
 700 -100 l 1
600 -100 m 1
 650 -100 l 1
 650 -150 l 1
 600 -150 l 1
 600 -100 l 1
500 -100 m 1
 550 -100 l 1
 550 -150 l 1
 500 -150 l 1
 500 -100 l 1
400 -100 m 1
 450 -100 l 1
 450 -150 l 1
 400 -150 l 1
 400 -100 l 1
300 -100 m 1
 350 -100 l 1
 350 -150 l 1
 300 -150 l 1
 300 -100 l 1
200 -100 m 1
 250 -100 l 1
 250 -150 l 1
 200 -150 l 1
 200 -100 l 1
100 -100 m 1
 150 -100 l 1
 150 -150 l 1
 100 -150 l 1
 100 -100 l 1
0 -100 m 1
 50 -100 l 1
 50 -150 l 1
 0 -150 l 1
 0 -100 l 1
950 -50 m 1
 1000 -50 l 1
 1000 -100 l 1
 950 -100 l 1
 950 -50 l 1
850 -50 m 1
 900 -50 l 1
 900 -100 l 1
 850 -100 l 1
 850 -50 l 1
750 -50 m 1
 800 -50 l 1
 800 -100 l 1
 750 -100 l 1
 750 -50 l 1
650 -50 m 1
 700 -50 l 1
 700 -100 l 1
 650 -100 l 1
 650 -50 l 1
550 -50 m 1
 600 -50 l 1
 600 -100 l 1
 550 -100 l 1
 550 -50 l 1
450 -50 m 1
 500 -50 l 1
 500 -100 l 1
 450 -100 l 1
 450 -50 l 1
350 -50 m 1
 400 -50 l 1
 400 -100 l 1
 350 -100 l 1
 350 -50 l 1
250 -50 m 1
 300 -50 l 1
 300 -100 l 1
 250 -100 l 1
 250 -50 l 1
150 -50 m 1
 200 -50 l 1
 200 -100 l 1
 150 -100 l 1
 150 -50 l 1
50 -50 m 1
 100 -50 l 1
 100 -100 l 1
 50 -100 l 1
 50 -50 l 1
900 0 m 1
 950 0 l 1
 950 -50 l 1
 900 -50 l 1
 900 0 l 1
800 0 m 1
 850 0 l 1
 850 -50 l 1
 800 -50 l 1
 800 0 l 1
700 0 m 1
 750 0 l 1
 750 -50 l 1
 700 -50 l 1
 700 0 l 1
600 0 m 1
 650 0 l 1
 650 -50 l 1
 600 -50 l 1
 600 0 l 1
500 0 m 1
 550 0 l 1
 550 -50 l 1
 500 -50 l 1
 500 0 l 1
400 0 m 1
 450 0 l 1
 450 -50 l 1
 400 -50 l 1
 400 0 l 1
300 0 m 1
 350 0 l 1
 350 -50 l 1
 300 -50 l 1
 300 0 l 1
200 0 m 1
 250 0 l 1
 250 -50 l 1
 200 -50 l 1
 200 0 l 1
100 0 m 1
 150 0 l 1
 150 -50 l 1
 100 -50 l 1
 100 0 l 1
0 0 m 1
 50 0 l 1
 50 -50 l 1
 0 -50 l 1
 0 0 l 1
950 50 m 1
 1000 50 l 1
 1000 0 l 1
 950 0 l 1
 950 50 l 1
850 50 m 1
 900 50 l 1
 900 0 l 1
 850 0 l 1
 850 50 l 1
750 50 m 1
 800 50 l 1
 800 0 l 1
 750 0 l 1
 750 50 l 1
650 50 m 1
 700 50 l 1
 700 0 l 1
 650 0 l 1
 650 50 l 1
550 50 m 1
 600 50 l 1
 600 0 l 1
 550 0 l 1
 550 50 l 1
450 50 m 1
 500 50 l 1
 500 0 l 1
 450 0 l 1
 450 50 l 1
350 50 m 1
 400 50 l 1
 400 0 l 1
 350 0 l 1
 350 50 l 1
250 50 m 1
 300 50 l 1
 300 0 l 1
 250 0 l 1
 250 50 l 1
150 50 m 1
 200 50 l 1
 200 0 l 1
 150 0 l 1
 150 50 l 1
50 50 m 1
 100 50 l 1
 100 0 l 1
 50 0 l 1
 50 50 l 1
900 100 m 1
 950 100 l 1
 950 50 l 1
 900 50 l 1
 900 100 l 1
800 100 m 1
 850 100 l 1
 850 50 l 1
 800 50 l 1
 800 100 l 1
700 100 m 1
 750 100 l 1
 750 50 l 1
 700 50 l 1
 700 100 l 1
600 100 m 1
 650 100 l 1
 650 50 l 1
 600 50 l 1
 600 100 l 1
500 100 m 1
 550 100 l 1
 550 50 l 1
 500 50 l 1
 500 100 l 1
400 100 m 1
 450 100 l 1
 450 50 l 1
 400 50 l 1
 400 100 l 1
300 100 m 1
 350 100 l 1
 350 50 l 1
 300 50 l 1
 300 100 l 1
200 100 m 1
 250 100 l 1
 250 50 l 1
 200 50 l 1
 200 100 l 1
100 100 m 1
 150 100 l 1
 150 50 l 1
 100 50 l 1
 100 100 l 1
0 100 m 1
 50 100 l 1
 50 50 l 1
 0 50 l 1
 0 100 l 1
950 150 m 1
 1000 150 l 1
 1000 100 l 1
 950 100 l 1
 950 150 l 1
850 150 m 1
 900 150 l 1
 900 100 l 1
 850 100 l 1
 850 150 l 1
750 150 m 1
 800 150 l 1
 800 100 l 1
 750 100 l 1
 750 150 l 1
650 150 m 1
 700 150 l 1
 700 100 l 1
 650 100 l 1
 650 150 l 1
550 150 m 1
 600 150 l 1
 600 100 l 1
 550 100 l 1
 550 150 l 1
450 150 m 1
 500 150 l 1
 500 100 l 1
 450 100 l 1
 450 150 l 1
350 150 m 1
 400 150 l 1
 400 100 l 1
 350 100 l 1
 350 150 l 1
250 150 m 1
 300 150 l 1
 300 100 l 1
 250 100 l 1
 250 150 l 1
150 150 m 1
 200 150 l 1
 200 100 l 1
 150 100 l 1
 150 150 l 1
50 150 m 1
 100 150 l 1
 100 100 l 1
 50 100 l 1
 50 150 l 1
900 200 m 1
 950 200 l 1
 950 150 l 1
 900 150 l 1
 900 200 l 1
800 200 m 1
 850 200 l 1
 850 150 l 1
 800 150 l 1
 800 200 l 1
700 200 m 1
 750 200 l 1
 750 150 l 1
 700 150 l 1
 700 200 l 1
600 200 m 1
 650 200 l 1
 650 150 l 1
 600 150 l 1
 600 200 l 1
500 200 m 1
 550 200 l 1
 550 150 l 1
 500 150 l 1
 500 200 l 1
400 200 m 1
 450 200 l 1
 450 150 l 1
 400 150 l 1
 400 200 l 1
300 200 m 1
 350 200 l 1
 350 150 l 1
 300 150 l 1
 300 200 l 1
200 200 m 1
 250 200 l 1
 250 150 l 1
 200 150 l 1
 200 200 l 1
100 200 m 1
 150 200 l 1
 150 150 l 1
 100 150 l 1
 100 200 l 1
0 200 m 1
 50 200 l 1
 50 150 l 1
 0 150 l 1
 0 200 l 1
950 250 m 1
 1000 250 l 1
 1000 200 l 1
 950 200 l 1
 950 250 l 1
850 250 m 1
 900 250 l 1
 900 200 l 1
 850 200 l 1
 850 250 l 1
750 250 m 1
 800 250 l 1
 800 200 l 1
 750 200 l 1
 750 250 l 1
650 250 m 1
 700 250 l 1
 700 200 l 1
 650 200 l 1
 650 250 l 1
550 250 m 1
 600 250 l 1
 600 200 l 1
 550 200 l 1
 550 250 l 1
450 250 m 1
 500 250 l 1
 500 200 l 1
 450 200 l 1
 450 250 l 1
350 250 m 1
 400 250 l 1
 400 200 l 1
 350 200 l 1
 350 250 l 1
250 250 m 1
 300 250 l 1
 300 200 l 1
 250 200 l 1
 250 250 l 1
150 250 m 1
 200 250 l 1
 200 200 l 1
 150 200 l 1
 150 250 l 1
50 250 m 1
 100 250 l 1
 100 200 l 1
 50 200 l 1
 50 250 l 1
900 300 m 1
 950 300 l 1
 950 250 l 1
 900 250 l 1
 900 300 l 1
800 300 m 1
 850 300 l 1
 850 250 l 1
 800 250 l 1
 800 300 l 1
700 300 m 1
 750 300 l 1
 750 250 l 1
 700 250 l 1
 700 300 l 1
600 300 m 1
 650 300 l 1
 650 250 l 1
 600 250 l 1
 600 300 l 1
500 300 m 1
 550 300 l 1
 550 250 l 1
 500 250 l 1
 500 300 l 1
400 300 m 1
 450 300 l 1
 450 250 l 1
 400 250 l 1
 400 300 l 1
300 300 m 1
 350 300 l 1
 350 250 l 1
 300 250 l 1
 300 300 l 1
200 300 m 1
 250 300 l 1
 250 250 l 1
 200 250 l 1
 200 300 l 1
100 300 m 1
 150 300 l 1
 150 250 l 1
 100 250 l 1
 100 300 l 1
0 300 m 1
 50 300 l 1
 50 250 l 1
 0 250 l 1
 0 300 l 1
950 350 m 1
 1000 350 l 1
 1000 300 l 1
 950 300 l 1
 950 350 l 1
850 350 m 1
 900 350 l 1
 900 300 l 1
 850 300 l 1
 850 350 l 1
750 350 m 1
 800 350 l 1
 800 300 l 1
 750 300 l 1
 750 350 l 1
650 350 m 1
 700 350 l 1
 700 300 l 1
 650 300 l 1
 650 350 l 1
550 350 m 1
 600 350 l 1
 600 300 l 1
 550 300 l 1
 550 350 l 1
450 350 m 1
 500 350 l 1
 500 300 l 1
 450 300 l 1
 450 350 l 1
350 350 m 1
 400 350 l 1
 400 300 l 1
 350 300 l 1
 350 350 l 1
250 350 m 1
 300 350 l 1
 300 300 l 1
 250 300 l 1
 250 350 l 1
150 350 m 1
 200 350 l 1
 200 300 l 1
 150 300 l 1
 150 350 l 1
50 350 m 1
 100 350 l 1
 100 300 l 1
 50 300 l 1
 50 350 l 1
900 400 m 1
 950 400 l 1
 950 350 l 1
 900 350 l 1
 900 400 l 1
800 400 m 1
 850 400 l 1
 850 350 l 1
 800 350 l 1
 800 400 l 1
700 400 m 1
 750 400 l 1
 750 350 l 1
 700 350 l 1
 700 400 l 1
600 400 m 1
 650 400 l 1
 650 350 l 1
 600 350 l 1
 600 400 l 1
500 400 m 1
 550 400 l 1
 550 350 l 1
 500 350 l 1
 500 400 l 1
400 400 m 1
 450 400 l 1
 450 350 l 1
 400 350 l 1
 400 400 l 1
300 400 m 1
 350 400 l 1
 350 350 l 1
 300 350 l 1
 300 400 l 1
200 400 m 1
 250 400 l 1
 250 350 l 1
 200 350 l 1
 200 400 l 1
100 400 m 1
 150 400 l 1
 150 350 l 1
 100 350 l 1
 100 400 l 1
0 400 m 1
 50 400 l 1
 50 350 l 1
 0 350 l 1
 0 400 l 1
950 450 m 1
 1000 450 l 1
 1000 400 l 1
 950 400 l 1
 950 450 l 1
850 450 m 1
 900 450 l 1
 900 400 l 1
 850 400 l 1
 850 450 l 1
750 450 m 1
 800 450 l 1
 800 400 l 1
 750 400 l 1
 750 450 l 1
650 450 m 1
 700 450 l 1
 700 400 l 1
 650 400 l 1
 650 450 l 1
550 450 m 1
 600 450 l 1
 600 400 l 1
 550 400 l 1
 550 450 l 1
450 450 m 1
 500 450 l 1
 500 400 l 1
 450 400 l 1
 450 450 l 1
350 450 m 1
 400 450 l 1
 400 400 l 1
 350 400 l 1
 350 450 l 1
250 450 m 1
 300 450 l 1
 300 400 l 1
 250 400 l 1
 250 450 l 1
150 450 m 1
 200 450 l 1
 200 400 l 1
 150 400 l 1
 150 450 l 1
50 450 m 1
 100 450 l 1
 100 400 l 1
 50 400 l 1
 50 450 l 1
900 500 m 1
 950 500 l 1
 950 450 l 1
 900 450 l 1
 900 500 l 1
800 500 m 1
 850 500 l 1
 850 450 l 1
 800 450 l 1
 800 500 l 1
700 500 m 1
 750 500 l 1
 750 450 l 1
 700 450 l 1
 700 500 l 1
600 500 m 1
 650 500 l 1
 650 450 l 1
 600 450 l 1
 600 500 l 1
500 500 m 1
 550 500 l 1
 550 450 l 1
 500 450 l 1
 500 500 l 1
400 500 m 1
 450 500 l 1
 450 450 l 1
 400 450 l 1
 400 500 l 1
300 500 m 1
 350 500 l 1
 350 450 l 1
 300 450 l 1
 300 500 l 1
200 500 m 1
 250 500 l 1
 250 450 l 1
 200 450 l 1
 200 500 l 1
100 500 m 1
 150 500 l 1
 150 450 l 1
 100 450 l 1
 100 500 l 1
0 500 m 1
 50 500 l 1
 50 450 l 1
 0 450 l 1
 0 500 l 1
950 550 m 1
 1000 550 l 1
 1000 500 l 1
 950 500 l 1
 950 550 l 1
850 550 m 1
 900 550 l 1
 900 500 l 1
 850 500 l 1
 850 550 l 1
750 550 m 1
 800 550 l 1
 800 500 l 1
 750 500 l 1
 750 550 l 1
650 550 m 1
 700 550 l 1
 700 500 l 1
 650 500 l 1
 650 550 l 1
550 550 m 1
 600 550 l 1
 600 500 l 1
 550 500 l 1
 550 550 l 1
450 550 m 1
 500 550 l 1
 500 500 l 1
 450 500 l 1
 450 550 l 1
350 550 m 1
 400 550 l 1
 400 500 l 1
 350 500 l 1
 350 550 l 1
250 550 m 1
 300 550 l 1
 300 500 l 1
 250 500 l 1
 250 550 l 1
150 550 m 1
 200 550 l 1
 200 500 l 1
 150 500 l 1
 150 550 l 1
50 550 m 1
 100 550 l 1
 100 500 l 1
 50 500 l 1
 50 550 l 1
900 600 m 1
 950 600 l 1
 950 550 l 1
 900 550 l 1
 900 600 l 1
800 600 m 1
 850 600 l 1
 850 550 l 1
 800 550 l 1
 800 600 l 1
700 600 m 1
 750 600 l 1
 750 550 l 1
 700 550 l 1
 700 600 l 1
600 600 m 1
 650 600 l 1
 650 550 l 1
 600 550 l 1
 600 600 l 1
500 600 m 1
 550 600 l 1
 550 550 l 1
 500 550 l 1
 500 600 l 1
400 600 m 1
 450 600 l 1
 450 550 l 1
 400 550 l 1
 400 600 l 1
300 600 m 1
 350 600 l 1
 350 550 l 1
 300 550 l 1
 300 600 l 1
200 600 m 1
 250 600 l 1
 250 550 l 1
 200 550 l 1
 200 600 l 1
100 600 m 1
 150 600 l 1
 150 550 l 1
 100 550 l 1
 100 600 l 1
0 600 m 1
 50 600 l 1
 50 550 l 1
 0 550 l 1
 0 600 l 1
950 650 m 1
 1000 650 l 1
 1000 600 l 1
 950 600 l 1
 950 650 l 1
850 650 m 1
 900 650 l 1
 900 600 l 1
 850 600 l 1
 850 650 l 1
750 650 m 1
 800 650 l 1
 800 600 l 1
 750 600 l 1
 750 650 l 1
650 650 m 1
 700 650 l 1
 700 600 l 1
 650 600 l 1
 650 650 l 1
550 650 m 1
 600 650 l 1
 600 600 l 1
 550 600 l 1
 550 650 l 1
450 650 m 1
 500 650 l 1
 500 600 l 1
 450 600 l 1
 450 650 l 1
350 650 m 1
 400 650 l 1
 400 600 l 1
 350 600 l 1
 350 650 l 1
250 650 m 1
 300 650 l 1
 300 600 l 1
 250 600 l 1
 250 650 l 1
150 650 m 1
 200 650 l 1
 200 600 l 1
 150 600 l 1
 150 650 l 1
50 650 m 1
 100 650 l 1
 100 600 l 1
 50 600 l 1
 50 650 l 1
900 700 m 1
 950 700 l 1
 950 650 l 1
 900 650 l 1
 900 700 l 1
800 700 m 1
 850 700 l 1
 850 650 l 1
 800 650 l 1
 800 700 l 1
700 700 m 1
 750 700 l 1
 750 650 l 1
 700 650 l 1
 700 700 l 1
600 700 m 1
 650 700 l 1
 650 650 l 1
 600 650 l 1
 600 700 l 1
500 700 m 1
 550 700 l 1
 550 650 l 1
 500 650 l 1
 500 700 l 1
400 700 m 1
 450 700 l 1
 450 650 l 1
 400 650 l 1
 400 700 l 1
300 700 m 1
 350 700 l 1
 350 650 l 1
 300 650 l 1
 300 700 l 1
200 700 m 1
 250 700 l 1
 250 650 l 1
 200 650 l 1
 200 700 l 1
100 700 m 1
 150 700 l 1
 150 650 l 1
 100 650 l 1
 100 700 l 1
0 700 m 1
 50 700 l 1
 50 650 l 1
 0 650 l 1
 0 700 l 1
950 750 m 1
 1000 750 l 1
 1000 700 l 1
 950 700 l 1
 950 750 l 1
850 750 m 1
 900 750 l 1
 900 700 l 1
 850 700 l 1
 850 750 l 1
750 750 m 1
 800 750 l 1
 800 700 l 1
 750 700 l 1
 750 750 l 1
650 750 m 1
 700 750 l 1
 700 700 l 1
 650 700 l 1
 650 750 l 1
550 750 m 1
 600 750 l 1
 600 700 l 1
 550 700 l 1
 550 750 l 1
450 750 m 1
 500 750 l 1
 500 700 l 1
 450 700 l 1
 450 750 l 1
350 750 m 1
 400 750 l 1
 400 700 l 1
 350 700 l 1
 350 750 l 1
250 750 m 1
 300 750 l 1
 300 700 l 1
 250 700 l 1
 250 750 l 1
150 750 m 1
 200 750 l 1
 200 700 l 1
 150 700 l 1
 150 750 l 1
50 750 m 1
 100 750 l 1
 100 700 l 1
 50 700 l 1
 50 750 l 1
900 800 m 1
 950 800 l 1
 950 750 l 1
 900 750 l 1
 900 800 l 1
800 800 m 1
 850 800 l 1
 850 750 l 1
 800 750 l 1
 800 800 l 1
700 800 m 1
 750 800 l 1
 750 750 l 1
 700 750 l 1
 700 800 l 1
600 800 m 1
 650 800 l 1
 650 750 l 1
 600 750 l 1
 600 800 l 1
500 800 m 1
 550 800 l 1
 550 750 l 1
 500 750 l 1
 500 800 l 1
400 800 m 1
 450 800 l 1
 450 750 l 1
 400 750 l 1
 400 800 l 1
300 800 m 1
 350 800 l 1
 350 750 l 1
 300 750 l 1
 300 800 l 1
200 800 m 1
 250 800 l 1
 250 750 l 1
 200 750 l 1
 200 800 l 1
100 800 m 1
 150 800 l 1
 150 750 l 1
 100 750 l 1
 100 800 l 1
0 800 m 1
 50 800 l 1
 50 750 l 1
 0 750 l 1
 0 800 l 1
EndSplineSet
EndChar

StartChar: dkshade
Encoding: 9619 9619 155
Width: 1000
Flags: HW
LayerCount: 2
Fore
SplineSet
850 -100 m 1
 850 -150 l 1
 900 -150 l 1
 900 -100 l 1
 850 -100 l 1
750 -100 m 1
 750 -150 l 1
 800 -150 l 1
 800 -100 l 1
 750 -100 l 1
650 -100 m 1
 650 -150 l 1
 700 -150 l 1
 700 -100 l 1
 650 -100 l 1
550 -100 m 1
 550 -150 l 1
 600 -150 l 1
 600 -100 l 1
 550 -100 l 1
450 -100 m 1
 450 -150 l 1
 500 -150 l 1
 500 -100 l 1
 450 -100 l 1
350 -100 m 1
 350 -150 l 1
 400 -150 l 1
 400 -100 l 1
 350 -100 l 1
250 -100 m 1
 250 -150 l 1
 300 -150 l 1
 300 -100 l 1
 250 -100 l 1
150 -100 m 1
 150 -150 l 1
 200 -150 l 1
 200 -100 l 1
 150 -100 l 1
50 -100 m 1
 50 -150 l 1
 100 -150 l 1
 100 -100 l 1
 50 -100 l 1
900 0 m 1
 900 -50 l 1
 950 -50 l 1
 950 0 l 1
 900 0 l 1
800 0 m 1
 800 -50 l 1
 850 -50 l 1
 850 0 l 1
 800 0 l 1
700 0 m 1
 700 -50 l 1
 750 -50 l 1
 750 0 l 1
 700 0 l 1
600 0 m 1
 600 -50 l 1
 650 -50 l 1
 650 0 l 1
 600 0 l 1
500 0 m 1
 500 -50 l 1
 550 -50 l 1
 550 0 l 1
 500 0 l 1
400 0 m 1
 400 -50 l 1
 450 -50 l 1
 450 0 l 1
 400 0 l 1
300 0 m 1
 300 -50 l 1
 350 -50 l 1
 350 0 l 1
 300 0 l 1
200 0 m 1
 200 -50 l 1
 250 -50 l 1
 250 0 l 1
 200 0 l 1
100 0 m 1
 100 -50 l 1
 150 -50 l 1
 150 0 l 1
 100 0 l 1
850 100 m 1
 850 50 l 1
 900 50 l 1
 900 100 l 1
 850 100 l 1
750 100 m 1
 750 50 l 1
 800 50 l 1
 800 100 l 1
 750 100 l 1
650 100 m 1
 650 50 l 1
 700 50 l 1
 700 100 l 1
 650 100 l 1
550 100 m 1
 550 50 l 1
 600 50 l 1
 600 100 l 1
 550 100 l 1
450 100 m 1
 450 50 l 1
 500 50 l 1
 500 100 l 1
 450 100 l 1
350 100 m 1
 350 50 l 1
 400 50 l 1
 400 100 l 1
 350 100 l 1
250 100 m 1
 250 50 l 1
 300 50 l 1
 300 100 l 1
 250 100 l 1
150 100 m 1
 150 50 l 1
 200 50 l 1
 200 100 l 1
 150 100 l 1
50 100 m 1
 50 50 l 1
 100 50 l 1
 100 100 l 1
 50 100 l 1
900 200 m 1
 900 150 l 1
 950 150 l 1
 950 200 l 1
 900 200 l 1
800 200 m 1
 800 150 l 1
 850 150 l 1
 850 200 l 1
 800 200 l 1
700 200 m 1
 700 150 l 1
 750 150 l 1
 750 200 l 1
 700 200 l 1
600 200 m 1
 600 150 l 1
 650 150 l 1
 650 200 l 1
 600 200 l 1
500 200 m 1
 500 150 l 1
 550 150 l 1
 550 200 l 1
 500 200 l 1
400 200 m 1
 400 150 l 1
 450 150 l 1
 450 200 l 1
 400 200 l 1
300 200 m 1
 300 150 l 1
 350 150 l 1
 350 200 l 1
 300 200 l 1
200 200 m 1
 200 150 l 1
 250 150 l 1
 250 200 l 1
 200 200 l 1
100 200 m 1
 100 150 l 1
 150 150 l 1
 150 200 l 1
 100 200 l 1
850 300 m 1
 850 250 l 1
 900 250 l 1
 900 300 l 1
 850 300 l 1
750 300 m 1
 750 250 l 1
 800 250 l 1
 800 300 l 1
 750 300 l 1
650 300 m 1
 650 250 l 1
 700 250 l 1
 700 300 l 1
 650 300 l 1
550 300 m 1
 550 250 l 1
 600 250 l 1
 600 300 l 1
 550 300 l 1
450 300 m 1
 450 250 l 1
 500 250 l 1
 500 300 l 1
 450 300 l 1
350 300 m 1
 350 250 l 1
 400 250 l 1
 400 300 l 1
 350 300 l 1
250 300 m 1
 250 250 l 1
 300 250 l 1
 300 300 l 1
 250 300 l 1
150 300 m 1
 150 250 l 1
 200 250 l 1
 200 300 l 1
 150 300 l 1
50 300 m 1
 50 250 l 1
 100 250 l 1
 100 300 l 1
 50 300 l 1
900 400 m 1
 900 350 l 1
 950 350 l 1
 950 400 l 1
 900 400 l 1
800 400 m 1
 800 350 l 1
 850 350 l 1
 850 400 l 1
 800 400 l 1
700 400 m 1
 700 350 l 1
 750 350 l 1
 750 400 l 1
 700 400 l 1
600 400 m 1
 600 350 l 1
 650 350 l 1
 650 400 l 1
 600 400 l 1
500 400 m 1
 500 350 l 1
 550 350 l 1
 550 400 l 1
 500 400 l 1
400 400 m 1
 400 350 l 1
 450 350 l 1
 450 400 l 1
 400 400 l 1
300 400 m 1
 300 350 l 1
 350 350 l 1
 350 400 l 1
 300 400 l 1
200 400 m 1
 200 350 l 1
 250 350 l 1
 250 400 l 1
 200 400 l 1
100 400 m 1
 100 350 l 1
 150 350 l 1
 150 400 l 1
 100 400 l 1
850 500 m 1
 850 450 l 1
 900 450 l 1
 900 500 l 1
 850 500 l 1
750 500 m 1
 750 450 l 1
 800 450 l 1
 800 500 l 1
 750 500 l 1
650 500 m 1
 650 450 l 1
 700 450 l 1
 700 500 l 1
 650 500 l 1
550 500 m 1
 550 450 l 1
 600 450 l 1
 600 500 l 1
 550 500 l 1
450 500 m 1
 450 450 l 1
 500 450 l 1
 500 500 l 1
 450 500 l 1
350 500 m 1
 350 450 l 1
 400 450 l 1
 400 500 l 1
 350 500 l 1
250 500 m 1
 250 450 l 1
 300 450 l 1
 300 500 l 1
 250 500 l 1
150 500 m 1
 150 450 l 1
 200 450 l 1
 200 500 l 1
 150 500 l 1
50 500 m 1
 50 450 l 1
 100 450 l 1
 100 500 l 1
 50 500 l 1
900 600 m 1
 900 550 l 1
 950 550 l 1
 950 600 l 1
 900 600 l 1
800 600 m 1
 800 550 l 1
 850 550 l 1
 850 600 l 1
 800 600 l 1
700 600 m 1
 700 550 l 1
 750 550 l 1
 750 600 l 1
 700 600 l 1
600 600 m 1
 600 550 l 1
 650 550 l 1
 650 600 l 1
 600 600 l 1
500 600 m 1
 500 550 l 1
 550 550 l 1
 550 600 l 1
 500 600 l 1
400 600 m 1
 400 550 l 1
 450 550 l 1
 450 600 l 1
 400 600 l 1
300 600 m 1
 300 550 l 1
 350 550 l 1
 350 600 l 1
 300 600 l 1
200 600 m 1
 200 550 l 1
 250 550 l 1
 250 600 l 1
 200 600 l 1
100 600 m 1
 100 550 l 1
 150 550 l 1
 150 600 l 1
 100 600 l 1
950 700 m 1
 950 650 l 1
 1000 650 l 1
 1000 500 l 1
 950 500 l 1
 950 450 l 1
 1000 450 l 1
 1000 300 l 1
 950 300 l 1
 950 250 l 1
 1000 250 l 1
 1000 100 l 1
 950 100 l 1
 950 50 l 1
 1000 50 l 1
 1000 -100 l 1
 950 -100 l 1
 950 -150 l 1
 1000 -150 l 1
 1000 -200 l 1
 0 -200 l 1
 0 -50 l 1
 50 -50 l 1
 50 0 l 1
 0 0 l 1
 0 150 l 1
 50 150 l 1
 50 200 l 1
 0 200 l 1
 0 350 l 1
 50 350 l 1
 50 400 l 1
 0 400 l 1
 0 550 l 1
 50 550 l 1
 50 600 l 1
 0 600 l 1
 0 750 l 1
 50 750 l 1
 50 800 l 1
 100 800 l 1
 100 750 l 1
 150 750 l 1
 150 800 l 1
 200 800 l 1
 200 750 l 1
 250 750 l 1
 250 800 l 1
 300 800 l 1
 300 750 l 1
 350 750 l 1
 350 800 l 1
 400 800 l 1
 400 750 l 1
 450 750 l 1
 450 800 l 1
 500 800 l 1
 500 750 l 1
 550 750 l 1
 550 800 l 1
 600 800 l 1
 600 750 l 1
 650 750 l 1
 650 800 l 1
 700 800 l 1
 700 750 l 1
 750 750 l 1
 750 800 l 1
 800 800 l 1
 800 750 l 1
 850 750 l 1
 850 800 l 1
 900 800 l 1
 900 750 l 1
 950 750 l 1
 950 800 l 1
 1000 800 l 1
 1000 700 l 1
 950 700 l 1
850 700 m 1
 850 650 l 1
 900 650 l 1
 900 700 l 1
 850 700 l 1
750 700 m 1
 750 650 l 1
 800 650 l 1
 800 700 l 1
 750 700 l 1
650 700 m 1
 650 650 l 1
 700 650 l 1
 700 700 l 1
 650 700 l 1
550 700 m 1
 550 650 l 1
 600 650 l 1
 600 700 l 1
 550 700 l 1
450 700 m 1
 450 650 l 1
 500 650 l 1
 500 700 l 1
 450 700 l 1
350 700 m 1
 350 650 l 1
 400 650 l 1
 400 700 l 1
 350 700 l 1
250 700 m 1
 250 650 l 1
 300 650 l 1
 300 700 l 1
 250 700 l 1
150 700 m 1
 150 650 l 1
 200 650 l 1
 200 700 l 1
 150 700 l 1
50 700 m 1
 50 650 l 1
 100 650 l 1
 100 700 l 1
 50 700 l 1
EndSplineSet
EndChar

StartChar: uni2594
Encoding: 9620 9620 156
Width: 1000
Flags: HW
LayerCount: 2
Fore
SplineSet
0 800 m 1
 1000 800 l 1
 1000 675 l 1
 0 675 l 1
 0 800 l 1
EndSplineSet
EndChar

StartChar: uni2595
Encoding: 9621 9621 157
Width: 1000
Flags: HW
LayerCount: 2
Fore
SplineSet
875 800 m 1
 1000 800 l 1
 1000 -200 l 1
 875 -200 l 1
 875 800 l 1
EndSplineSet
EndChar

StartChar: uni2596
Encoding: 9622 9622 158
Width: 1000
Flags: HW
LayerCount: 2
Fore
SplineSet
0 300 m 1
 500 300 l 1
 500 -200 l 1
 0 -200 l 1
 0 300 l 1
EndSplineSet
EndChar

StartChar: uni2597
Encoding: 9623 9623 159
Width: 1000
Flags: HW
LayerCount: 2
Fore
SplineSet
500 300 m 1
 1000 300 l 1
 1000 -200 l 1
 500 -200 l 1
 500 300 l 1
EndSplineSet
EndChar

StartChar: uni2598
Encoding: 9624 9624 160
Width: 1000
Flags: HW
LayerCount: 2
Fore
SplineSet
0 800 m 1
 500 800 l 1
 500 300 l 1
 0 300 l 1
 0 800 l 1
EndSplineSet
EndChar

StartChar: uni2599
Encoding: 9625 9625 161
Width: 1000
Flags: HW
LayerCount: 2
Fore
SplineSet
0 800 m 1
 500 800 l 1
 500 300 l 1
 1000 300 l 1
 1000 -200 l 1
 0 -200 l 1
 0 800 l 1
EndSplineSet
EndChar

StartChar: uni259A
Encoding: 9626 9626 162
Width: 1000
Flags: HW
LayerCount: 2
Fore
SplineSet
500 300 m 1
 1000 300 l 1
 1000 -200 l 1
 500 -200 l 1
 500 300 l 1
0 800 m 1
 500 800 l 1
 500 300 l 1
 0 300 l 1
 0 800 l 1
EndSplineSet
EndChar

StartChar: uni259B
Encoding: 9627 9627 163
Width: 1000
Flags: HW
LayerCount: 2
Fore
SplineSet
0 800 m 1
 1000 800 l 1
 1000 300 l 1
 500 300 l 1
 500 -200 l 1
 0 -200 l 1
 0 800 l 1
EndSplineSet
EndChar

StartChar: uni259C
Encoding: 9628 9628 164
Width: 1000
Flags: HW
LayerCount: 2
Fore
SplineSet
0 800 m 1
 1000 800 l 1
 1000 -200 l 1
 500 -200 l 1
 500 300 l 1
 0 300 l 1
 0 800 l 1
EndSplineSet
EndChar

StartChar: uni259D
Encoding: 9629 9629 165
Width: 1000
Flags: HW
LayerCount: 2
Fore
SplineSet
500 800 m 1
 1000 800 l 1
 1000 300 l 1
 500 300 l 1
 500 800 l 1
EndSplineSet
EndChar

StartChar: uni259E
Encoding: 9630 9630 166
Width: 1000
Flags: HW
LayerCount: 2
Fore
SplineSet
0 300 m 1
 500 300 l 1
 500 -200 l 1
 0 -200 l 1
 0 300 l 1
500 800 m 1
 1000 800 l 1
 1000 300 l 1
 500 300 l 1
 500 800 l 1
EndSplineSet
EndChar

StartChar: uni259F
Encoding: 9631 9631 167
Width: 1000
Flags: HW
LayerCount: 2
Fore
SplineSet
500 800 m 1
 1000 800 l 1
 1000 -200 l 1
 0 -200 l 1
 0 300 l 1
 500 300 l 1
 500 800 l 1
EndSplineSet
EndChar

StartChar: uni25E2
Encoding: 9698 9698 168
Width: 1000
Flags: HW
LayerCount: 2
Fore
SplineSet
0 -200 m 1
 1000 800 l 1
 1000 -200 l 1
 0 -200 l 1
EndSplineSet
EndChar

StartChar: uni25E3
Encoding: 9699 9699 169
Width: 1000
Flags: HW
LayerCount: 2
Fore
SplineSet
0 800 m 1
 1000 -200 l 1
 0 -200 l 1
 0 800 l 1
EndSplineSet
EndChar

StartChar: uni25E4
Encoding: 9700 9700 170
Width: 1000
Flags: HW
LayerCount: 2
Fore
SplineSet
0 800 m 1
 1000 800 l 1
 0 -200 l 1
 0 800 l 1
EndSplineSet
EndChar

StartChar: uni25E5
Encoding: 9701 9701 171
Width: 1000
Flags: HW
LayerCount: 2
Fore
SplineSet
0 800 m 1
 1000 800 l 1
 1000 -200 l 1
 0 800 l 1
EndSplineSet
EndChar

StartChar: uni27CA
Encoding: 10186 10186 172
Width: 1000
Flags: HW
LayerCount: 2
Fore
SplineSet
444 800 m 1
 556 800 l 1
 556 411 l 1
 750 411 l 1
 750 189 l 1
 556 189 l 1
 556 -200 l 1
 444 -200 l 1
 444 189 l 1
 250 189 l 1
 250 411 l 1
 444 411 l 1
 444 800 l 1
EndSplineSet
EndChar

StartChar: u1FB00
Encoding: 129792 129792 173
Width: 1000
Flags: HW
LayerCount: 2
Fore
SplineSet
0 800 m 1
 500 800 l 1
 500 467 l 1
 0 467 l 1
 0 800 l 1
EndSplineSet
EndChar

StartChar: u1FB01
Encoding: 129793 129793 174
Width: 1000
Flags: HW
LayerCount: 2
Fore
SplineSet
500 800 m 1
 1000 800 l 1
 1000 467 l 1
 500 467 l 1
 500 800 l 1
EndSplineSet
EndChar

StartChar: u1FB02
Encoding: 129794 129794 175
Width: 1000
Flags: HW
LayerCount: 2
Fore
SplineSet
0 800 m 1
 1000 800 l 1
 1000 467 l 1
 0 467 l 1
 0 800 l 1
EndSplineSet
EndChar

StartChar: u1FB03
Encoding: 129795 129795 176
Width: 1000
Flags: HW
LayerCount: 2
Fore
SplineSet
0 467 m 1
 500 467 l 1
 500 133 l 1
 0 133 l 1
 0 467 l 1
EndSplineSet
EndChar

StartChar: u1FB04
Encoding: 129796 129796 177
Width: 1000
Flags: HW
LayerCount: 2
Fore
SplineSet
0 800 m 1
 500 800 l 1
 500 133 l 1
 0 133 l 1
 0 800 l 1
EndSplineSet
EndChar

StartChar: u1FB05
Encoding: 129797 129797 178
Width: 1000
Flags: HW
LayerCount: 2
Fore
SplineSet
0 467 m 1
 500 467 l 1
 500 133 l 1
 0 133 l 1
 0 467 l 1
500 800 m 1
 1000 800 l 1
 1000 467 l 1
 500 467 l 1
 500 800 l 1
EndSplineSet
EndChar

StartChar: u1FB06
Encoding: 129798 129798 179
Width: 1000
Flags: HW
LayerCount: 2
Fore
SplineSet
0 800 m 1
 1000 800 l 1
 1000 467 l 1
 500 467 l 1
 500 133 l 1
 0 133 l 1
 0 800 l 1
EndSplineSet
EndChar

StartChar: u1FB07
Encoding: 129799 129799 180
Width: 1000
Flags: HW
LayerCount: 2
Fore
SplineSet
500 467 m 1
 1000 467 l 1
 1000 133 l 1
 500 133 l 1
 500 467 l 1
EndSplineSet
EndChar

StartChar: u1FB08
Encoding: 129800 129800 181
Width: 1000
Flags: HW
LayerCount: 2
Fore
SplineSet
500 467 m 1
 1000 467 l 1
 1000 133 l 1
 500 133 l 1
 500 467 l 1
0 800 m 1
 500 800 l 1
 500 467 l 1
 0 467 l 1
 0 800 l 1
EndSplineSet
EndChar

StartChar: u1FB09
Encoding: 129801 129801 182
Width: 1000
Flags: HW
LayerCount: 2
Fore
SplineSet
500 800 m 1
 1000 800 l 1
 1000 133 l 1
 500 133 l 1
 500 800 l 1
EndSplineSet
EndChar

StartChar: u1FB0A
Encoding: 129802 129802 183
Width: 1000
Flags: HW
LayerCount: 2
Fore
SplineSet
0 800 m 1
 1000 800 l 1
 1000 133 l 1
 500 133 l 1
 500 467 l 1
 0 467 l 1
 0 800 l 1
EndSplineSet
EndChar

StartChar: u1FB0B
Encoding: 129803 129803 184
Width: 1000
Flags: HW
LayerCount: 2
Fore
SplineSet
0 467 m 1
 1000 467 l 1
 1000 133 l 1
 0 133 l 1
 0 467 l 1
EndSplineSet
EndChar

StartChar: u1FB0C
Encoding: 129804 129804 185
Width: 1000
Flags: HW
LayerCount: 2
Fore
SplineSet
0 800 m 1
 500 800 l 1
 500 467 l 1
 1000 467 l 1
 1000 133 l 1
 0 133 l 1
 0 800 l 1
EndSplineSet
EndChar

StartChar: u1FB0D
Encoding: 129805 129805 186
Width: 1000
Flags: HW
LayerCount: 2
Fore
SplineSet
500 800 m 1
 1000 800 l 1
 1000 133 l 1
 0 133 l 1
 0 467 l 1
 500 467 l 1
 500 800 l 1
EndSplineSet
EndChar

StartChar: u1FB0E
Encoding: 129806 129806 187
Width: 1000
Flags: HW
LayerCount: 2
Fore
SplineSet
0 800 m 1
 1000 800 l 1
 1000 133 l 1
 0 133 l 1
 0 800 l 1
EndSplineSet
EndChar

StartChar: u1FB0F
Encoding: 129807 129807 188
Width: 1000
Flags: HW
LayerCount: 2
Fore
SplineSet
0 133 m 1
 500 133 l 1
 500 -200 l 1
 0 -200 l 1
 0 133 l 1
EndSplineSet
EndChar

StartChar: u1FB10
Encoding: 129808 129808 189
Width: 1000
Flags: HW
LayerCount: 2
Fore
SplineSet
0 133 m 1
 500 133 l 1
 500 -200 l 1
 0 -200 l 1
 0 133 l 1
0 800 m 1
 500 800 l 1
 500 467 l 1
 0 467 l 1
 0 800 l 1
EndSplineSet
EndChar

StartChar: u1FB11
Encoding: 129809 129809 190
Width: 1000
Flags: HW
LayerCount: 2
Fore
SplineSet
0 133 m 1
 500 133 l 1
 500 -200 l 1
 0 -200 l 1
 0 133 l 1
500 800 m 1
 1000 800 l 1
 1000 467 l 1
 500 467 l 1
 500 800 l 1
EndSplineSet
EndChar

StartChar: u1FB12
Encoding: 129810 129810 191
Width: 1000
Flags: HW
LayerCount: 2
Fore
SplineSet
0 133 m 1
 500 133 l 1
 500 -200 l 1
 0 -200 l 1
 0 133 l 1
0 800 m 1
 1000 800 l 1
 1000 467 l 1
 0 467 l 1
 0 800 l 1
EndSplineSet
EndChar

StartChar: u1FB13
Encoding: 129811 129811 192
Width: 1000
Flags: HW
LayerCount: 2
Fore
SplineSet
0 467 m 1
 500 467 l 1
 500 -200 l 1
 0 -200 l 1
 0 467 l 1
EndSplineSet
EndChar

StartChar: u1FB14
Encoding: 129812 129812 193
Width: 1000
Flags: HW
LayerCount: 2
Fore
SplineSet
0 467 m 1
 500 467 l 1
 500 -200 l 1
 0 -200 l 1
 0 467 l 1
500 800 m 1
 1000 800 l 1
 1000 467 l 1
 500 467 l 1
 500 800 l 1
EndSplineSet
EndChar

StartChar: u1FB15
Encoding: 129813 129813 194
Width: 1000
Flags: HW
LayerCount: 2
Fore
SplineSet
0 800 m 1
 1000 800 l 1
 1000 467 l 1
 500 467 l 1
 500 -200 l 1
 0 -200 l 1
 0 800 l 1
EndSplineSet
EndChar

StartChar: u1FB16
Encoding: 129814 129814 195
Width: 1000
Flags: HW
LayerCount: 2
Fore
SplineSet
0 133 m 1
 500 133 l 1
 500 -200 l 1
 0 -200 l 1
 0 133 l 1
500 467 m 1
 1000 467 l 1
 1000 133 l 1
 500 133 l 1
 500 467 l 1
EndSplineSet
EndChar

StartChar: u1FB17
Encoding: 129815 129815 196
Width: 1000
Flags: HW
LayerCount: 2
Fore
SplineSet
0 133 m 1
 500 133 l 1
 500 -200 l 1
 0 -200 l 1
 0 133 l 1
500 467 m 1
 1000 467 l 1
 1000 133 l 1
 500 133 l 1
 500 467 l 1
0 800 m 1
 500 800 l 1
 500 467 l 1
 0 467 l 1
 0 800 l 1
EndSplineSet
EndChar

StartChar: u1FB18
Encoding: 129816 129816 197
Width: 1000
Flags: HW
LayerCount: 2
Fore
SplineSet
0 133 m 1
 500 133 l 1
 500 -200 l 1
 0 -200 l 1
 0 133 l 1
500 800 m 1
 1000 800 l 1
 1000 133 l 1
 500 133 l 1
 500 800 l 1
EndSplineSet
EndChar

StartChar: u1FB19
Encoding: 129817 129817 198
Width: 1000
Flags: HW
LayerCount: 2
Fore
SplineSet
0 133 m 1
 500 133 l 1
 500 -200 l 1
 0 -200 l 1
 0 133 l 1
0 800 m 1
 1000 800 l 1
 1000 133 l 1
 500 133 l 1
 500 467 l 1
 0 467 l 1
 0 800 l 1
EndSplineSet
EndChar

StartChar: u1FB1A
Encoding: 129818 129818 199
Width: 1000
Flags: HW
LayerCount: 2
Fore
SplineSet
0 467 m 1
 1000 467 l 1
 1000 133 l 1
 500 133 l 1
 500 -200 l 1
 0 -200 l 1
 0 467 l 1
EndSplineSet
EndChar

StartChar: u1FB1B
Encoding: 129819 129819 200
Width: 1000
Flags: HW
LayerCount: 2
Fore
SplineSet
0 800 m 1
 500 800 l 1
 500 467 l 1
 1000 467 l 1
 1000 133 l 1
 500 133 l 1
 500 -200 l 1
 0 -200 l 1
 0 800 l 1
EndSplineSet
EndChar

StartChar: u1FB1C
Encoding: 129820 129820 201
Width: 1000
Flags: HW
LayerCount: 2
Fore
SplineSet
500 800 m 1
 1000 800 l 1
 1000 133 l 1
 500 133 l 1
 500 -200 l 1
 0 -200 l 1
 0 467 l 1
 500 467 l 1
 500 800 l 1
EndSplineSet
EndChar

StartChar: u1FB1D
Encoding: 129821 129821 202
Width: 1000
Flags: HW
LayerCount: 2
Fore
SplineSet
0 800 m 1
 1000 800 l 1
 1000 133 l 1
 500 133 l 1
 500 -200 l 1
 0 -200 l 1
 0 800 l 1
EndSplineSet
EndChar

StartChar: u1FB1E
Encoding: 129822 129822 203
Width: 1000
Flags: HW
LayerCount: 2
Fore
SplineSet
500 133 m 1
 1000 133 l 1
 1000 -200 l 1
 500 -200 l 1
 500 133 l 1
EndSplineSet
EndChar

StartChar: u1FB1F
Encoding: 129823 129823 204
Width: 1000
Flags: HW
LayerCount: 2
Fore
SplineSet
500 133 m 1
 1000 133 l 1
 1000 -200 l 1
 500 -200 l 1
 500 133 l 1
0 800 m 1
 500 800 l 1
 500 467 l 1
 0 467 l 1
 0 800 l 1
EndSplineSet
EndChar

StartChar: u1FB20
Encoding: 129824 129824 205
Width: 1000
Flags: HW
LayerCount: 2
Fore
SplineSet
500 133 m 1
 1000 133 l 1
 1000 -200 l 1
 500 -200 l 1
 500 133 l 1
500 800 m 1
 1000 800 l 1
 1000 467 l 1
 500 467 l 1
 500 800 l 1
EndSplineSet
EndChar

StartChar: u1FB21
Encoding: 129825 129825 206
Width: 1000
Flags: HW
LayerCount: 2
Fore
SplineSet
500 133 m 1
 1000 133 l 1
 1000 -200 l 1
 500 -200 l 1
 500 133 l 1
0 800 m 1
 1000 800 l 1
 1000 467 l 1
 0 467 l 1
 0 800 l 1
EndSplineSet
EndChar

StartChar: u1FB22
Encoding: 129826 129826 207
Width: 1000
Flags: HW
LayerCount: 2
Fore
SplineSet
500 133 m 1
 1000 133 l 1
 1000 -200 l 1
 500 -200 l 1
 500 133 l 1
0 467 m 1
 500 467 l 1
 500 133 l 1
 0 133 l 1
 0 467 l 1
EndSplineSet
EndChar

StartChar: u1FB23
Encoding: 129827 129827 208
Width: 1000
Flags: HW
LayerCount: 2
Fore
SplineSet
500 133 m 1
 1000 133 l 1
 1000 -200 l 1
 500 -200 l 1
 500 133 l 1
0 800 m 1
 500 800 l 1
 500 133 l 1
 0 133 l 1
 0 800 l 1
EndSplineSet
EndChar

StartChar: u1FB24
Encoding: 129828 129828 209
Width: 1000
Flags: HW
LayerCount: 2
Fore
SplineSet
500 133 m 1
 1000 133 l 1
 1000 -200 l 1
 500 -200 l 1
 500 133 l 1
0 467 m 1
 500 467 l 1
 500 133 l 1
 0 133 l 1
 0 467 l 1
500 800 m 1
 1000 800 l 1
 1000 467 l 1
 500 467 l 1
 500 800 l 1
EndSplineSet
EndChar

StartChar: u1FB25
Encoding: 129829 129829 210
Width: 1000
Flags: HW
LayerCount: 2
Fore
SplineSet
500 133 m 1
 1000 133 l 1
 1000 -200 l 1
 500 -200 l 1
 500 133 l 1
0 800 m 1
 1000 800 l 1
 1000 467 l 1
 500 467 l 1
 500 133 l 1
 0 133 l 1
 0 800 l 1
EndSplineSet
EndChar

StartChar: u1FB26
Encoding: 129830 129830 211
Width: 1000
Flags: HW
LayerCount: 2
Fore
SplineSet
500 467 m 1
 1000 467 l 1
 1000 -200 l 1
 500 -200 l 1
 500 467 l 1
EndSplineSet
EndChar

StartChar: u1FB27
Encoding: 129831 129831 212
Width: 1000
Flags: HW
LayerCount: 2
Fore
SplineSet
500 467 m 1
 1000 467 l 1
 1000 -200 l 1
 500 -200 l 1
 500 467 l 1
0 800 m 1
 500 800 l 1
 500 467 l 1
 0 467 l 1
 0 800 l 1
EndSplineSet
EndChar

StartChar: u1FB28
Encoding: 129832 129832 213
Width: 1000
Flags: HW
LayerCount: 2
Fore
SplineSet
0 800 m 1
 1000 800 l 1
 1000 -200 l 1
 500 -200 l 1
 500 467 l 1
 0 467 l 1
 0 800 l 1
EndSplineSet
EndChar

StartChar: u1FB29
Encoding: 129833 129833 214
Width: 1000
Flags: HW
LayerCount: 2
Fore
SplineSet
0 467 m 1
 1000 467 l 1
 1000 -200 l 1
 500 -200 l 1
 500 133 l 1
 0 133 l 1
 0 467 l 1
EndSplineSet
EndChar

StartChar: u1FB2A
Encoding: 129834 129834 215
Width: 1000
Flags: HW
LayerCount: 2
Fore
SplineSet
0 800 m 1
 500 800 l 1
 500 467 l 1
 1000 467 l 1
 1000 -200 l 1
 500 -200 l 1
 500 133 l 1
 0 133 l 1
 0 800 l 1
EndSplineSet
EndChar

StartChar: u1FB2B
Encoding: 129835 129835 216
Width: 1000
Flags: HW
LayerCount: 2
Fore
SplineSet
500 800 m 1
 1000 800 l 1
 1000 -200 l 1
 500 -200 l 1
 500 133 l 1
 0 133 l 1
 0 467 l 1
 500 467 l 1
 500 800 l 1
EndSplineSet
EndChar

StartChar: u1FB2C
Encoding: 129836 129836 217
Width: 1000
Flags: HW
LayerCount: 2
Fore
SplineSet
0 800 m 1
 1000 800 l 1
 1000 -200 l 1
 500 -200 l 1
 500 133 l 1
 0 133 l 1
 0 800 l 1
EndSplineSet
EndChar

StartChar: u1FB2D
Encoding: 129837 129837 218
Width: 1000
Flags: HW
LayerCount: 2
Fore
SplineSet
0 133 m 1
 1000 133 l 1
 1000 -200 l 1
 0 -200 l 1
 0 133 l 1
EndSplineSet
EndChar

StartChar: u1FB2E
Encoding: 129838 129838 219
Width: 1000
Flags: HW
LayerCount: 2
Fore
SplineSet
0 133 m 1
 1000 133 l 1
 1000 -200 l 1
 0 -200 l 1
 0 133 l 1
0 800 m 1
 500 800 l 1
 500 467 l 1
 0 467 l 1
 0 800 l 1
EndSplineSet
EndChar

StartChar: u1FB2F
Encoding: 129839 129839 220
Width: 1000
Flags: HW
LayerCount: 2
Fore
SplineSet
0 133 m 1
 1000 133 l 1
 1000 -200 l 1
 0 -200 l 1
 0 133 l 1
500 800 m 1
 1000 800 l 1
 1000 467 l 1
 500 467 l 1
 500 800 l 1
EndSplineSet
EndChar

StartChar: u1FB30
Encoding: 129840 129840 221
Width: 1000
Flags: HW
LayerCount: 2
Fore
SplineSet
0 133 m 1
 1000 133 l 1
 1000 -200 l 1
 0 -200 l 1
 0 133 l 1
0 800 m 1
 1000 800 l 1
 1000 467 l 1
 0 467 l 1
 0 800 l 1
EndSplineSet
EndChar

StartChar: u1FB31
Encoding: 129841 129841 222
Width: 1000
Flags: HW
LayerCount: 2
Fore
SplineSet
0 467 m 1
 500 467 l 1
 500 133 l 1
 1000 133 l 1
 1000 -200 l 1
 0 -200 l 1
 0 467 l 1
EndSplineSet
EndChar

StartChar: u1FB32
Encoding: 129842 129842 223
Width: 1000
Flags: HW
LayerCount: 2
Fore
SplineSet
0 800 m 1
 500 800 l 1
 500 133 l 1
 1000 133 l 1
 1000 -200 l 1
 0 -200 l 1
 0 800 l 1
EndSplineSet
EndChar

StartChar: u1FB33
Encoding: 129843 129843 224
Width: 1000
Flags: HW
LayerCount: 2
Fore
SplineSet
0 467 m 1
 500 467 l 1
 500 133 l 1
 1000 133 l 1
 1000 -200 l 1
 0 -200 l 1
 0 467 l 1
500 800 m 1
 1000 800 l 1
 1000 467 l 1
 500 467 l 1
 500 800 l 1
EndSplineSet
EndChar

StartChar: u1FB34
Encoding: 129844 129844 225
Width: 1000
Flags: HW
LayerCount: 2
Fore
SplineSet
0 800 m 1
 1000 800 l 1
 1000 467 l 1
 500 467 l 1
 500 133 l 1
 1000 133 l 1
 1000 -200 l 1
 0 -200 l 1
 0 800 l 1
EndSplineSet
EndChar

StartChar: u1FB35
Encoding: 129845 129845 226
Width: 1000
Flags: HW
LayerCount: 2
Fore
SplineSet
500 467 m 1
 1000 467 l 1
 1000 -200 l 1
 0 -200 l 1
 0 133 l 1
 500 133 l 1
 500 467 l 1
EndSplineSet
EndChar

StartChar: u1FB36
Encoding: 129846 129846 227
Width: 1000
Flags: HW
LayerCount: 2
Fore
SplineSet
500 467 m 1
 1000 467 l 1
 1000 -200 l 1
 0 -200 l 1
 0 133 l 1
 500 133 l 1
 500 467 l 1
0 800 m 1
 500 800 l 1
 500 467 l 1
 0 467 l 1
 0 800 l 1
EndSplineSet
EndChar

StartChar: u1FB37
Encoding: 129847 129847 228
Width: 1000
Flags: HW
LayerCount: 2
Fore
SplineSet
500 800 m 1
 1000 800 l 1
 1000 -200 l 1
 0 -200 l 1
 0 133 l 1
 500 133 l 1
 500 800 l 1
EndSplineSet
EndChar

StartChar: u1FB38
Encoding: 129848 129848 229
Width: 1000
Flags: HW
LayerCount: 2
Fore
SplineSet
0 800 m 1
 1000 800 l 1
 1000 -200 l 1
 0 -200 l 1
 0 133 l 1
 500 133 l 1
 500 467 l 1
 0 467 l 1
 0 800 l 1
EndSplineSet
EndChar

StartChar: u1FB39
Encoding: 129849 129849 230
Width: 1000
Flags: HW
LayerCount: 2
Fore
SplineSet
0 467 m 1
 1000 467 l 1
 1000 -200 l 1
 0 -200 l 1
 0 467 l 1
EndSplineSet
EndChar

StartChar: u1FB3A
Encoding: 129850 129850 231
Width: 1000
Flags: HW
LayerCount: 2
Fore
SplineSet
0 800 m 1
 500 800 l 1
 500 467 l 1
 1000 467 l 1
 1000 -200 l 1
 0 -200 l 1
 0 800 l 1
EndSplineSet
EndChar

StartChar: u1FB3B
Encoding: 129851 129851 232
Width: 1000
Flags: HW
LayerCount: 2
Fore
SplineSet
500 800 m 1
 1000 800 l 1
 1000 -200 l 1
 0 -200 l 1
 0 467 l 1
 500 467 l 1
 500 800 l 1
EndSplineSet
EndChar

StartChar: u1FB3C
Encoding: 129852 129852 233
Width: 1000
Flags: HW
LayerCount: 2
Fore
SplineSet
0 133 m 1
 500 -200 l 1
 0 -200 l 1
 0 133 l 1
EndSplineSet
EndChar

StartChar: u1FB3D
Encoding: 129853 129853 234
Width: 1000
Flags: HW
LayerCount: 2
Fore
SplineSet
0 133 m 1
 1000 -200 l 1
 0 -200 l 1
 0 133 l 1
EndSplineSet
EndChar

StartChar: u1FB3E
Encoding: 129854 129854 235
Width: 1000
Flags: HW
LayerCount: 2
Fore
SplineSet
0 467 m 1
 500 -200 l 1
 0 -200 l 1
 0 467 l 1
EndSplineSet
EndChar

StartChar: u1FB3F
Encoding: 129855 129855 236
Width: 1000
Flags: HW
LayerCount: 2
Fore
SplineSet
0 467 m 1
 1000 -200 l 1
 0 -200 l 1
 0 467 l 1
EndSplineSet
EndChar

StartChar: u1FB40
Encoding: 129856 129856 237
Width: 1000
Flags: HW
LayerCount: 2
Fore
SplineSet
0 800 m 1
 500 -200 l 1
 0 -200 l 1
 0 800 l 1
EndSplineSet
EndChar

StartChar: u1FB41
Encoding: 129857 129857 238
Width: 1000
Flags: HW
LayerCount: 2
Fore
SplineSet
0 467 m 1
 500 800 l 1
 1000 800 l 1
 1000 -200 l 1
 0 -200 l 1
 0 467 l 1
EndSplineSet
EndChar

StartChar: u1FB42
Encoding: 129858 129858 239
Width: 1000
Flags: HW
LayerCount: 2
Fore
SplineSet
0 467 m 1
 1000 800 l 1
 1000 -200 l 1
 0 -200 l 1
 0 467 l 1
EndSplineSet
EndChar

StartChar: u1FB43
Encoding: 129859 129859 240
Width: 1000
Flags: HW
LayerCount: 2
Fore
SplineSet
0 133 m 1
 500 800 l 1
 1000 800 l 1
 1000 -200 l 1
 0 -200 l 1
 0 133 l 1
EndSplineSet
EndChar

StartChar: u1FB44
Encoding: 129860 129860 241
Width: 1000
Flags: HW
LayerCount: 2
Fore
SplineSet
0 133 m 1
 1000 800 l 1
 1000 -200 l 1
 0 -200 l 1
 0 133 l 1
EndSplineSet
EndChar

StartChar: u1FB45
Encoding: 129861 129861 242
Width: 1000
Flags: HW
LayerCount: 2
Fore
SplineSet
0 -200 m 1
 500 800 l 1
 1000 800 l 1
 1000 -200 l 1
 0 -200 l 1
EndSplineSet
EndChar

StartChar: u1FB46
Encoding: 129862 129862 243
Width: 1000
Flags: HW
LayerCount: 2
Fore
SplineSet
0 133 m 1
 1000 467 l 1
 1000 -200 l 1
 0 -200 l 1
 0 133 l 1
EndSplineSet
EndChar

StartChar: u1FB47
Encoding: 129863 129863 244
Width: 1000
Flags: HW
LayerCount: 2
Fore
SplineSet
500 -200 m 1
 1000 133 l 1
 1000 -200 l 1
 500 -200 l 1
EndSplineSet
EndChar

StartChar: u1FB48
Encoding: 129864 129864 245
Width: 1000
Flags: HW
LayerCount: 2
Fore
SplineSet
0 -200 m 1
 1000 133 l 1
 1000 -200 l 1
 0 -200 l 1
EndSplineSet
EndChar

StartChar: u1FB49
Encoding: 129865 129865 246
Width: 1000
Flags: HW
LayerCount: 2
Fore
SplineSet
500 -200 m 1
 1000 467 l 1
 1000 -200 l 1
 500 -200 l 1
EndSplineSet
EndChar

StartChar: u1FB4A
Encoding: 129866 129866 247
Width: 1000
Flags: HW
LayerCount: 2
Fore
SplineSet
0 -200 m 1
 1000 467 l 1
 1000 -200 l 1
 0 -200 l 1
EndSplineSet
EndChar

StartChar: u1FB4B
Encoding: 129867 129867 248
Width: 1000
Flags: HW
LayerCount: 2
Fore
SplineSet
500 -200 m 1
 1000 800 l 1
 1000 -200 l 1
 500 -200 l 1
EndSplineSet
EndChar

StartChar: u1FB4C
Encoding: 129868 129868 249
Width: 1000
Flags: HW
LayerCount: 2
Fore
SplineSet
0 800 m 1
 500 800 l 1
 1000 467 l 1
 1000 -200 l 1
 0 -200 l 1
 0 800 l 1
EndSplineSet
EndChar

StartChar: u1FB4D
Encoding: 129869 129869 250
Width: 1000
Flags: HW
LayerCount: 2
Fore
SplineSet
0 800 m 1
 1000 467 l 1
 1000 -200 l 1
 0 -200 l 1
 0 800 l 1
EndSplineSet
EndChar

StartChar: u1FB4E
Encoding: 129870 129870 251
Width: 1000
Flags: HW
LayerCount: 2
Fore
SplineSet
0 800 m 1
 500 800 l 1
 1000 133 l 1
 1000 -200 l 1
 0 -200 l 1
 0 800 l 1
EndSplineSet
EndChar

StartChar: u1FB4F
Encoding: 129871 129871 252
Width: 1000
Flags: HW
LayerCount: 2
Fore
SplineSet
0 800 m 1
 1000 133 l 1
 1000 -200 l 1
 0 -200 l 1
 0 800 l 1
EndSplineSet
EndChar

StartChar: u1FB50
Encoding: 129872 129872 253
Width: 1000
Flags: HW
LayerCount: 2
Fore
SplineSet
0 800 m 1
 500 800 l 1
 1000 -200 l 1
 0 -200 l 1
 0 800 l 1
EndSplineSet
EndChar

StartChar: u1FB51
Encoding: 129873 129873 254
Width: 1000
Flags: HW
LayerCount: 2
Fore
SplineSet
0 467 m 1
 1000 133 l 1
 1000 -200 l 1
 0 -200 l 1
 0 467 l 1
EndSplineSet
EndChar

StartChar: u1FB52
Encoding: 129874 129874 255
Width: 1000
Flags: HW
LayerCount: 2
Fore
SplineSet
0 800 m 1
 1000 800 l 1
 1000 -200 l 1
 500 -200 l 1
 0 133 l 1
 0 800 l 1
EndSplineSet
EndChar

StartChar: u1FB53
Encoding: 129875 129875 256
Width: 1000
Flags: HW
LayerCount: 2
Fore
SplineSet
0 800 m 1
 1000 800 l 1
 1000 -200 l 1
 0 133 l 1
 0 800 l 1
EndSplineSet
EndChar

StartChar: u1FB54
Encoding: 129876 129876 257
Width: 1000
Flags: HW
LayerCount: 2
Fore
SplineSet
0 800 m 1
 1000 800 l 1
 1000 -200 l 1
 500 -200 l 1
 0 467 l 1
 0 800 l 1
EndSplineSet
EndChar

StartChar: u1FB55
Encoding: 129877 129877 258
Width: 1000
Flags: HW
LayerCount: 2
Fore
SplineSet
0 800 m 1
 1000 800 l 1
 1000 -200 l 1
 0 467 l 1
 0 800 l 1
EndSplineSet
EndChar

StartChar: u1FB56
Encoding: 129878 129878 259
Width: 1000
Flags: HW
LayerCount: 2
Fore
SplineSet
0 800 m 1
 1000 800 l 1
 1000 -200 l 1
 500 -200 l 1
 0 800 l 1
EndSplineSet
EndChar

StartChar: u1FB57
Encoding: 129879 129879 260
Width: 1000
Flags: HW
LayerCount: 2
Fore
SplineSet
0 800 m 1
 500 800 l 1
 0 467 l 1
 0 800 l 1
EndSplineSet
EndChar

StartChar: u1FB58
Encoding: 129880 129880 261
Width: 1000
Flags: HW
LayerCount: 2
Fore
SplineSet
0 800 m 1
 1000 800 l 1
 0 467 l 1
 0 800 l 1
EndSplineSet
EndChar

StartChar: u1FB59
Encoding: 129881 129881 262
Width: 1000
Flags: HW
LayerCount: 2
Fore
SplineSet
0 800 m 1
 500 800 l 1
 0 133 l 1
 0 800 l 1
EndSplineSet
EndChar

StartChar: u1FB5A
Encoding: 129882 129882 263
Width: 1000
Flags: HW
LayerCount: 2
Fore
SplineSet
0 800 m 1
 1000 800 l 1
 0 133 l 1
 0 800 l 1
EndSplineSet
EndChar

StartChar: u1FB5B
Encoding: 129883 129883 264
Width: 1000
Flags: HW
LayerCount: 2
Fore
SplineSet
0 800 m 1
 500 800 l 1
 0 -200 l 1
 0 800 l 1
EndSplineSet
EndChar

StartChar: u1FB5C
Encoding: 129884 129884 265
Width: 1000
Flags: HW
LayerCount: 2
Fore
SplineSet
0 800 m 1
 1000 800 l 1
 1000 467 l 1
 0 133 l 1
 0 800 l 1
EndSplineSet
EndChar

StartChar: u1FB5D
Encoding: 129885 129885 266
Width: 1000
Flags: HW
LayerCount: 2
Fore
SplineSet
0 800 m 1
 1000 800 l 1
 1000 133 l 1
 500 -200 l 1
 0 -200 l 1
 0 800 l 1
EndSplineSet
EndChar

StartChar: u1FB5E
Encoding: 129886 129886 267
Width: 1000
Flags: HW
LayerCount: 2
Fore
SplineSet
0 800 m 1
 1000 800 l 1
 1000 133 l 1
 0 -200 l 1
 0 800 l 1
EndSplineSet
EndChar

StartChar: u1FB5F
Encoding: 129887 129887 268
Width: 1000
Flags: HW
LayerCount: 2
Fore
SplineSet
0 800 m 1
 1000 800 l 1
 1000 467 l 1
 500 -200 l 1
 0 -200 l 1
 0 800 l 1
EndSplineSet
EndChar

StartChar: u1FB60
Encoding: 129888 129888 269
Width: 1000
Flags: HW
LayerCount: 2
Fore
SplineSet
0 800 m 1
 1000 800 l 1
 1000 467 l 1
 0 -200 l 1
 0 800 l 1
EndSplineSet
EndChar

StartChar: u1FB61
Encoding: 129889 129889 270
Width: 1000
Flags: HW
LayerCount: 2
Fore
SplineSet
0 800 m 1
 1000 800 l 1
 500 -200 l 1
 0 -200 l 1
 0 800 l 1
EndSplineSet
EndChar

StartChar: u1FB62
Encoding: 129890 129890 271
Width: 1000
Flags: HW
LayerCount: 2
Fore
SplineSet
500 800 m 1
 1000 800 l 1
 1000 467 l 1
 500 800 l 1
EndSplineSet
EndChar

StartChar: u1FB63
Encoding: 129891 129891 272
Width: 1000
Flags: HW
LayerCount: 2
Fore
SplineSet
0 800 m 1
 1000 800 l 1
 1000 467 l 1
 0 800 l 1
EndSplineSet
EndChar

StartChar: u1FB64
Encoding: 129892 129892 273
Width: 1000
Flags: HW
LayerCount: 2
Fore
SplineSet
500 800 m 1
 1000 800 l 1
 1000 133 l 1
 500 800 l 1
EndSplineSet
EndChar

StartChar: u1FB65
Encoding: 129893 129893 274
Width: 1000
Flags: HW
LayerCount: 2
Fore
SplineSet
0 800 m 1
 1000 800 l 1
 1000 133 l 1
 0 800 l 1
EndSplineSet
EndChar

StartChar: u1FB66
Encoding: 129894 129894 275
Width: 1000
Flags: HW
LayerCount: 2
Fore
SplineSet
500 800 m 1
 1000 800 l 1
 1000 -200 l 1
 500 800 l 1
EndSplineSet
EndChar

StartChar: u1FB67
Encoding: 129895 129895 276
Width: 1000
Flags: HW
LayerCount: 2
Fore
SplineSet
0 800 m 1
 1000 800 l 1
 1000 133 l 1
 0 467 l 1
 0 800 l 1
EndSplineSet
EndChar

StartChar: u1FB68
Encoding: 129896 129896 277
Width: 1000
Flags: HW
LayerCount: 2
Fore
SplineSet
0 800 m 1
 1000 800 l 1
 1000 -200 l 1
 0 -200 l 1
 500 300 l 1
 0 800 l 1
EndSplineSet
EndChar

StartChar: u1FB69
Encoding: 129897 129897 278
Width: 1000
Flags: HW
LayerCount: 2
Fore
SplineSet
1000 800 m 1
 1000 -200 l 1
 0 -200 l 1
 0 800 l 1
 500 300 l 1
 1000 800 l 1
EndSplineSet
EndChar

StartChar: u1FB6A
Encoding: 129898 129898 279
Width: 1000
Flags: HW
LayerCount: 2
Fore
SplineSet
1000 -200 m 1
 0 -200 l 1
 0 800 l 1
 1000 800 l 1
 500 300 l 1
 1000 -200 l 1
EndSplineSet
EndChar

StartChar: u1FB6B
Encoding: 129899 129899 280
Width: 1000
Flags: HW
LayerCount: 2
Fore
SplineSet
0 -200 m 1
 0 800 l 1
 1000 800 l 1
 1000 -200 l 1
 500 300 l 1
 0 -200 l 1
EndSplineSet
EndChar

StartChar: u1FB6C
Encoding: 129900 129900 281
Width: 1000
Flags: HW
LayerCount: 2
Fore
SplineSet
0 -200 m 1
 0 800 l 1
 500 300 l 1
 0 -200 l 1
EndSplineSet
EndChar

StartChar: u1FB6D
Encoding: 129901 129901 282
Width: 1000
Flags: HW
LayerCount: 2
Fore
SplineSet
0 800 m 1
 1000 800 l 1
 500 300 l 1
 0 800 l 1
EndSplineSet
EndChar

StartChar: u1FB6E
Encoding: 129902 129902 283
Width: 1000
Flags: HW
LayerCount: 2
Fore
SplineSet
1000 800 m 1
 1000 -200 l 1
 500 300 l 1
 1000 800 l 1
EndSplineSet
EndChar

StartChar: u1FB6F
Encoding: 129903 129903 284
Width: 1000
Flags: HW
LayerCount: 2
Fore
SplineSet
1000 -200 m 1
 0 -200 l 1
 500 300 l 1
 1000 -200 l 1
EndSplineSet
EndChar

StartChar: u1FB70
Encoding: 129904 129904 285
Width: 1000
Flags: HW
LayerCount: 2
Fore
SplineSet
125 800 m 1
 250 800 l 1
 250 -200 l 1
 125 -200 l 1
 125 800 l 1
EndSplineSet
EndChar

StartChar: u1FB71
Encoding: 129905 129905 286
Width: 1000
Flags: HW
LayerCount: 2
Fore
SplineSet
250 800 m 1
 375 800 l 1
 375 -200 l 1
 250 -200 l 1
 250 800 l 1
EndSplineSet
EndChar

StartChar: u1FB72
Encoding: 129906 129906 287
Width: 1000
Flags: HW
LayerCount: 2
Fore
SplineSet
375 800 m 1
 500 800 l 1
 500 -200 l 1
 375 -200 l 1
 375 800 l 1
EndSplineSet
EndChar

StartChar: u1FB73
Encoding: 129907 129907 288
Width: 1000
Flags: HW
LayerCount: 2
Fore
SplineSet
500 800 m 1
 625 800 l 1
 625 -200 l 1
 500 -200 l 1
 500 800 l 1
EndSplineSet
EndChar

StartChar: u1FB74
Encoding: 129908 129908 289
Width: 1000
Flags: HW
LayerCount: 2
Fore
SplineSet
625 800 m 1
 750 800 l 1
 750 -200 l 1
 625 -200 l 1
 625 800 l 1
EndSplineSet
EndChar

StartChar: u1FB75
Encoding: 129909 129909 290
Width: 1000
Flags: HW
LayerCount: 2
Fore
SplineSet
750 800 m 1
 875 800 l 1
 875 -200 l 1
 750 -200 l 1
 750 800 l 1
EndSplineSet
EndChar

StartChar: u1FB76
Encoding: 129910 129910 291
Width: 1000
Flags: HW
LayerCount: 2
Fore
SplineSet
0 675 m 1
 1000 675 l 1
 1000 550 l 1
 0 550 l 1
 0 675 l 1
EndSplineSet
EndChar

StartChar: u1FB77
Encoding: 129911 129911 292
Width: 1000
Flags: HW
LayerCount: 2
Fore
SplineSet
0 550 m 1
 1000 550 l 1
 1000 425 l 1
 0 425 l 1
 0 550 l 1
EndSplineSet
EndChar

StartChar: u1FB78
Encoding: 129912 129912 293
Width: 1000
Flags: HW
LayerCount: 2
Fore
SplineSet
0 425 m 1
 1000 425 l 1
 1000 300 l 1
 0 300 l 1
 0 425 l 1
EndSplineSet
EndChar

StartChar: u1FB79
Encoding: 129913 129913 294
Width: 1000
Flags: HW
LayerCount: 2
Fore
SplineSet
0 300 m 1
 1000 300 l 1
 1000 175 l 1
 0 175 l 1
 0 300 l 1
EndSplineSet
EndChar

StartChar: u1FB7A
Encoding: 129914 129914 295
Width: 1000
Flags: HW
LayerCount: 2
Fore
SplineSet
0 175 m 1
 1000 175 l 1
 1000 50 l 1
 0 50 l 1
 0 175 l 1
EndSplineSet
EndChar

StartChar: u1FB7B
Encoding: 129915 129915 296
Width: 1000
Flags: HW
LayerCount: 2
Fore
SplineSet
0 50 m 1
 1000 50 l 1
 1000 -75 l 1
 0 -75 l 1
 0 50 l 1
EndSplineSet
EndChar

StartChar: u1FB7C
Encoding: 129916 129916 297
Width: 1000
Flags: HW
LayerCount: 2
Fore
SplineSet
0 800 m 1
 125 800 l 1
 125 -75 l 1
 1000 -75 l 1
 1000 -200 l 1
 0 -200 l 1
 0 800 l 1
EndSplineSet
EndChar

StartChar: u1FB7D
Encoding: 129917 129917 298
Width: 1000
Flags: HW
LayerCount: 2
Fore
SplineSet
0 800 m 1
 1000 800 l 1
 1000 675 l 1
 125 675 l 1
 125 -200 l 1
 0 -200 l 1
 0 800 l 1
EndSplineSet
EndChar

StartChar: u1FB7E
Encoding: 129918 129918 299
Width: 1000
Flags: HW
LayerCount: 2
Fore
SplineSet
0 800 m 1
 1000 800 l 1
 1000 -200 l 1
 875 -200 l 1
 875 675 l 1
 0 675 l 1
 0 800 l 1
EndSplineSet
EndChar

StartChar: u1FB7F
Encoding: 129919 129919 300
Width: 1000
Flags: HW
LayerCount: 2
Fore
SplineSet
875 800 m 1
 1000 800 l 1
 1000 -200 l 1
 0 -200 l 1
 0 -75 l 1
 875 -75 l 1
 875 800 l 1
EndSplineSet
EndChar

StartChar: u1FB80
Encoding: 129920 129920 301
Width: 1000
Flags: HW
LayerCount: 2
Fore
SplineSet
0 -75 m 1
 1000 -75 l 1
 1000 -200 l 1
 0 -200 l 1
 0 -75 l 1
0 800 m 1
 1000 800 l 1
 1000 675 l 1
 0 675 l 1
 0 800 l 1
EndSplineSet
EndChar

StartChar: u1FB81
Encoding: 129921 129921 302
Width: 1000
Flags: HW
LayerCount: 2
Fore
SplineSet
0 -75 m 1
 1000 -75 l 1
 1000 -200 l 1
 0 -200 l 1
 0 -75 l 1
0 300 m 1
 1000 300 l 1
 1000 175 l 1
 0 175 l 1
 0 300 l 1
0 550 m 1
 1000 550 l 1
 1000 425 l 1
 0 425 l 1
 0 550 l 1
0 800 m 1
 1000 800 l 1
 1000 675 l 1
 0 675 l 1
 0 800 l 1
EndSplineSet
EndChar

StartChar: u1FB82
Encoding: 129922 129922 303
Width: 1000
Flags: HW
LayerCount: 2
Fore
SplineSet
0 800 m 1
 1000 800 l 1
 1000 550 l 1
 0 550 l 1
 0 800 l 1
EndSplineSet
EndChar

StartChar: u1FB83
Encoding: 129923 129923 304
Width: 1000
Flags: HW
LayerCount: 2
Fore
SplineSet
0 800 m 1
 1000 800 l 1
 1000 425 l 1
 0 425 l 1
 0 800 l 1
EndSplineSet
EndChar

StartChar: u1FB84
Encoding: 129924 129924 305
Width: 1000
Flags: HW
LayerCount: 2
Fore
SplineSet
0 800 m 1
 1000 800 l 1
 1000 175 l 1
 0 175 l 1
 0 800 l 1
EndSplineSet
EndChar

StartChar: u1FB85
Encoding: 129925 129925 306
Width: 1000
Flags: HW
LayerCount: 2
Fore
SplineSet
0 800 m 1
 1000 800 l 1
 1000 50 l 1
 0 50 l 1
 0 800 l 1
EndSplineSet
EndChar

StartChar: u1FB86
Encoding: 129926 129926 307
Width: 1000
Flags: HW
LayerCount: 2
Fore
SplineSet
0 800 m 1
 1000 800 l 1
 1000 -75 l 1
 0 -75 l 1
 0 800 l 1
EndSplineSet
EndChar

StartChar: u1FB87
Encoding: 129927 129927 308
Width: 1000
Flags: HW
LayerCount: 2
Fore
SplineSet
750 800 m 1
 1000 800 l 1
 1000 -200 l 1
 750 -200 l 1
 750 800 l 1
EndSplineSet
EndChar

StartChar: u1FB88
Encoding: 129928 129928 309
Width: 1000
Flags: HW
LayerCount: 2
Fore
SplineSet
625 800 m 1
 1000 800 l 1
 1000 -200 l 1
 625 -200 l 1
 625 800 l 1
EndSplineSet
EndChar

StartChar: u1FB89
Encoding: 129929 129929 310
Width: 1000
Flags: HW
LayerCount: 2
Fore
SplineSet
375 800 m 1
 1000 800 l 1
 1000 -200 l 1
 375 -200 l 1
 375 800 l 1
EndSplineSet
EndChar

StartChar: u1FB8A
Encoding: 129930 129930 311
Width: 1000
Flags: HW
LayerCount: 2
Fore
SplineSet
250 800 m 1
 1000 800 l 1
 1000 -200 l 1
 250 -200 l 1
 250 800 l 1
EndSplineSet
EndChar

StartChar: u1FB8B
Encoding: 129931 129931 312
Width: 1000
Flags: HW
LayerCount: 2
Fore
SplineSet
125 800 m 1
 1000 800 l 1
 1000 -200 l 1
 125 -200 l 1
 125 800 l 1
EndSplineSet
EndChar

StartChar: u1FB8C
Encoding: 129932 129932 313
Width: 1000
Flags: HW
LayerCount: 2
Fore
SplineSet
450 -150 m 1
 500 -150 l 1
 500 -200 l 1
 450 -200 l 1
 450 -150 l 1
400 -150 m 1
 400 -200 l 1
 350 -200 l 1
 350 -150 l 1
 400 -150 l 1
300 -150 m 1
 300 -200 l 1
 250 -200 l 1
 250 -150 l 1
 300 -150 l 1
200 -150 m 1
 200 -200 l 1
 150 -200 l 1
 150 -150 l 1
 200 -150 l 1
100 -150 m 1
 100 -200 l 1
 50 -200 l 1
 50 -150 l 1
 100 -150 l 1
450 -100 m 1
 450 -150 l 1
 400 -150 l 1
 400 -100 l 1
 450 -100 l 1
350 -100 m 1
 350 -150 l 1
 300 -150 l 1
 300 -100 l 1
 350 -100 l 1
250 -100 m 1
 250 -150 l 1
 200 -150 l 1
 200 -100 l 1
 250 -100 l 1
150 -100 m 1
 150 -150 l 1
 100 -150 l 1
 100 -100 l 1
 150 -100 l 1
50 -100 m 1
 50 -150 l 1
 0 -150 l 1
 0 -100 l 1
 50 -100 l 1
450 -50 m 1
 500 -50 l 1
 500 -100 l 1
 450 -100 l 1
 450 -50 l 1
400 -50 m 1
 400 -100 l 1
 350 -100 l 1
 350 -50 l 1
 400 -50 l 1
300 -50 m 1
 300 -100 l 1
 250 -100 l 1
 250 -50 l 1
 300 -50 l 1
200 -50 m 1
 200 -100 l 1
 150 -100 l 1
 150 -50 l 1
 200 -50 l 1
100 -50 m 1
 100 -100 l 1
 50 -100 l 1
 50 -50 l 1
 100 -50 l 1
450 0 m 1
 450 -50 l 1
 400 -50 l 1
 400 0 l 1
 450 0 l 1
350 0 m 1
 350 -50 l 1
 300 -50 l 1
 300 0 l 1
 350 0 l 1
250 0 m 1
 250 -50 l 1
 200 -50 l 1
 200 0 l 1
 250 0 l 1
150 0 m 1
 150 -50 l 1
 100 -50 l 1
 100 0 l 1
 150 0 l 1
50 0 m 1
 50 -50 l 1
 0 -50 l 1
 0 0 l 1
 50 0 l 1
450 50 m 1
 500 50 l 1
 500 0 l 1
 450 0 l 1
 450 50 l 1
400 50 m 1
 400 0 l 1
 350 0 l 1
 350 50 l 1
 400 50 l 1
300 50 m 1
 300 0 l 1
 250 0 l 1
 250 50 l 1
 300 50 l 1
200 50 m 1
 200 0 l 1
 150 0 l 1
 150 50 l 1
 200 50 l 1
100 50 m 1
 100 0 l 1
 50 0 l 1
 50 50 l 1
 100 50 l 1
450 100 m 1
 450 50 l 1
 400 50 l 1
 400 100 l 1
 450 100 l 1
350 100 m 1
 350 50 l 1
 300 50 l 1
 300 100 l 1
 350 100 l 1
250 100 m 1
 250 50 l 1
 200 50 l 1
 200 100 l 1
 250 100 l 1
150 100 m 1
 150 50 l 1
 100 50 l 1
 100 100 l 1
 150 100 l 1
50 100 m 1
 50 50 l 1
 0 50 l 1
 0 100 l 1
 50 100 l 1
450 150 m 1
 500 150 l 1
 500 100 l 1
 450 100 l 1
 450 150 l 1
400 150 m 1
 400 100 l 1
 350 100 l 1
 350 150 l 1
 400 150 l 1
300 150 m 1
 300 100 l 1
 250 100 l 1
 250 150 l 1
 300 150 l 1
200 150 m 1
 200 100 l 1
 150 100 l 1
 150 150 l 1
 200 150 l 1
100 150 m 1
 100 100 l 1
 50 100 l 1
 50 150 l 1
 100 150 l 1
450 200 m 1
 450 150 l 1
 400 150 l 1
 400 200 l 1
 450 200 l 1
350 200 m 1
 350 150 l 1
 300 150 l 1
 300 200 l 1
 350 200 l 1
250 200 m 1
 250 150 l 1
 200 150 l 1
 200 200 l 1
 250 200 l 1
150 200 m 1
 150 150 l 1
 100 150 l 1
 100 200 l 1
 150 200 l 1
50 200 m 1
 50 150 l 1
 0 150 l 1
 0 200 l 1
 50 200 l 1
450 250 m 1
 500 250 l 1
 500 200 l 1
 450 200 l 1
 450 250 l 1
400 250 m 1
 400 200 l 1
 350 200 l 1
 350 250 l 1
 400 250 l 1
300 250 m 1
 300 200 l 1
 250 200 l 1
 250 250 l 1
 300 250 l 1
200 250 m 1
 200 200 l 1
 150 200 l 1
 150 250 l 1
 200 250 l 1
100 250 m 1
 100 200 l 1
 50 200 l 1
 50 250 l 1
 100 250 l 1
450 300 m 1
 450 250 l 1
 400 250 l 1
 400 300 l 1
 450 300 l 1
350 300 m 1
 350 250 l 1
 300 250 l 1
 300 300 l 1
 350 300 l 1
250 300 m 1
 250 250 l 1
 200 250 l 1
 200 300 l 1
 250 300 l 1
150 300 m 1
 150 250 l 1
 100 250 l 1
 100 300 l 1
 150 300 l 1
50 300 m 1
 50 250 l 1
 0 250 l 1
 0 300 l 1
 50 300 l 1
450 350 m 1
 500 350 l 1
 500 300 l 1
 450 300 l 1
 450 350 l 1
400 350 m 1
 400 300 l 1
 350 300 l 1
 350 350 l 1
 400 350 l 1
300 350 m 1
 300 300 l 1
 250 300 l 1
 250 350 l 1
 300 350 l 1
200 350 m 1
 200 300 l 1
 150 300 l 1
 150 350 l 1
 200 350 l 1
100 350 m 1
 100 300 l 1
 50 300 l 1
 50 350 l 1
 100 350 l 1
450 400 m 1
 450 350 l 1
 400 350 l 1
 400 400 l 1
 450 400 l 1
350 400 m 1
 350 350 l 1
 300 350 l 1
 300 400 l 1
 350 400 l 1
250 400 m 1
 250 350 l 1
 200 350 l 1
 200 400 l 1
 250 400 l 1
150 400 m 1
 150 350 l 1
 100 350 l 1
 100 400 l 1
 150 400 l 1
50 400 m 1
 50 350 l 1
 0 350 l 1
 0 400 l 1
 50 400 l 1
450 450 m 1
 500 450 l 1
 500 400 l 1
 450 400 l 1
 450 450 l 1
400 450 m 1
 400 400 l 1
 350 400 l 1
 350 450 l 1
 400 450 l 1
300 450 m 1
 300 400 l 1
 250 400 l 1
 250 450 l 1
 300 450 l 1
200 450 m 1
 200 400 l 1
 150 400 l 1
 150 450 l 1
 200 450 l 1
100 450 m 1
 100 400 l 1
 50 400 l 1
 50 450 l 1
 100 450 l 1
450 500 m 1
 450 450 l 1
 400 450 l 1
 400 500 l 1
 450 500 l 1
350 500 m 1
 350 450 l 1
 300 450 l 1
 300 500 l 1
 350 500 l 1
250 500 m 1
 250 450 l 1
 200 450 l 1
 200 500 l 1
 250 500 l 1
150 500 m 1
 150 450 l 1
 100 450 l 1
 100 500 l 1
 150 500 l 1
50 500 m 1
 50 450 l 1
 0 450 l 1
 0 500 l 1
 50 500 l 1
450 550 m 1
 500 550 l 1
 500 500 l 1
 450 500 l 1
 450 550 l 1
400 550 m 1
 400 500 l 1
 350 500 l 1
 350 550 l 1
 400 550 l 1
300 550 m 1
 300 500 l 1
 250 500 l 1
 250 550 l 1
 300 550 l 1
200 550 m 1
 200 500 l 1
 150 500 l 1
 150 550 l 1
 200 550 l 1
100 550 m 1
 100 500 l 1
 50 500 l 1
 50 550 l 1
 100 550 l 1
450 600 m 1
 450 550 l 1
 400 550 l 1
 400 600 l 1
 450 600 l 1
350 600 m 1
 350 550 l 1
 300 550 l 1
 300 600 l 1
 350 600 l 1
250 600 m 1
 250 550 l 1
 200 550 l 1
 200 600 l 1
 250 600 l 1
150 600 m 1
 150 550 l 1
 100 550 l 1
 100 600 l 1
 150 600 l 1
50 600 m 1
 50 550 l 1
 0 550 l 1
 0 600 l 1
 50 600 l 1
450 650 m 1
 500 650 l 1
 500 600 l 1
 450 600 l 1
 450 650 l 1
400 650 m 1
 400 600 l 1
 350 600 l 1
 350 650 l 1
 400 650 l 1
300 650 m 1
 300 600 l 1
 250 600 l 1
 250 650 l 1
 300 650 l 1
200 650 m 1
 200 600 l 1
 150 600 l 1
 150 650 l 1
 200 650 l 1
100 650 m 1
 100 600 l 1
 50 600 l 1
 50 650 l 1
 100 650 l 1
450 700 m 1
 450 650 l 1
 400 650 l 1
 400 700 l 1
 450 700 l 1
350 700 m 1
 350 650 l 1
 300 650 l 1
 300 700 l 1
 350 700 l 1
250 700 m 1
 250 650 l 1
 200 650 l 1
 200 700 l 1
 250 700 l 1
150 700 m 1
 150 650 l 1
 100 650 l 1
 100 700 l 1
 150 700 l 1
50 700 m 1
 50 650 l 1
 0 650 l 1
 0 700 l 1
 50 700 l 1
450 750 m 1
 500 750 l 1
 500 700 l 1
 450 700 l 1
 450 750 l 1
400 750 m 1
 400 700 l 1
 350 700 l 1
 350 750 l 1
 400 750 l 1
400 750 m 1
 400 800 l 1
 450 800 l 1
 450 750 l 1
 400 750 l 1
300 750 m 1
 300 700 l 1
 250 700 l 1
 250 750 l 1
 300 750 l 1
300 750 m 1
 300 800 l 1
 350 800 l 1
 350 750 l 1
 300 750 l 1
200 750 m 1
 200 700 l 1
 150 700 l 1
 150 750 l 1
 200 750 l 1
200 750 m 1
 200 800 l 1
 250 800 l 1
 250 750 l 1
 200 750 l 1
100 750 m 1
 100 700 l 1
 50 700 l 1
 50 750 l 1
 0 750 l 1
 0 800 l 1
 50 800 l 1
 50 750 l 1
 100 750 l 1
100 750 m 1
 100 800 l 1
 150 800 l 1
 150 750 l 1
 100 750 l 1
EndSplineSet
EndChar

StartChar: u1FB8D
Encoding: 129933 129933 314
Width: 1000
Flags: HW
LayerCount: 2
Fore
SplineSet
950 -150 m 1
 1000 -150 l 1
 1000 -200 l 1
 950 -200 l 1
 950 -150 l 1
900 -150 m 1
 900 -200 l 1
 850 -200 l 1
 850 -150 l 1
 900 -150 l 1
800 -150 m 1
 800 -200 l 1
 750 -200 l 1
 750 -150 l 1
 800 -150 l 1
700 -150 m 1
 700 -200 l 1
 650 -200 l 1
 650 -150 l 1
 700 -150 l 1
600 -150 m 1
 600 -200 l 1
 550 -200 l 1
 550 -150 l 1
 600 -150 l 1
950 -100 m 1
 950 -150 l 1
 900 -150 l 1
 900 -100 l 1
 950 -100 l 1
850 -100 m 1
 850 -150 l 1
 800 -150 l 1
 800 -100 l 1
 850 -100 l 1
750 -100 m 1
 750 -150 l 1
 700 -150 l 1
 700 -100 l 1
 750 -100 l 1
650 -100 m 1
 650 -150 l 1
 600 -150 l 1
 600 -100 l 1
 650 -100 l 1
550 -100 m 1
 550 -150 l 1
 500 -150 l 1
 500 -100 l 1
 550 -100 l 1
950 -50 m 1
 1000 -50 l 1
 1000 -100 l 1
 950 -100 l 1
 950 -50 l 1
900 -50 m 1
 900 -100 l 1
 850 -100 l 1
 850 -50 l 1
 900 -50 l 1
800 -50 m 1
 800 -100 l 1
 750 -100 l 1
 750 -50 l 1
 800 -50 l 1
700 -50 m 1
 700 -100 l 1
 650 -100 l 1
 650 -50 l 1
 700 -50 l 1
600 -50 m 1
 600 -100 l 1
 550 -100 l 1
 550 -50 l 1
 600 -50 l 1
950 0 m 1
 950 -50 l 1
 900 -50 l 1
 900 0 l 1
 950 0 l 1
850 0 m 1
 850 -50 l 1
 800 -50 l 1
 800 0 l 1
 850 0 l 1
750 0 m 1
 750 -50 l 1
 700 -50 l 1
 700 0 l 1
 750 0 l 1
650 0 m 1
 650 -50 l 1
 600 -50 l 1
 600 0 l 1
 650 0 l 1
550 0 m 1
 550 -50 l 1
 500 -50 l 1
 500 0 l 1
 550 0 l 1
950 50 m 1
 1000 50 l 1
 1000 0 l 1
 950 0 l 1
 950 50 l 1
900 50 m 1
 900 0 l 1
 850 0 l 1
 850 50 l 1
 900 50 l 1
800 50 m 1
 800 0 l 1
 750 0 l 1
 750 50 l 1
 800 50 l 1
700 50 m 1
 700 0 l 1
 650 0 l 1
 650 50 l 1
 700 50 l 1
600 50 m 1
 600 0 l 1
 550 0 l 1
 550 50 l 1
 600 50 l 1
950 100 m 1
 950 50 l 1
 900 50 l 1
 900 100 l 1
 950 100 l 1
850 100 m 1
 850 50 l 1
 800 50 l 1
 800 100 l 1
 850 100 l 1
750 100 m 1
 750 50 l 1
 700 50 l 1
 700 100 l 1
 750 100 l 1
650 100 m 1
 650 50 l 1
 600 50 l 1
 600 100 l 1
 650 100 l 1
550 100 m 1
 550 50 l 1
 500 50 l 1
 500 100 l 1
 550 100 l 1
950 150 m 1
 1000 150 l 1
 1000 100 l 1
 950 100 l 1
 950 150 l 1
900 150 m 1
 900 100 l 1
 850 100 l 1
 850 150 l 1
 900 150 l 1
800 150 m 1
 800 100 l 1
 750 100 l 1
 750 150 l 1
 800 150 l 1
700 150 m 1
 700 100 l 1
 650 100 l 1
 650 150 l 1
 700 150 l 1
600 150 m 1
 600 100 l 1
 550 100 l 1
 550 150 l 1
 600 150 l 1
950 200 m 1
 950 150 l 1
 900 150 l 1
 900 200 l 1
 950 200 l 1
850 200 m 1
 850 150 l 1
 800 150 l 1
 800 200 l 1
 850 200 l 1
750 200 m 1
 750 150 l 1
 700 150 l 1
 700 200 l 1
 750 200 l 1
650 200 m 1
 650 150 l 1
 600 150 l 1
 600 200 l 1
 650 200 l 1
550 200 m 1
 550 150 l 1
 500 150 l 1
 500 200 l 1
 550 200 l 1
950 250 m 1
 1000 250 l 1
 1000 200 l 1
 950 200 l 1
 950 250 l 1
900 250 m 1
 900 200 l 1
 850 200 l 1
 850 250 l 1
 900 250 l 1
800 250 m 1
 800 200 l 1
 750 200 l 1
 750 250 l 1
 800 250 l 1
700 250 m 1
 700 200 l 1
 650 200 l 1
 650 250 l 1
 700 250 l 1
600 250 m 1
 600 200 l 1
 550 200 l 1
 550 250 l 1
 600 250 l 1
950 300 m 1
 950 250 l 1
 900 250 l 1
 900 300 l 1
 950 300 l 1
850 300 m 1
 850 250 l 1
 800 250 l 1
 800 300 l 1
 850 300 l 1
750 300 m 1
 750 250 l 1
 700 250 l 1
 700 300 l 1
 750 300 l 1
650 300 m 1
 650 250 l 1
 600 250 l 1
 600 300 l 1
 650 300 l 1
550 300 m 1
 550 250 l 1
 500 250 l 1
 500 300 l 1
 550 300 l 1
950 350 m 1
 1000 350 l 1
 1000 300 l 1
 950 300 l 1
 950 350 l 1
900 350 m 1
 900 300 l 1
 850 300 l 1
 850 350 l 1
 900 350 l 1
800 350 m 1
 800 300 l 1
 750 300 l 1
 750 350 l 1
 800 350 l 1
700 350 m 1
 700 300 l 1
 650 300 l 1
 650 350 l 1
 700 350 l 1
600 350 m 1
 600 300 l 1
 550 300 l 1
 550 350 l 1
 600 350 l 1
950 400 m 1
 950 350 l 1
 900 350 l 1
 900 400 l 1
 950 400 l 1
850 400 m 1
 850 350 l 1
 800 350 l 1
 800 400 l 1
 850 400 l 1
750 400 m 1
 750 350 l 1
 700 350 l 1
 700 400 l 1
 750 400 l 1
650 400 m 1
 650 350 l 1
 600 350 l 1
 600 400 l 1
 650 400 l 1
550 400 m 1
 550 350 l 1
 500 350 l 1
 500 400 l 1
 550 400 l 1
950 450 m 1
 1000 450 l 1
 1000 400 l 1
 950 400 l 1
 950 450 l 1
900 450 m 1
 900 400 l 1
 850 400 l 1
 850 450 l 1
 900 450 l 1
800 450 m 1
 800 400 l 1
 750 400 l 1
 750 450 l 1
 800 450 l 1
700 450 m 1
 700 400 l 1
 650 400 l 1
 650 450 l 1
 700 450 l 1
600 450 m 1
 600 400 l 1
 550 400 l 1
 550 450 l 1
 600 450 l 1
950 500 m 1
 950 450 l 1
 900 450 l 1
 900 500 l 1
 950 500 l 1
850 500 m 1
 850 450 l 1
 800 450 l 1
 800 500 l 1
 850 500 l 1
750 500 m 1
 750 450 l 1
 700 450 l 1
 700 500 l 1
 750 500 l 1
650 500 m 1
 650 450 l 1
 600 450 l 1
 600 500 l 1
 650 500 l 1
550 500 m 1
 550 450 l 1
 500 450 l 1
 500 500 l 1
 550 500 l 1
950 550 m 1
 1000 550 l 1
 1000 500 l 1
 950 500 l 1
 950 550 l 1
900 550 m 1
 900 500 l 1
 850 500 l 1
 850 550 l 1
 900 550 l 1
800 550 m 1
 800 500 l 1
 750 500 l 1
 750 550 l 1
 800 550 l 1
700 550 m 1
 700 500 l 1
 650 500 l 1
 650 550 l 1
 700 550 l 1
600 550 m 1
 600 500 l 1
 550 500 l 1
 550 550 l 1
 600 550 l 1
950 600 m 1
 950 550 l 1
 900 550 l 1
 900 600 l 1
 950 600 l 1
850 600 m 1
 850 550 l 1
 800 550 l 1
 800 600 l 1
 850 600 l 1
750 600 m 1
 750 550 l 1
 700 550 l 1
 700 600 l 1
 750 600 l 1
650 600 m 1
 650 550 l 1
 600 550 l 1
 600 600 l 1
 650 600 l 1
550 600 m 1
 550 550 l 1
 500 550 l 1
 500 600 l 1
 550 600 l 1
950 650 m 1
 1000 650 l 1
 1000 600 l 1
 950 600 l 1
 950 650 l 1
900 650 m 1
 900 600 l 1
 850 600 l 1
 850 650 l 1
 900 650 l 1
800 650 m 1
 800 600 l 1
 750 600 l 1
 750 650 l 1
 800 650 l 1
700 650 m 1
 700 600 l 1
 650 600 l 1
 650 650 l 1
 700 650 l 1
600 650 m 1
 600 600 l 1
 550 600 l 1
 550 650 l 1
 600 650 l 1
950 700 m 1
 950 650 l 1
 900 650 l 1
 900 700 l 1
 950 700 l 1
850 700 m 1
 850 650 l 1
 800 650 l 1
 800 700 l 1
 850 700 l 1
750 700 m 1
 750 650 l 1
 700 650 l 1
 700 700 l 1
 750 700 l 1
650 700 m 1
 650 650 l 1
 600 650 l 1
 600 700 l 1
 650 700 l 1
550 700 m 1
 550 650 l 1
 500 650 l 1
 500 700 l 1
 550 700 l 1
950 750 m 1
 1000 750 l 1
 1000 700 l 1
 950 700 l 1
 950 750 l 1
900 750 m 1
 900 700 l 1
 850 700 l 1
 850 750 l 1
 900 750 l 1
900 750 m 1
 900 800 l 1
 950 800 l 1
 950 750 l 1
 900 750 l 1
800 750 m 1
 800 700 l 1
 750 700 l 1
 750 750 l 1
 800 750 l 1
800 750 m 1
 800 800 l 1
 850 800 l 1
 850 750 l 1
 800 750 l 1
700 750 m 1
 700 700 l 1
 650 700 l 1
 650 750 l 1
 700 750 l 1
700 750 m 1
 700 800 l 1
 750 800 l 1
 750 750 l 1
 700 750 l 1
600 750 m 1
 600 700 l 1
 550 700 l 1
 550 750 l 1
 500 750 l 1
 500 800 l 1
 550 800 l 1
 550 750 l 1
 600 750 l 1
600 750 m 1
 600 800 l 1
 650 800 l 1
 650 750 l 1
 600 750 l 1
EndSplineSet
EndChar

StartChar: u1FB8E
Encoding: 129934 129934 315
Width: 1000
Flags: HW
LayerCount: 2
Fore
SplineSet
950 350 m 1
 1000 350 l 1
 1000 300 l 1
 950 300 l 1
 950 350 l 1
900 350 m 1
 900 300 l 1
 850 300 l 1
 850 350 l 1
 900 350 l 1
800 350 m 1
 800 300 l 1
 750 300 l 1
 750 350 l 1
 800 350 l 1
700 350 m 1
 700 300 l 1
 650 300 l 1
 650 350 l 1
 700 350 l 1
600 350 m 1
 600 300 l 1
 550 300 l 1
 550 350 l 1
 600 350 l 1
500 350 m 1
 500 300 l 1
 450 300 l 1
 450 350 l 1
 500 350 l 1
400 350 m 1
 400 300 l 1
 350 300 l 1
 350 350 l 1
 400 350 l 1
300 350 m 1
 300 300 l 1
 250 300 l 1
 250 350 l 1
 300 350 l 1
200 350 m 1
 200 300 l 1
 150 300 l 1
 150 350 l 1
 200 350 l 1
100 350 m 1
 100 300 l 1
 50 300 l 1
 50 350 l 1
 100 350 l 1
950 400 m 1
 950 350 l 1
 900 350 l 1
 900 400 l 1
 950 400 l 1
850 400 m 1
 850 350 l 1
 800 350 l 1
 800 400 l 1
 850 400 l 1
750 400 m 1
 750 350 l 1
 700 350 l 1
 700 400 l 1
 750 400 l 1
650 400 m 1
 650 350 l 1
 600 350 l 1
 600 400 l 1
 650 400 l 1
550 400 m 1
 550 350 l 1
 500 350 l 1
 500 400 l 1
 550 400 l 1
450 400 m 1
 450 350 l 1
 400 350 l 1
 400 400 l 1
 450 400 l 1
350 400 m 1
 350 350 l 1
 300 350 l 1
 300 400 l 1
 350 400 l 1
250 400 m 1
 250 350 l 1
 200 350 l 1
 200 400 l 1
 250 400 l 1
150 400 m 1
 150 350 l 1
 100 350 l 1
 100 400 l 1
 150 400 l 1
50 400 m 1
 50 350 l 1
 0 350 l 1
 0 400 l 1
 50 400 l 1
950 450 m 1
 1000 450 l 1
 1000 400 l 1
 950 400 l 1
 950 450 l 1
900 450 m 1
 900 400 l 1
 850 400 l 1
 850 450 l 1
 900 450 l 1
800 450 m 1
 800 400 l 1
 750 400 l 1
 750 450 l 1
 800 450 l 1
700 450 m 1
 700 400 l 1
 650 400 l 1
 650 450 l 1
 700 450 l 1
600 450 m 1
 600 400 l 1
 550 400 l 1
 550 450 l 1
 600 450 l 1
500 450 m 1
 500 400 l 1
 450 400 l 1
 450 450 l 1
 500 450 l 1
400 450 m 1
 400 400 l 1
 350 400 l 1
 350 450 l 1
 400 450 l 1
300 450 m 1
 300 400 l 1
 250 400 l 1
 250 450 l 1
 300 450 l 1
200 450 m 1
 200 400 l 1
 150 400 l 1
 150 450 l 1
 200 450 l 1
100 450 m 1
 100 400 l 1
 50 400 l 1
 50 450 l 1
 100 450 l 1
950 500 m 1
 950 450 l 1
 900 450 l 1
 900 500 l 1
 950 500 l 1
850 500 m 1
 850 450 l 1
 800 450 l 1
 800 500 l 1
 850 500 l 1
750 500 m 1
 750 450 l 1
 700 450 l 1
 700 500 l 1
 750 500 l 1
650 500 m 1
 650 450 l 1
 600 450 l 1
 600 500 l 1
 650 500 l 1
550 500 m 1
 550 450 l 1
 500 450 l 1
 500 500 l 1
 550 500 l 1
450 500 m 1
 450 450 l 1
 400 450 l 1
 400 500 l 1
 450 500 l 1
350 500 m 1
 350 450 l 1
 300 450 l 1
 300 500 l 1
 350 500 l 1
250 500 m 1
 250 450 l 1
 200 450 l 1
 200 500 l 1
 250 500 l 1
150 500 m 1
 150 450 l 1
 100 450 l 1
 100 500 l 1
 150 500 l 1
50 500 m 1
 50 450 l 1
 0 450 l 1
 0 500 l 1
 50 500 l 1
950 550 m 1
 1000 550 l 1
 1000 500 l 1
 950 500 l 1
 950 550 l 1
900 550 m 1
 900 500 l 1
 850 500 l 1
 850 550 l 1
 900 550 l 1
800 550 m 1
 800 500 l 1
 750 500 l 1
 750 550 l 1
 800 550 l 1
700 550 m 1
 700 500 l 1
 650 500 l 1
 650 550 l 1
 700 550 l 1
600 550 m 1
 600 500 l 1
 550 500 l 1
 550 550 l 1
 600 550 l 1
500 550 m 1
 500 500 l 1
 450 500 l 1
 450 550 l 1
 500 550 l 1
400 550 m 1
 400 500 l 1
 350 500 l 1
 350 550 l 1
 400 550 l 1
300 550 m 1
 300 500 l 1
 250 500 l 1
 250 550 l 1
 300 550 l 1
200 550 m 1
 200 500 l 1
 150 500 l 1
 150 550 l 1
 200 550 l 1
100 550 m 1
 100 500 l 1
 50 500 l 1
 50 550 l 1
 100 550 l 1
950 600 m 1
 950 550 l 1
 900 550 l 1
 900 600 l 1
 950 600 l 1
850 600 m 1
 850 550 l 1
 800 550 l 1
 800 600 l 1
 850 600 l 1
750 600 m 1
 750 550 l 1
 700 550 l 1
 700 600 l 1
 750 600 l 1
650 600 m 1
 650 550 l 1
 600 550 l 1
 600 600 l 1
 650 600 l 1
550 600 m 1
 550 550 l 1
 500 550 l 1
 500 600 l 1
 550 600 l 1
450 600 m 1
 450 550 l 1
 400 550 l 1
 400 600 l 1
 450 600 l 1
350 600 m 1
 350 550 l 1
 300 550 l 1
 300 600 l 1
 350 600 l 1
250 600 m 1
 250 550 l 1
 200 550 l 1
 200 600 l 1
 250 600 l 1
150 600 m 1
 150 550 l 1
 100 550 l 1
 100 600 l 1
 150 600 l 1
50 600 m 1
 50 550 l 1
 0 550 l 1
 0 600 l 1
 50 600 l 1
950 650 m 1
 1000 650 l 1
 1000 600 l 1
 950 600 l 1
 950 650 l 1
900 650 m 1
 900 600 l 1
 850 600 l 1
 850 650 l 1
 900 650 l 1
800 650 m 1
 800 600 l 1
 750 600 l 1
 750 650 l 1
 800 650 l 1
700 650 m 1
 700 600 l 1
 650 600 l 1
 650 650 l 1
 700 650 l 1
600 650 m 1
 600 600 l 1
 550 600 l 1
 550 650 l 1
 600 650 l 1
500 650 m 1
 500 600 l 1
 450 600 l 1
 450 650 l 1
 500 650 l 1
400 650 m 1
 400 600 l 1
 350 600 l 1
 350 650 l 1
 400 650 l 1
300 650 m 1
 300 600 l 1
 250 600 l 1
 250 650 l 1
 300 650 l 1
200 650 m 1
 200 600 l 1
 150 600 l 1
 150 650 l 1
 200 650 l 1
100 650 m 1
 100 600 l 1
 50 600 l 1
 50 650 l 1
 100 650 l 1
950 700 m 1
 950 650 l 1
 900 650 l 1
 900 700 l 1
 950 700 l 1
850 700 m 1
 850 650 l 1
 800 650 l 1
 800 700 l 1
 850 700 l 1
750 700 m 1
 750 650 l 1
 700 650 l 1
 700 700 l 1
 750 700 l 1
650 700 m 1
 650 650 l 1
 600 650 l 1
 600 700 l 1
 650 700 l 1
550 700 m 1
 550 650 l 1
 500 650 l 1
 500 700 l 1
 550 700 l 1
450 700 m 1
 450 650 l 1
 400 650 l 1
 400 700 l 1
 450 700 l 1
350 700 m 1
 350 650 l 1
 300 650 l 1
 300 700 l 1
 350 700 l 1
250 700 m 1
 250 650 l 1
 200 650 l 1
 200 700 l 1
 250 700 l 1
150 700 m 1
 150 650 l 1
 100 650 l 1
 100 700 l 1
 150 700 l 1
50 700 m 1
 50 650 l 1
 0 650 l 1
 0 700 l 1
 50 700 l 1
950 750 m 1
 1000 750 l 1
 1000 700 l 1
 950 700 l 1
 950 750 l 1
900 750 m 1
 900 700 l 1
 850 700 l 1
 850 750 l 1
 900 750 l 1
900 750 m 1
 900 800 l 1
 950 800 l 1
 950 750 l 1
 900 750 l 1
800 750 m 1
 800 700 l 1
 750 700 l 1
 750 750 l 1
 800 750 l 1
800 750 m 1
 800 800 l 1
 850 800 l 1
 850 750 l 1
 800 750 l 1
700 750 m 1
 700 700 l 1
 650 700 l 1
 650 750 l 1
 700 750 l 1
700 750 m 1
 700 800 l 1
 750 800 l 1
 750 750 l 1
 700 750 l 1
600 750 m 1
 600 700 l 1
 550 700 l 1
 550 750 l 1
 600 750 l 1
600 750 m 1
 600 800 l 1
 650 800 l 1
 650 750 l 1
 600 750 l 1
500 750 m 1
 500 700 l 1
 450 700 l 1
 450 750 l 1
 500 750 l 1
500 750 m 1
 500 800 l 1
 550 800 l 1
 550 750 l 1
 500 750 l 1
400 750 m 1
 400 700 l 1
 350 700 l 1
 350 750 l 1
 400 750 l 1
400 750 m 1
 400 800 l 1
 450 800 l 1
 450 750 l 1
 400 750 l 1
300 750 m 1
 300 700 l 1
 250 700 l 1
 250 750 l 1
 300 750 l 1
300 750 m 1
 300 800 l 1
 350 800 l 1
 350 750 l 1
 300 750 l 1
200 750 m 1
 200 700 l 1
 150 700 l 1
 150 750 l 1
 200 750 l 1
200 750 m 1
 200 800 l 1
 250 800 l 1
 250 750 l 1
 200 750 l 1
100 750 m 1
 100 700 l 1
 50 700 l 1
 50 750 l 1
 0 750 l 1
 0 800 l 1
 50 800 l 1
 50 750 l 1
 100 750 l 1
100 750 m 1
 100 800 l 1
 150 800 l 1
 150 750 l 1
 100 750 l 1
EndSplineSet
EndChar

StartChar: u1FB8F
Encoding: 129935 129935 316
Width: 1000
Flags: HW
LayerCount: 2
Fore
SplineSet
950 -150 m 1
 1000 -150 l 1
 1000 -200 l 1
 950 -200 l 1
 950 -150 l 1
900 -150 m 1
 900 -200 l 1
 850 -200 l 1
 850 -150 l 1
 900 -150 l 1
800 -150 m 1
 800 -200 l 1
 750 -200 l 1
 750 -150 l 1
 800 -150 l 1
700 -150 m 1
 700 -200 l 1
 650 -200 l 1
 650 -150 l 1
 700 -150 l 1
600 -150 m 1
 600 -200 l 1
 550 -200 l 1
 550 -150 l 1
 600 -150 l 1
500 -150 m 1
 500 -200 l 1
 450 -200 l 1
 450 -150 l 1
 500 -150 l 1
400 -150 m 1
 400 -200 l 1
 350 -200 l 1
 350 -150 l 1
 400 -150 l 1
300 -150 m 1
 300 -200 l 1
 250 -200 l 1
 250 -150 l 1
 300 -150 l 1
200 -150 m 1
 200 -200 l 1
 150 -200 l 1
 150 -150 l 1
 200 -150 l 1
100 -150 m 1
 100 -200 l 1
 50 -200 l 1
 50 -150 l 1
 100 -150 l 1
950 -100 m 1
 950 -150 l 1
 900 -150 l 1
 900 -100 l 1
 950 -100 l 1
850 -100 m 1
 850 -150 l 1
 800 -150 l 1
 800 -100 l 1
 850 -100 l 1
750 -100 m 1
 750 -150 l 1
 700 -150 l 1
 700 -100 l 1
 750 -100 l 1
650 -100 m 1
 650 -150 l 1
 600 -150 l 1
 600 -100 l 1
 650 -100 l 1
550 -100 m 1
 550 -150 l 1
 500 -150 l 1
 500 -100 l 1
 550 -100 l 1
450 -100 m 1
 450 -150 l 1
 400 -150 l 1
 400 -100 l 1
 450 -100 l 1
350 -100 m 1
 350 -150 l 1
 300 -150 l 1
 300 -100 l 1
 350 -100 l 1
250 -100 m 1
 250 -150 l 1
 200 -150 l 1
 200 -100 l 1
 250 -100 l 1
150 -100 m 1
 150 -150 l 1
 100 -150 l 1
 100 -100 l 1
 150 -100 l 1
50 -100 m 1
 50 -150 l 1
 0 -150 l 1
 0 -100 l 1
 50 -100 l 1
950 -50 m 1
 1000 -50 l 1
 1000 -100 l 1
 950 -100 l 1
 950 -50 l 1
900 -50 m 1
 900 -100 l 1
 850 -100 l 1
 850 -50 l 1
 900 -50 l 1
800 -50 m 1
 800 -100 l 1
 750 -100 l 1
 750 -50 l 1
 800 -50 l 1
700 -50 m 1
 700 -100 l 1
 650 -100 l 1
 650 -50 l 1
 700 -50 l 1
600 -50 m 1
 600 -100 l 1
 550 -100 l 1
 550 -50 l 1
 600 -50 l 1
500 -50 m 1
 500 -100 l 1
 450 -100 l 1
 450 -50 l 1
 500 -50 l 1
400 -50 m 1
 400 -100 l 1
 350 -100 l 1
 350 -50 l 1
 400 -50 l 1
300 -50 m 1
 300 -100 l 1
 250 -100 l 1
 250 -50 l 1
 300 -50 l 1
200 -50 m 1
 200 -100 l 1
 150 -100 l 1
 150 -50 l 1
 200 -50 l 1
100 -50 m 1
 100 -100 l 1
 50 -100 l 1
 50 -50 l 1
 100 -50 l 1
950 0 m 1
 950 -50 l 1
 900 -50 l 1
 900 0 l 1
 950 0 l 1
850 0 m 1
 850 -50 l 1
 800 -50 l 1
 800 0 l 1
 850 0 l 1
750 0 m 1
 750 -50 l 1
 700 -50 l 1
 700 0 l 1
 750 0 l 1
650 0 m 1
 650 -50 l 1
 600 -50 l 1
 600 0 l 1
 650 0 l 1
550 0 m 1
 550 -50 l 1
 500 -50 l 1
 500 0 l 1
 550 0 l 1
450 0 m 1
 450 -50 l 1
 400 -50 l 1
 400 0 l 1
 450 0 l 1
350 0 m 1
 350 -50 l 1
 300 -50 l 1
 300 0 l 1
 350 0 l 1
250 0 m 1
 250 -50 l 1
 200 -50 l 1
 200 0 l 1
 250 0 l 1
150 0 m 1
 150 -50 l 1
 100 -50 l 1
 100 0 l 1
 150 0 l 1
50 0 m 1
 50 -50 l 1
 0 -50 l 1
 0 0 l 1
 50 0 l 1
950 50 m 1
 1000 50 l 1
 1000 0 l 1
 950 0 l 1
 950 50 l 1
900 50 m 1
 900 0 l 1
 850 0 l 1
 850 50 l 1
 900 50 l 1
800 50 m 1
 800 0 l 1
 750 0 l 1
 750 50 l 1
 800 50 l 1
700 50 m 1
 700 0 l 1
 650 0 l 1
 650 50 l 1
 700 50 l 1
600 50 m 1
 600 0 l 1
 550 0 l 1
 550 50 l 1
 600 50 l 1
500 50 m 1
 500 0 l 1
 450 0 l 1
 450 50 l 1
 500 50 l 1
400 50 m 1
 400 0 l 1
 350 0 l 1
 350 50 l 1
 400 50 l 1
300 50 m 1
 300 0 l 1
 250 0 l 1
 250 50 l 1
 300 50 l 1
200 50 m 1
 200 0 l 1
 150 0 l 1
 150 50 l 1
 200 50 l 1
100 50 m 1
 100 0 l 1
 50 0 l 1
 50 50 l 1
 100 50 l 1
950 100 m 1
 950 50 l 1
 900 50 l 1
 900 100 l 1
 950 100 l 1
850 100 m 1
 850 50 l 1
 800 50 l 1
 800 100 l 1
 850 100 l 1
750 100 m 1
 750 50 l 1
 700 50 l 1
 700 100 l 1
 750 100 l 1
650 100 m 1
 650 50 l 1
 600 50 l 1
 600 100 l 1
 650 100 l 1
550 100 m 1
 550 50 l 1
 500 50 l 1
 500 100 l 1
 550 100 l 1
450 100 m 1
 450 50 l 1
 400 50 l 1
 400 100 l 1
 450 100 l 1
350 100 m 1
 350 50 l 1
 300 50 l 1
 300 100 l 1
 350 100 l 1
250 100 m 1
 250 50 l 1
 200 50 l 1
 200 100 l 1
 250 100 l 1
150 100 m 1
 150 50 l 1
 100 50 l 1
 100 100 l 1
 150 100 l 1
50 100 m 1
 50 50 l 1
 0 50 l 1
 0 100 l 1
 50 100 l 1
950 150 m 1
 1000 150 l 1
 1000 100 l 1
 950 100 l 1
 950 150 l 1
900 150 m 1
 900 100 l 1
 850 100 l 1
 850 150 l 1
 900 150 l 1
800 150 m 1
 800 100 l 1
 750 100 l 1
 750 150 l 1
 800 150 l 1
700 150 m 1
 700 100 l 1
 650 100 l 1
 650 150 l 1
 700 150 l 1
600 150 m 1
 600 100 l 1
 550 100 l 1
 550 150 l 1
 600 150 l 1
500 150 m 1
 500 100 l 1
 450 100 l 1
 450 150 l 1
 500 150 l 1
400 150 m 1
 400 100 l 1
 350 100 l 1
 350 150 l 1
 400 150 l 1
300 150 m 1
 300 100 l 1
 250 100 l 1
 250 150 l 1
 300 150 l 1
200 150 m 1
 200 100 l 1
 150 100 l 1
 150 150 l 1
 200 150 l 1
100 150 m 1
 100 100 l 1
 50 100 l 1
 50 150 l 1
 100 150 l 1
950 200 m 1
 950 150 l 1
 900 150 l 1
 900 200 l 1
 950 200 l 1
850 200 m 1
 850 150 l 1
 800 150 l 1
 800 200 l 1
 850 200 l 1
750 200 m 1
 750 150 l 1
 700 150 l 1
 700 200 l 1
 750 200 l 1
650 200 m 1
 650 150 l 1
 600 150 l 1
 600 200 l 1
 650 200 l 1
550 200 m 1
 550 150 l 1
 500 150 l 1
 500 200 l 1
 550 200 l 1
450 200 m 1
 450 150 l 1
 400 150 l 1
 400 200 l 1
 450 200 l 1
350 200 m 1
 350 150 l 1
 300 150 l 1
 300 200 l 1
 350 200 l 1
250 200 m 1
 250 150 l 1
 200 150 l 1
 200 200 l 1
 250 200 l 1
150 200 m 1
 150 150 l 1
 100 150 l 1
 100 200 l 1
 150 200 l 1
50 200 m 1
 50 150 l 1
 0 150 l 1
 0 200 l 1
 50 200 l 1
950 250 m 1
 1000 250 l 1
 1000 200 l 1
 950 200 l 1
 950 250 l 1
900 250 m 1
 900 200 l 1
 850 200 l 1
 850 250 l 1
 900 250 l 1
900 250 m 1
 900 300 l 1
 950 300 l 1
 950 250 l 1
 900 250 l 1
800 250 m 1
 800 200 l 1
 750 200 l 1
 750 250 l 1
 800 250 l 1
800 250 m 1
 800 300 l 1
 850 300 l 1
 850 250 l 1
 800 250 l 1
700 250 m 1
 700 200 l 1
 650 200 l 1
 650 250 l 1
 700 250 l 1
700 250 m 1
 700 300 l 1
 750 300 l 1
 750 250 l 1
 700 250 l 1
600 250 m 1
 600 200 l 1
 550 200 l 1
 550 250 l 1
 600 250 l 1
600 250 m 1
 600 300 l 1
 650 300 l 1
 650 250 l 1
 600 250 l 1
500 250 m 1
 500 200 l 1
 450 200 l 1
 450 250 l 1
 500 250 l 1
500 250 m 1
 500 300 l 1
 550 300 l 1
 550 250 l 1
 500 250 l 1
400 250 m 1
 400 200 l 1
 350 200 l 1
 350 250 l 1
 400 250 l 1
400 250 m 1
 400 300 l 1
 450 300 l 1
 450 250 l 1
 400 250 l 1
300 250 m 1
 300 200 l 1
 250 200 l 1
 250 250 l 1
 300 250 l 1
300 250 m 1
 300 300 l 1
 350 300 l 1
 350 250 l 1
 300 250 l 1
200 250 m 1
 200 200 l 1
 150 200 l 1
 150 250 l 1
 200 250 l 1
200 250 m 1
 200 300 l 1
 250 300 l 1
 250 250 l 1
 200 250 l 1
100 250 m 1
 100 200 l 1
 50 200 l 1
 50 250 l 1
 0 250 l 1
 0 300 l 1
 50 300 l 1
 50 250 l 1
 100 250 l 1
100 250 m 1
 100 300 l 1
 150 300 l 1
 150 250 l 1
 100 250 l 1
EndSplineSet
EndChar

StartChar: u1FB90
Encoding: 129936 129936 317
Width: 1000
Flags: HW
LayerCount: 2
Fore
SplineSet
900 -150 m 1
 950 -150 l 1
 950 -200 l 1
 900 -200 l 1
 900 -150 l 1
800 -150 m 1
 850 -150 l 1
 850 -200 l 1
 800 -200 l 1
 800 -150 l 1
700 -150 m 1
 750 -150 l 1
 750 -200 l 1
 700 -200 l 1
 700 -150 l 1
600 -150 m 1
 650 -150 l 1
 650 -200 l 1
 600 -200 l 1
 600 -150 l 1
500 -150 m 1
 550 -150 l 1
 550 -200 l 1
 500 -200 l 1
 500 -150 l 1
400 -150 m 1
 450 -150 l 1
 450 -200 l 1
 400 -200 l 1
 400 -150 l 1
300 -150 m 1
 350 -150 l 1
 350 -200 l 1
 300 -200 l 1
 300 -150 l 1
200 -150 m 1
 250 -150 l 1
 250 -200 l 1
 200 -200 l 1
 200 -150 l 1
100 -150 m 1
 150 -150 l 1
 150 -200 l 1
 100 -200 l 1
 100 -150 l 1
0 -150 m 1
 50 -150 l 1
 50 -200 l 1
 0 -200 l 1
 0 -150 l 1
950 -100 m 1
 1000 -100 l 1
 1000 -150 l 1
 950 -150 l 1
 950 -100 l 1
850 -100 m 1
 900 -100 l 1
 900 -150 l 1
 850 -150 l 1
 850 -100 l 1
750 -100 m 1
 800 -100 l 1
 800 -150 l 1
 750 -150 l 1
 750 -100 l 1
650 -100 m 1
 700 -100 l 1
 700 -150 l 1
 650 -150 l 1
 650 -100 l 1
550 -100 m 1
 600 -100 l 1
 600 -150 l 1
 550 -150 l 1
 550 -100 l 1
450 -100 m 1
 500 -100 l 1
 500 -150 l 1
 450 -150 l 1
 450 -100 l 1
350 -100 m 1
 400 -100 l 1
 400 -150 l 1
 350 -150 l 1
 350 -100 l 1
250 -100 m 1
 300 -100 l 1
 300 -150 l 1
 250 -150 l 1
 250 -100 l 1
150 -100 m 1
 200 -100 l 1
 200 -150 l 1
 150 -150 l 1
 150 -100 l 1
50 -100 m 1
 100 -100 l 1
 100 -150 l 1
 50 -150 l 1
 50 -100 l 1
900 -50 m 1
 950 -50 l 1
 950 -100 l 1
 900 -100 l 1
 900 -50 l 1
800 -50 m 1
 850 -50 l 1
 850 -100 l 1
 800 -100 l 1
 800 -50 l 1
700 -50 m 1
 750 -50 l 1
 750 -100 l 1
 700 -100 l 1
 700 -50 l 1
600 -50 m 1
 650 -50 l 1
 650 -100 l 1
 600 -100 l 1
 600 -50 l 1
500 -50 m 1
 550 -50 l 1
 550 -100 l 1
 500 -100 l 1
 500 -50 l 1
400 -50 m 1
 450 -50 l 1
 450 -100 l 1
 400 -100 l 1
 400 -50 l 1
300 -50 m 1
 350 -50 l 1
 350 -100 l 1
 300 -100 l 1
 300 -50 l 1
200 -50 m 1
 250 -50 l 1
 250 -100 l 1
 200 -100 l 1
 200 -50 l 1
100 -50 m 1
 150 -50 l 1
 150 -100 l 1
 100 -100 l 1
 100 -50 l 1
0 -50 m 1
 50 -50 l 1
 50 -100 l 1
 0 -100 l 1
 0 -50 l 1
950 0 m 1
 1000 0 l 1
 1000 -50 l 1
 950 -50 l 1
 950 0 l 1
850 0 m 1
 900 0 l 1
 900 -50 l 1
 850 -50 l 1
 850 0 l 1
750 0 m 1
 800 0 l 1
 800 -50 l 1
 750 -50 l 1
 750 0 l 1
650 0 m 1
 700 0 l 1
 700 -50 l 1
 650 -50 l 1
 650 0 l 1
550 0 m 1
 600 0 l 1
 600 -50 l 1
 550 -50 l 1
 550 0 l 1
450 0 m 1
 500 0 l 1
 500 -50 l 1
 450 -50 l 1
 450 0 l 1
350 0 m 1
 400 0 l 1
 400 -50 l 1
 350 -50 l 1
 350 0 l 1
250 0 m 1
 300 0 l 1
 300 -50 l 1
 250 -50 l 1
 250 0 l 1
150 0 m 1
 200 0 l 1
 200 -50 l 1
 150 -50 l 1
 150 0 l 1
50 0 m 1
 100 0 l 1
 100 -50 l 1
 50 -50 l 1
 50 0 l 1
900 50 m 1
 950 50 l 1
 950 0 l 1
 900 0 l 1
 900 50 l 1
800 50 m 1
 850 50 l 1
 850 0 l 1
 800 0 l 1
 800 50 l 1
700 50 m 1
 750 50 l 1
 750 0 l 1
 700 0 l 1
 700 50 l 1
600 50 m 1
 650 50 l 1
 650 0 l 1
 600 0 l 1
 600 50 l 1
500 50 m 1
 550 50 l 1
 550 0 l 1
 500 0 l 1
 500 50 l 1
400 50 m 1
 450 50 l 1
 450 0 l 1
 400 0 l 1
 400 50 l 1
300 50 m 1
 350 50 l 1
 350 0 l 1
 300 0 l 1
 300 50 l 1
200 50 m 1
 250 50 l 1
 250 0 l 1
 200 0 l 1
 200 50 l 1
100 50 m 1
 150 50 l 1
 150 0 l 1
 100 0 l 1
 100 50 l 1
0 50 m 1
 50 50 l 1
 50 0 l 1
 0 0 l 1
 0 50 l 1
950 100 m 1
 1000 100 l 1
 1000 50 l 1
 950 50 l 1
 950 100 l 1
850 100 m 1
 900 100 l 1
 900 50 l 1
 850 50 l 1
 850 100 l 1
750 100 m 1
 800 100 l 1
 800 50 l 1
 750 50 l 1
 750 100 l 1
650 100 m 1
 700 100 l 1
 700 50 l 1
 650 50 l 1
 650 100 l 1
550 100 m 1
 600 100 l 1
 600 50 l 1
 550 50 l 1
 550 100 l 1
450 100 m 1
 500 100 l 1
 500 50 l 1
 450 50 l 1
 450 100 l 1
350 100 m 1
 400 100 l 1
 400 50 l 1
 350 50 l 1
 350 100 l 1
250 100 m 1
 300 100 l 1
 300 50 l 1
 250 50 l 1
 250 100 l 1
150 100 m 1
 200 100 l 1
 200 50 l 1
 150 50 l 1
 150 100 l 1
50 100 m 1
 100 100 l 1
 100 50 l 1
 50 50 l 1
 50 100 l 1
900 150 m 1
 950 150 l 1
 950 100 l 1
 900 100 l 1
 900 150 l 1
800 150 m 1
 850 150 l 1
 850 100 l 1
 800 100 l 1
 800 150 l 1
700 150 m 1
 750 150 l 1
 750 100 l 1
 700 100 l 1
 700 150 l 1
600 150 m 1
 650 150 l 1
 650 100 l 1
 600 100 l 1
 600 150 l 1
500 150 m 1
 550 150 l 1
 550 100 l 1
 500 100 l 1
 500 150 l 1
400 150 m 1
 450 150 l 1
 450 100 l 1
 400 100 l 1
 400 150 l 1
300 150 m 1
 350 150 l 1
 350 100 l 1
 300 100 l 1
 300 150 l 1
200 150 m 1
 250 150 l 1
 250 100 l 1
 200 100 l 1
 200 150 l 1
100 150 m 1
 150 150 l 1
 150 100 l 1
 100 100 l 1
 100 150 l 1
0 150 m 1
 50 150 l 1
 50 100 l 1
 0 100 l 1
 0 150 l 1
950 200 m 1
 1000 200 l 1
 1000 150 l 1
 950 150 l 1
 950 200 l 1
850 200 m 1
 900 200 l 1
 900 150 l 1
 850 150 l 1
 850 200 l 1
750 200 m 1
 800 200 l 1
 800 150 l 1
 750 150 l 1
 750 200 l 1
650 200 m 1
 700 200 l 1
 700 150 l 1
 650 150 l 1
 650 200 l 1
550 200 m 1
 600 200 l 1
 600 150 l 1
 550 150 l 1
 550 200 l 1
450 200 m 1
 500 200 l 1
 500 150 l 1
 450 150 l 1
 450 200 l 1
350 200 m 1
 400 200 l 1
 400 150 l 1
 350 150 l 1
 350 200 l 1
250 200 m 1
 300 200 l 1
 300 150 l 1
 250 150 l 1
 250 200 l 1
150 200 m 1
 200 200 l 1
 200 150 l 1
 150 150 l 1
 150 200 l 1
50 200 m 1
 100 200 l 1
 100 150 l 1
 50 150 l 1
 50 200 l 1
900 250 m 1
 950 250 l 1
 950 200 l 1
 900 200 l 1
 900 250 l 1
800 250 m 1
 850 250 l 1
 850 200 l 1
 800 200 l 1
 800 250 l 1
700 250 m 1
 750 250 l 1
 750 200 l 1
 700 200 l 1
 700 250 l 1
600 250 m 1
 650 250 l 1
 650 200 l 1
 600 200 l 1
 600 250 l 1
500 250 m 1
 550 250 l 1
 550 200 l 1
 500 200 l 1
 500 250 l 1
400 250 m 1
 450 250 l 1
 450 200 l 1
 400 200 l 1
 400 250 l 1
300 250 m 1
 350 250 l 1
 350 200 l 1
 300 200 l 1
 300 250 l 1
200 250 m 1
 250 250 l 1
 250 200 l 1
 200 200 l 1
 200 250 l 1
100 250 m 1
 150 250 l 1
 150 200 l 1
 100 200 l 1
 100 250 l 1
0 250 m 1
 50 250 l 1
 50 200 l 1
 0 200 l 1
 0 250 l 1
950 300 m 1
 1000 300 l 1
 1000 250 l 1
 950 250 l 1
 950 300 l 1
850 300 m 1
 900 300 l 1
 900 250 l 1
 850 250 l 1
 850 300 l 1
750 300 m 1
 800 300 l 1
 800 250 l 1
 750 250 l 1
 750 300 l 1
650 300 m 1
 700 300 l 1
 700 250 l 1
 650 250 l 1
 650 300 l 1
550 300 m 1
 600 300 l 1
 600 250 l 1
 550 250 l 1
 550 300 l 1
450 300 m 1
 500 300 l 1
 500 250 l 1
 450 250 l 1
 450 300 l 1
350 300 m 1
 400 300 l 1
 400 250 l 1
 350 250 l 1
 350 300 l 1
250 300 m 1
 300 300 l 1
 300 250 l 1
 250 250 l 1
 250 300 l 1
150 300 m 1
 200 300 l 1
 200 250 l 1
 150 250 l 1
 150 300 l 1
50 300 m 1
 100 300 l 1
 100 250 l 1
 50 250 l 1
 50 300 l 1
900 350 m 1
 950 350 l 1
 950 300 l 1
 900 300 l 1
 900 350 l 1
800 350 m 1
 850 350 l 1
 850 300 l 1
 800 300 l 1
 800 350 l 1
700 350 m 1
 750 350 l 1
 750 300 l 1
 700 300 l 1
 700 350 l 1
600 350 m 1
 650 350 l 1
 650 300 l 1
 600 300 l 1
 600 350 l 1
500 350 m 1
 550 350 l 1
 550 300 l 1
 500 300 l 1
 500 350 l 1
400 350 m 1
 450 350 l 1
 450 300 l 1
 400 300 l 1
 400 350 l 1
300 350 m 1
 350 350 l 1
 350 300 l 1
 300 300 l 1
 300 350 l 1
200 350 m 1
 250 350 l 1
 250 300 l 1
 200 300 l 1
 200 350 l 1
100 350 m 1
 150 350 l 1
 150 300 l 1
 100 300 l 1
 100 350 l 1
0 350 m 1
 50 350 l 1
 50 300 l 1
 0 300 l 1
 0 350 l 1
950 400 m 1
 1000 400 l 1
 1000 350 l 1
 950 350 l 1
 950 400 l 1
850 400 m 1
 900 400 l 1
 900 350 l 1
 850 350 l 1
 850 400 l 1
750 400 m 1
 800 400 l 1
 800 350 l 1
 750 350 l 1
 750 400 l 1
650 400 m 1
 700 400 l 1
 700 350 l 1
 650 350 l 1
 650 400 l 1
550 400 m 1
 600 400 l 1
 600 350 l 1
 550 350 l 1
 550 400 l 1
450 400 m 1
 500 400 l 1
 500 350 l 1
 450 350 l 1
 450 400 l 1
350 400 m 1
 400 400 l 1
 400 350 l 1
 350 350 l 1
 350 400 l 1
250 400 m 1
 300 400 l 1
 300 350 l 1
 250 350 l 1
 250 400 l 1
150 400 m 1
 200 400 l 1
 200 350 l 1
 150 350 l 1
 150 400 l 1
50 400 m 1
 100 400 l 1
 100 350 l 1
 50 350 l 1
 50 400 l 1
900 450 m 1
 950 450 l 1
 950 400 l 1
 900 400 l 1
 900 450 l 1
800 450 m 1
 850 450 l 1
 850 400 l 1
 800 400 l 1
 800 450 l 1
700 450 m 1
 750 450 l 1
 750 400 l 1
 700 400 l 1
 700 450 l 1
600 450 m 1
 650 450 l 1
 650 400 l 1
 600 400 l 1
 600 450 l 1
500 450 m 1
 550 450 l 1
 550 400 l 1
 500 400 l 1
 500 450 l 1
400 450 m 1
 450 450 l 1
 450 400 l 1
 400 400 l 1
 400 450 l 1
300 450 m 1
 350 450 l 1
 350 400 l 1
 300 400 l 1
 300 450 l 1
200 450 m 1
 250 450 l 1
 250 400 l 1
 200 400 l 1
 200 450 l 1
100 450 m 1
 150 450 l 1
 150 400 l 1
 100 400 l 1
 100 450 l 1
0 450 m 1
 50 450 l 1
 50 400 l 1
 0 400 l 1
 0 450 l 1
950 500 m 1
 1000 500 l 1
 1000 450 l 1
 950 450 l 1
 950 500 l 1
850 500 m 1
 900 500 l 1
 900 450 l 1
 850 450 l 1
 850 500 l 1
750 500 m 1
 800 500 l 1
 800 450 l 1
 750 450 l 1
 750 500 l 1
650 500 m 1
 700 500 l 1
 700 450 l 1
 650 450 l 1
 650 500 l 1
550 500 m 1
 600 500 l 1
 600 450 l 1
 550 450 l 1
 550 500 l 1
450 500 m 1
 500 500 l 1
 500 450 l 1
 450 450 l 1
 450 500 l 1
350 500 m 1
 400 500 l 1
 400 450 l 1
 350 450 l 1
 350 500 l 1
250 500 m 1
 300 500 l 1
 300 450 l 1
 250 450 l 1
 250 500 l 1
150 500 m 1
 200 500 l 1
 200 450 l 1
 150 450 l 1
 150 500 l 1
50 500 m 1
 100 500 l 1
 100 450 l 1
 50 450 l 1
 50 500 l 1
900 550 m 1
 950 550 l 1
 950 500 l 1
 900 500 l 1
 900 550 l 1
800 550 m 1
 850 550 l 1
 850 500 l 1
 800 500 l 1
 800 550 l 1
700 550 m 1
 750 550 l 1
 750 500 l 1
 700 500 l 1
 700 550 l 1
600 550 m 1
 650 550 l 1
 650 500 l 1
 600 500 l 1
 600 550 l 1
500 550 m 1
 550 550 l 1
 550 500 l 1
 500 500 l 1
 500 550 l 1
400 550 m 1
 450 550 l 1
 450 500 l 1
 400 500 l 1
 400 550 l 1
300 550 m 1
 350 550 l 1
 350 500 l 1
 300 500 l 1
 300 550 l 1
200 550 m 1
 250 550 l 1
 250 500 l 1
 200 500 l 1
 200 550 l 1
100 550 m 1
 150 550 l 1
 150 500 l 1
 100 500 l 1
 100 550 l 1
0 550 m 1
 50 550 l 1
 50 500 l 1
 0 500 l 1
 0 550 l 1
950 600 m 1
 1000 600 l 1
 1000 550 l 1
 950 550 l 1
 950 600 l 1
850 600 m 1
 900 600 l 1
 900 550 l 1
 850 550 l 1
 850 600 l 1
750 600 m 1
 800 600 l 1
 800 550 l 1
 750 550 l 1
 750 600 l 1
650 600 m 1
 700 600 l 1
 700 550 l 1
 650 550 l 1
 650 600 l 1
550 600 m 1
 600 600 l 1
 600 550 l 1
 550 550 l 1
 550 600 l 1
450 600 m 1
 500 600 l 1
 500 550 l 1
 450 550 l 1
 450 600 l 1
350 600 m 1
 400 600 l 1
 400 550 l 1
 350 550 l 1
 350 600 l 1
250 600 m 1
 300 600 l 1
 300 550 l 1
 250 550 l 1
 250 600 l 1
150 600 m 1
 200 600 l 1
 200 550 l 1
 150 550 l 1
 150 600 l 1
50 600 m 1
 100 600 l 1
 100 550 l 1
 50 550 l 1
 50 600 l 1
900 650 m 1
 950 650 l 1
 950 600 l 1
 900 600 l 1
 900 650 l 1
800 650 m 1
 850 650 l 1
 850 600 l 1
 800 600 l 1
 800 650 l 1
700 650 m 1
 750 650 l 1
 750 600 l 1
 700 600 l 1
 700 650 l 1
600 650 m 1
 650 650 l 1
 650 600 l 1
 600 600 l 1
 600 650 l 1
500 650 m 1
 550 650 l 1
 550 600 l 1
 500 600 l 1
 500 650 l 1
400 650 m 1
 450 650 l 1
 450 600 l 1
 400 600 l 1
 400 650 l 1
300 650 m 1
 350 650 l 1
 350 600 l 1
 300 600 l 1
 300 650 l 1
200 650 m 1
 250 650 l 1
 250 600 l 1
 200 600 l 1
 200 650 l 1
100 650 m 1
 150 650 l 1
 150 600 l 1
 100 600 l 1
 100 650 l 1
0 650 m 1
 50 650 l 1
 50 600 l 1
 0 600 l 1
 0 650 l 1
950 700 m 1
 1000 700 l 1
 1000 650 l 1
 950 650 l 1
 950 700 l 1
850 700 m 1
 900 700 l 1
 900 650 l 1
 850 650 l 1
 850 700 l 1
750 700 m 1
 800 700 l 1
 800 650 l 1
 750 650 l 1
 750 700 l 1
650 700 m 1
 700 700 l 1
 700 650 l 1
 650 650 l 1
 650 700 l 1
550 700 m 1
 600 700 l 1
 600 650 l 1
 550 650 l 1
 550 700 l 1
450 700 m 1
 500 700 l 1
 500 650 l 1
 450 650 l 1
 450 700 l 1
350 700 m 1
 400 700 l 1
 400 650 l 1
 350 650 l 1
 350 700 l 1
250 700 m 1
 300 700 l 1
 300 650 l 1
 250 650 l 1
 250 700 l 1
150 700 m 1
 200 700 l 1
 200 650 l 1
 150 650 l 1
 150 700 l 1
50 700 m 1
 100 700 l 1
 100 650 l 1
 50 650 l 1
 50 700 l 1
900 750 m 1
 950 750 l 1
 950 700 l 1
 900 700 l 1
 900 750 l 1
800 750 m 1
 850 750 l 1
 850 700 l 1
 800 700 l 1
 800 750 l 1
700 750 m 1
 750 750 l 1
 750 700 l 1
 700 700 l 1
 700 750 l 1
600 750 m 1
 650 750 l 1
 650 700 l 1
 600 700 l 1
 600 750 l 1
500 750 m 1
 550 750 l 1
 550 700 l 1
 500 700 l 1
 500 750 l 1
400 750 m 1
 450 750 l 1
 450 700 l 1
 400 700 l 1
 400 750 l 1
300 750 m 1
 350 750 l 1
 350 700 l 1
 300 700 l 1
 300 750 l 1
200 750 m 1
 250 750 l 1
 250 700 l 1
 200 700 l 1
 200 750 l 1
100 750 m 1
 150 750 l 1
 150 700 l 1
 100 700 l 1
 100 750 l 1
0 750 m 1
 50 750 l 1
 50 700 l 1
 0 700 l 1
 0 750 l 1
950 800 m 1
 1000 800 l 1
 1000 750 l 1
 950 750 l 1
 950 800 l 1
850 800 m 1
 900 800 l 1
 900 750 l 1
 850 750 l 1
 850 800 l 1
750 800 m 1
 800 800 l 1
 800 750 l 1
 750 750 l 1
 750 800 l 1
650 800 m 1
 700 800 l 1
 700 750 l 1
 650 750 l 1
 650 800 l 1
550 800 m 1
 600 800 l 1
 600 750 l 1
 550 750 l 1
 550 800 l 1
450 800 m 1
 500 800 l 1
 500 750 l 1
 450 750 l 1
 450 800 l 1
350 800 m 1
 400 800 l 1
 400 750 l 1
 350 750 l 1
 350 800 l 1
250 800 m 1
 300 800 l 1
 300 750 l 1
 250 750 l 1
 250 800 l 1
150 800 m 1
 200 800 l 1
 200 750 l 1
 150 750 l 1
 150 800 l 1
50 800 m 1
 100 800 l 1
 100 750 l 1
 50 750 l 1
 50 800 l 1
EndSplineSet
EndChar

StartChar: u1FB91
Encoding: 129937 129937 318
Width: 1000
Flags: HW
LayerCount: 2
Fore
SplineSet
950 -150 m 1
 950 -200 l 1
 900 -200 l 1
 900 -150 l 1
 950 -150 l 1
850 -150 m 1
 850 -200 l 1
 800 -200 l 1
 800 -150 l 1
 850 -150 l 1
750 -150 m 1
 750 -200 l 1
 700 -200 l 1
 700 -150 l 1
 750 -150 l 1
650 -150 m 1
 650 -200 l 1
 600 -200 l 1
 600 -150 l 1
 650 -150 l 1
550 -150 m 1
 550 -200 l 1
 500 -200 l 1
 500 -150 l 1
 550 -150 l 1
450 -150 m 1
 450 -200 l 1
 400 -200 l 1
 400 -150 l 1
 450 -150 l 1
350 -150 m 1
 350 -200 l 1
 300 -200 l 1
 300 -150 l 1
 350 -150 l 1
250 -150 m 1
 250 -200 l 1
 200 -200 l 1
 200 -150 l 1
 250 -150 l 1
150 -150 m 1
 150 -200 l 1
 100 -200 l 1
 100 -150 l 1
 150 -150 l 1
50 -150 m 1
 50 -200 l 1
 0 -200 l 1
 0 -150 l 1
 50 -150 l 1
950 -100 m 1
 1000 -100 l 1
 1000 -150 l 1
 950 -150 l 1
 950 -100 l 1
900 -100 m 1
 900 -150 l 1
 850 -150 l 1
 850 -100 l 1
 900 -100 l 1
800 -100 m 1
 800 -150 l 1
 750 -150 l 1
 750 -100 l 1
 800 -100 l 1
700 -100 m 1
 700 -150 l 1
 650 -150 l 1
 650 -100 l 1
 700 -100 l 1
600 -100 m 1
 600 -150 l 1
 550 -150 l 1
 550 -100 l 1
 600 -100 l 1
500 -100 m 1
 500 -150 l 1
 450 -150 l 1
 450 -100 l 1
 500 -100 l 1
400 -100 m 1
 400 -150 l 1
 350 -150 l 1
 350 -100 l 1
 400 -100 l 1
300 -100 m 1
 300 -150 l 1
 250 -150 l 1
 250 -100 l 1
 300 -100 l 1
200 -100 m 1
 200 -150 l 1
 150 -150 l 1
 150 -100 l 1
 200 -100 l 1
100 -100 m 1
 100 -150 l 1
 50 -150 l 1
 50 -100 l 1
 100 -100 l 1
950 -50 m 1
 950 -100 l 1
 900 -100 l 1
 900 -50 l 1
 950 -50 l 1
850 -50 m 1
 850 -100 l 1
 800 -100 l 1
 800 -50 l 1
 850 -50 l 1
750 -50 m 1
 750 -100 l 1
 700 -100 l 1
 700 -50 l 1
 750 -50 l 1
650 -50 m 1
 650 -100 l 1
 600 -100 l 1
 600 -50 l 1
 650 -50 l 1
550 -50 m 1
 550 -100 l 1
 500 -100 l 1
 500 -50 l 1
 550 -50 l 1
450 -50 m 1
 450 -100 l 1
 400 -100 l 1
 400 -50 l 1
 450 -50 l 1
350 -50 m 1
 350 -100 l 1
 300 -100 l 1
 300 -50 l 1
 350 -50 l 1
250 -50 m 1
 250 -100 l 1
 200 -100 l 1
 200 -50 l 1
 250 -50 l 1
150 -50 m 1
 150 -100 l 1
 100 -100 l 1
 100 -50 l 1
 150 -50 l 1
50 -50 m 1
 50 -100 l 1
 0 -100 l 1
 0 -50 l 1
 50 -50 l 1
950 0 m 1
 1000 0 l 1
 1000 -50 l 1
 950 -50 l 1
 950 0 l 1
900 0 m 1
 900 -50 l 1
 850 -50 l 1
 850 0 l 1
 900 0 l 1
800 0 m 1
 800 -50 l 1
 750 -50 l 1
 750 0 l 1
 800 0 l 1
700 0 m 1
 700 -50 l 1
 650 -50 l 1
 650 0 l 1
 700 0 l 1
600 0 m 1
 600 -50 l 1
 550 -50 l 1
 550 0 l 1
 600 0 l 1
500 0 m 1
 500 -50 l 1
 450 -50 l 1
 450 0 l 1
 500 0 l 1
400 0 m 1
 400 -50 l 1
 350 -50 l 1
 350 0 l 1
 400 0 l 1
300 0 m 1
 300 -50 l 1
 250 -50 l 1
 250 0 l 1
 300 0 l 1
200 0 m 1
 200 -50 l 1
 150 -50 l 1
 150 0 l 1
 200 0 l 1
100 0 m 1
 100 -50 l 1
 50 -50 l 1
 50 0 l 1
 100 0 l 1
950 50 m 1
 950 0 l 1
 900 0 l 1
 900 50 l 1
 950 50 l 1
850 50 m 1
 850 0 l 1
 800 0 l 1
 800 50 l 1
 850 50 l 1
750 50 m 1
 750 0 l 1
 700 0 l 1
 700 50 l 1
 750 50 l 1
650 50 m 1
 650 0 l 1
 600 0 l 1
 600 50 l 1
 650 50 l 1
550 50 m 1
 550 0 l 1
 500 0 l 1
 500 50 l 1
 550 50 l 1
450 50 m 1
 450 0 l 1
 400 0 l 1
 400 50 l 1
 450 50 l 1
350 50 m 1
 350 0 l 1
 300 0 l 1
 300 50 l 1
 350 50 l 1
250 50 m 1
 250 0 l 1
 200 0 l 1
 200 50 l 1
 250 50 l 1
150 50 m 1
 150 0 l 1
 100 0 l 1
 100 50 l 1
 150 50 l 1
50 50 m 1
 50 0 l 1
 0 0 l 1
 0 50 l 1
 50 50 l 1
950 100 m 1
 1000 100 l 1
 1000 50 l 1
 950 50 l 1
 950 100 l 1
900 100 m 1
 900 50 l 1
 850 50 l 1
 850 100 l 1
 900 100 l 1
800 100 m 1
 800 50 l 1
 750 50 l 1
 750 100 l 1
 800 100 l 1
700 100 m 1
 700 50 l 1
 650 50 l 1
 650 100 l 1
 700 100 l 1
600 100 m 1
 600 50 l 1
 550 50 l 1
 550 100 l 1
 600 100 l 1
500 100 m 1
 500 50 l 1
 450 50 l 1
 450 100 l 1
 500 100 l 1
400 100 m 1
 400 50 l 1
 350 50 l 1
 350 100 l 1
 400 100 l 1
300 100 m 1
 300 50 l 1
 250 50 l 1
 250 100 l 1
 300 100 l 1
200 100 m 1
 200 50 l 1
 150 50 l 1
 150 100 l 1
 200 100 l 1
100 100 m 1
 100 50 l 1
 50 50 l 1
 50 100 l 1
 100 100 l 1
950 150 m 1
 950 100 l 1
 900 100 l 1
 900 150 l 1
 950 150 l 1
850 150 m 1
 850 100 l 1
 800 100 l 1
 800 150 l 1
 850 150 l 1
750 150 m 1
 750 100 l 1
 700 100 l 1
 700 150 l 1
 750 150 l 1
650 150 m 1
 650 100 l 1
 600 100 l 1
 600 150 l 1
 650 150 l 1
550 150 m 1
 550 100 l 1
 500 100 l 1
 500 150 l 1
 550 150 l 1
450 150 m 1
 450 100 l 1
 400 100 l 1
 400 150 l 1
 450 150 l 1
350 150 m 1
 350 100 l 1
 300 100 l 1
 300 150 l 1
 350 150 l 1
250 150 m 1
 250 100 l 1
 200 100 l 1
 200 150 l 1
 250 150 l 1
150 150 m 1
 150 100 l 1
 100 100 l 1
 100 150 l 1
 150 150 l 1
50 150 m 1
 50 100 l 1
 0 100 l 1
 0 150 l 1
 50 150 l 1
950 200 m 1
 1000 200 l 1
 1000 150 l 1
 950 150 l 1
 950 200 l 1
900 200 m 1
 900 150 l 1
 850 150 l 1
 850 200 l 1
 900 200 l 1
800 200 m 1
 800 150 l 1
 750 150 l 1
 750 200 l 1
 800 200 l 1
700 200 m 1
 700 150 l 1
 650 150 l 1
 650 200 l 1
 700 200 l 1
600 200 m 1
 600 150 l 1
 550 150 l 1
 550 200 l 1
 600 200 l 1
500 200 m 1
 500 150 l 1
 450 150 l 1
 450 200 l 1
 500 200 l 1
400 200 m 1
 400 150 l 1
 350 150 l 1
 350 200 l 1
 400 200 l 1
300 200 m 1
 300 150 l 1
 250 150 l 1
 250 200 l 1
 300 200 l 1
200 200 m 1
 200 150 l 1
 150 150 l 1
 150 200 l 1
 200 200 l 1
100 200 m 1
 100 150 l 1
 50 150 l 1
 50 200 l 1
 100 200 l 1
950 250 m 1
 950 200 l 1
 900 200 l 1
 900 250 l 1
 950 250 l 1
850 250 m 1
 850 200 l 1
 800 200 l 1
 800 250 l 1
 850 250 l 1
750 250 m 1
 750 200 l 1
 700 200 l 1
 700 250 l 1
 750 250 l 1
650 250 m 1
 650 200 l 1
 600 200 l 1
 600 250 l 1
 650 250 l 1
550 250 m 1
 550 200 l 1
 500 200 l 1
 500 250 l 1
 550 250 l 1
450 250 m 1
 450 200 l 1
 400 200 l 1
 400 250 l 1
 450 250 l 1
350 250 m 1
 350 200 l 1
 300 200 l 1
 300 250 l 1
 350 250 l 1
250 250 m 1
 250 200 l 1
 200 200 l 1
 200 250 l 1
 250 250 l 1
150 250 m 1
 150 200 l 1
 100 200 l 1
 100 250 l 1
 150 250 l 1
50 250 m 1
 50 200 l 1
 0 200 l 1
 0 250 l 1
 50 250 l 1
50 250 m 1
 50 300 l 1
 0 300 l 1
 0 800 l 1
 1000 800 l 1
 1000 250 l 1
 950 250 l 1
 950 300 l 1
 900 300 l 1
 900 250 l 1
 850 250 l 1
 850 300 l 1
 800 300 l 1
 800 250 l 1
 750 250 l 1
 750 300 l 1
 700 300 l 1
 700 250 l 1
 650 250 l 1
 650 300 l 1
 600 300 l 1
 600 250 l 1
 550 250 l 1
 550 300 l 1
 500 300 l 1
 500 250 l 1
 450 250 l 1
 450 300 l 1
 400 300 l 1
 400 250 l 1
 350 250 l 1
 350 300 l 1
 300 300 l 1
 300 250 l 1
 250 250 l 1
 250 300 l 1
 200 300 l 1
 200 250 l 1
 150 250 l 1
 150 300 l 1
 100 300 l 1
 100 250 l 1
 50 250 l 1
EndSplineSet
EndChar

StartChar: u1FB92
Encoding: 129938 129938 319
Width: 1000
Flags: HW
LayerCount: 2
Fore
SplineSet
50 350 m 1
 50 300 l 1
 100 300 l 1
 100 350 l 1
 150 350 l 1
 150 300 l 1
 200 300 l 1
 200 350 l 1
 250 350 l 1
 250 300 l 1
 300 300 l 1
 300 350 l 1
 350 350 l 1
 350 300 l 1
 400 300 l 1
 400 350 l 1
 450 350 l 1
 450 300 l 1
 500 300 l 1
 500 350 l 1
 550 350 l 1
 550 300 l 1
 600 300 l 1
 600 350 l 1
 650 350 l 1
 650 300 l 1
 700 300 l 1
 700 350 l 1
 750 350 l 1
 750 300 l 1
 800 300 l 1
 800 350 l 1
 850 350 l 1
 850 300 l 1
 900 300 l 1
 900 350 l 1
 950 350 l 1
 950 300 l 1
 1000 300 l 1
 1000 -200 l 1
 0 -200 l 1
 0 350 l 1
 50 350 l 1
950 400 m 1
 1000 400 l 1
 1000 350 l 1
 950 350 l 1
 950 400 l 1
900 400 m 1
 900 350 l 1
 850 350 l 1
 850 400 l 1
 900 400 l 1
800 400 m 1
 800 350 l 1
 750 350 l 1
 750 400 l 1
 800 400 l 1
700 400 m 1
 700 350 l 1
 650 350 l 1
 650 400 l 1
 700 400 l 1
600 400 m 1
 600 350 l 1
 550 350 l 1
 550 400 l 1
 600 400 l 1
500 400 m 1
 500 350 l 1
 450 350 l 1
 450 400 l 1
 500 400 l 1
400 400 m 1
 400 350 l 1
 350 350 l 1
 350 400 l 1
 400 400 l 1
300 400 m 1
 300 350 l 1
 250 350 l 1
 250 400 l 1
 300 400 l 1
200 400 m 1
 200 350 l 1
 150 350 l 1
 150 400 l 1
 200 400 l 1
100 400 m 1
 100 350 l 1
 50 350 l 1
 50 400 l 1
 100 400 l 1
950 450 m 1
 950 400 l 1
 900 400 l 1
 900 450 l 1
 950 450 l 1
850 450 m 1
 850 400 l 1
 800 400 l 1
 800 450 l 1
 850 450 l 1
750 450 m 1
 750 400 l 1
 700 400 l 1
 700 450 l 1
 750 450 l 1
650 450 m 1
 650 400 l 1
 600 400 l 1
 600 450 l 1
 650 450 l 1
550 450 m 1
 550 400 l 1
 500 400 l 1
 500 450 l 1
 550 450 l 1
450 450 m 1
 450 400 l 1
 400 400 l 1
 400 450 l 1
 450 450 l 1
350 450 m 1
 350 400 l 1
 300 400 l 1
 300 450 l 1
 350 450 l 1
250 450 m 1
 250 400 l 1
 200 400 l 1
 200 450 l 1
 250 450 l 1
150 450 m 1
 150 400 l 1
 100 400 l 1
 100 450 l 1
 150 450 l 1
50 450 m 1
 50 400 l 1
 0 400 l 1
 0 450 l 1
 50 450 l 1
950 500 m 1
 1000 500 l 1
 1000 450 l 1
 950 450 l 1
 950 500 l 1
900 500 m 1
 900 450 l 1
 850 450 l 1
 850 500 l 1
 900 500 l 1
800 500 m 1
 800 450 l 1
 750 450 l 1
 750 500 l 1
 800 500 l 1
700 500 m 1
 700 450 l 1
 650 450 l 1
 650 500 l 1
 700 500 l 1
600 500 m 1
 600 450 l 1
 550 450 l 1
 550 500 l 1
 600 500 l 1
500 500 m 1
 500 450 l 1
 450 450 l 1
 450 500 l 1
 500 500 l 1
400 500 m 1
 400 450 l 1
 350 450 l 1
 350 500 l 1
 400 500 l 1
300 500 m 1
 300 450 l 1
 250 450 l 1
 250 500 l 1
 300 500 l 1
200 500 m 1
 200 450 l 1
 150 450 l 1
 150 500 l 1
 200 500 l 1
100 500 m 1
 100 450 l 1
 50 450 l 1
 50 500 l 1
 100 500 l 1
950 550 m 1
 950 500 l 1
 900 500 l 1
 900 550 l 1
 950 550 l 1
850 550 m 1
 850 500 l 1
 800 500 l 1
 800 550 l 1
 850 550 l 1
750 550 m 1
 750 500 l 1
 700 500 l 1
 700 550 l 1
 750 550 l 1
650 550 m 1
 650 500 l 1
 600 500 l 1
 600 550 l 1
 650 550 l 1
550 550 m 1
 550 500 l 1
 500 500 l 1
 500 550 l 1
 550 550 l 1
450 550 m 1
 450 500 l 1
 400 500 l 1
 400 550 l 1
 450 550 l 1
350 550 m 1
 350 500 l 1
 300 500 l 1
 300 550 l 1
 350 550 l 1
250 550 m 1
 250 500 l 1
 200 500 l 1
 200 550 l 1
 250 550 l 1
150 550 m 1
 150 500 l 1
 100 500 l 1
 100 550 l 1
 150 550 l 1
50 550 m 1
 50 500 l 1
 0 500 l 1
 0 550 l 1
 50 550 l 1
950 600 m 1
 1000 600 l 1
 1000 550 l 1
 950 550 l 1
 950 600 l 1
900 600 m 1
 900 550 l 1
 850 550 l 1
 850 600 l 1
 900 600 l 1
800 600 m 1
 800 550 l 1
 750 550 l 1
 750 600 l 1
 800 600 l 1
700 600 m 1
 700 550 l 1
 650 550 l 1
 650 600 l 1
 700 600 l 1
600 600 m 1
 600 550 l 1
 550 550 l 1
 550 600 l 1
 600 600 l 1
500 600 m 1
 500 550 l 1
 450 550 l 1
 450 600 l 1
 500 600 l 1
400 600 m 1
 400 550 l 1
 350 550 l 1
 350 600 l 1
 400 600 l 1
300 600 m 1
 300 550 l 1
 250 550 l 1
 250 600 l 1
 300 600 l 1
200 600 m 1
 200 550 l 1
 150 550 l 1
 150 600 l 1
 200 600 l 1
100 600 m 1
 100 550 l 1
 50 550 l 1
 50 600 l 1
 100 600 l 1
950 650 m 1
 950 600 l 1
 900 600 l 1
 900 650 l 1
 950 650 l 1
850 650 m 1
 850 600 l 1
 800 600 l 1
 800 650 l 1
 850 650 l 1
750 650 m 1
 750 600 l 1
 700 600 l 1
 700 650 l 1
 750 650 l 1
650 650 m 1
 650 600 l 1
 600 600 l 1
 600 650 l 1
 650 650 l 1
550 650 m 1
 550 600 l 1
 500 600 l 1
 500 650 l 1
 550 650 l 1
450 650 m 1
 450 600 l 1
 400 600 l 1
 400 650 l 1
 450 650 l 1
350 650 m 1
 350 600 l 1
 300 600 l 1
 300 650 l 1
 350 650 l 1
250 650 m 1
 250 600 l 1
 200 600 l 1
 200 650 l 1
 250 650 l 1
150 650 m 1
 150 600 l 1
 100 600 l 1
 100 650 l 1
 150 650 l 1
50 650 m 1
 50 600 l 1
 0 600 l 1
 0 650 l 1
 50 650 l 1
950 700 m 1
 1000 700 l 1
 1000 650 l 1
 950 650 l 1
 950 700 l 1
900 700 m 1
 900 650 l 1
 850 650 l 1
 850 700 l 1
 900 700 l 1
800 700 m 1
 800 650 l 1
 750 650 l 1
 750 700 l 1
 800 700 l 1
700 700 m 1
 700 650 l 1
 650 650 l 1
 650 700 l 1
 700 700 l 1
600 700 m 1
 600 650 l 1
 550 650 l 1
 550 700 l 1
 600 700 l 1
500 700 m 1
 500 650 l 1
 450 650 l 1
 450 700 l 1
 500 700 l 1
400 700 m 1
 400 650 l 1
 350 650 l 1
 350 700 l 1
 400 700 l 1
300 700 m 1
 300 650 l 1
 250 650 l 1
 250 700 l 1
 300 700 l 1
200 700 m 1
 200 650 l 1
 150 650 l 1
 150 700 l 1
 200 700 l 1
100 700 m 1
 100 650 l 1
 50 650 l 1
 50 700 l 1
 100 700 l 1
950 750 m 1
 950 700 l 1
 900 700 l 1
 900 750 l 1
 950 750 l 1
850 750 m 1
 850 700 l 1
 800 700 l 1
 800 750 l 1
 850 750 l 1
750 750 m 1
 750 700 l 1
 700 700 l 1
 700 750 l 1
 750 750 l 1
650 750 m 1
 650 700 l 1
 600 700 l 1
 600 750 l 1
 650 750 l 1
550 750 m 1
 550 700 l 1
 500 700 l 1
 500 750 l 1
 550 750 l 1
450 750 m 1
 450 700 l 1
 400 700 l 1
 400 750 l 1
 450 750 l 1
350 750 m 1
 350 700 l 1
 300 700 l 1
 300 750 l 1
 350 750 l 1
250 750 m 1
 250 700 l 1
 200 700 l 1
 200 750 l 1
 250 750 l 1
150 750 m 1
 150 700 l 1
 100 700 l 1
 100 750 l 1
 150 750 l 1
50 750 m 1
 50 700 l 1
 0 700 l 1
 0 750 l 1
 50 750 l 1
950 800 m 1
 1000 800 l 1
 1000 750 l 1
 950 750 l 1
 950 800 l 1
850 800 m 1
 900 800 l 1
 900 750 l 1
 850 750 l 1
 850 800 l 1
750 800 m 1
 800 800 l 1
 800 750 l 1
 750 750 l 1
 750 800 l 1
650 800 m 1
 700 800 l 1
 700 750 l 1
 650 750 l 1
 650 800 l 1
550 800 m 1
 600 800 l 1
 600 750 l 1
 550 750 l 1
 550 800 l 1
450 800 m 1
 500 800 l 1
 500 750 l 1
 450 750 l 1
 450 800 l 1
350 800 m 1
 400 800 l 1
 400 750 l 1
 350 750 l 1
 350 800 l 1
250 800 m 1
 300 800 l 1
 300 750 l 1
 250 750 l 1
 250 800 l 1
150 800 m 1
 200 800 l 1
 200 750 l 1
 150 750 l 1
 150 800 l 1
50 800 m 1
 100 800 l 1
 100 750 l 1
 50 750 l 1
 50 800 l 1
EndSplineSet
EndChar

StartChar: u1FB93
Encoding: 129939 129939 320
Width: 1000
Flags: HW
LayerCount: 2
Fore
SplineSet
950 -150 m 1
 950 -200 l 1
 900 -200 l 1
 900 -150 l 1
 950 -150 l 1
850 -150 m 1
 850 -200 l 1
 800 -200 l 1
 800 -150 l 1
 850 -150 l 1
750 -150 m 1
 750 -200 l 1
 700 -200 l 1
 700 -150 l 1
 750 -150 l 1
650 -150 m 1
 650 -200 l 1
 600 -200 l 1
 600 -150 l 1
 650 -150 l 1
950 -100 m 1
 1000 -100 l 1
 1000 -150 l 1
 950 -150 l 1
 950 -100 l 1
900 -100 m 1
 900 -150 l 1
 850 -150 l 1
 850 -100 l 1
 900 -100 l 1
800 -100 m 1
 800 -150 l 1
 750 -150 l 1
 750 -100 l 1
 800 -100 l 1
700 -100 m 1
 700 -150 l 1
 650 -150 l 1
 650 -100 l 1
 700 -100 l 1
950 -50 m 1
 950 -100 l 1
 900 -100 l 1
 900 -50 l 1
 950 -50 l 1
850 -50 m 1
 850 -100 l 1
 800 -100 l 1
 800 -50 l 1
 850 -50 l 1
750 -50 m 1
 750 -100 l 1
 700 -100 l 1
 700 -50 l 1
 750 -50 l 1
950 0 m 1
 1000 0 l 1
 1000 -50 l 1
 950 -50 l 1
 950 0 l 1
900 0 m 1
 900 -50 l 1
 850 -50 l 1
 850 0 l 1
 900 0 l 1
800 0 m 1
 800 -50 l 1
 750 -50 l 1
 750 0 l 1
 800 0 l 1
950 50 m 1
 950 0 l 1
 900 0 l 1
 900 50 l 1
 950 50 l 1
850 50 m 1
 850 0 l 1
 800 0 l 1
 800 50 l 1
 850 50 l 1
950 100 m 1
 1000 100 l 1
 1000 50 l 1
 950 50 l 1
 950 100 l 1
900 100 m 1
 900 50 l 1
 850 50 l 1
 850 100 l 1
 900 100 l 1
950 150 m 1
 950 100 l 1
 900 100 l 1
 900 150 l 1
 950 150 l 1
950 200 m 1
 1000 200 l 1
 1000 150 l 1
 950 150 l 1
 950 200 l 1
550 750 m 1
 550 700 l 1
 500 700 l 1
 500 650 l 1
 550 650 l 1
 550 700 l 1
 600 700 l 1
 600 750 l 1
 650 750 l 1
 650 700 l 1
 600 700 l 1
 600 650 l 1
 550 650 l 1
 550 600 l 1
 500 600 l 1
 500 550 l 1
 550 550 l 1
 550 600 l 1
 600 600 l 1
 600 650 l 1
 650 650 l 1
 650 700 l 1
 700 700 l 1
 700 750 l 1
 750 750 l 1
 750 700 l 1
 700 700 l 1
 700 650 l 1
 650 650 l 1
 650 600 l 1
 600 600 l 1
 600 550 l 1
 550 550 l 1
 550 500 l 1
 500 500 l 1
 500 450 l 1
 550 450 l 1
 550 500 l 1
 600 500 l 1
 600 550 l 1
 650 550 l 1
 650 600 l 1
 700 600 l 1
 700 650 l 1
 750 650 l 1
 750 700 l 1
 800 700 l 1
 800 750 l 1
 850 750 l 1
 850 700 l 1
 800 700 l 1
 800 650 l 1
 750 650 l 1
 750 600 l 1
 700 600 l 1
 700 550 l 1
 650 550 l 1
 650 500 l 1
 600 500 l 1
 600 450 l 1
 550 450 l 1
 550 400 l 1
 500 400 l 1
 500 350 l 1
 550 350 l 1
 550 400 l 1
 600 400 l 1
 600 450 l 1
 650 450 l 1
 650 500 l 1
 700 500 l 1
 700 550 l 1
 750 550 l 1
 750 600 l 1
 800 600 l 1
 800 650 l 1
 850 650 l 1
 850 700 l 1
 900 700 l 1
 900 750 l 1
 950 750 l 1
 950 700 l 1
 900 700 l 1
 900 650 l 1
 850 650 l 1
 850 600 l 1
 800 600 l 1
 800 550 l 1
 750 550 l 1
 750 500 l 1
 700 500 l 1
 700 450 l 1
 650 450 l 1
 650 400 l 1
 600 400 l 1
 600 350 l 1
 550 350 l 1
 550 300 l 1
 500 300 l 1
 500 250 l 1
 550 250 l 1
 550 300 l 1
 600 300 l 1
 600 350 l 1
 650 350 l 1
 650 400 l 1
 700 400 l 1
 700 450 l 1
 750 450 l 1
 750 500 l 1
 800 500 l 1
 800 550 l 1
 850 550 l 1
 850 600 l 1
 900 600 l 1
 900 650 l 1
 950 650 l 1
 950 700 l 1
 1000 700 l 1
 1000 650 l 1
 950 650 l 1
 950 600 l 1
 900 600 l 1
 900 550 l 1
 850 550 l 1
 850 500 l 1
 800 500 l 1
 800 450 l 1
 750 450 l 1
 750 400 l 1
 700 400 l 1
 700 350 l 1
 650 350 l 1
 650 300 l 1
 600 300 l 1
 600 250 l 1
 550 250 l 1
 550 200 l 1
 500 200 l 1
 500 150 l 1
 550 150 l 1
 550 200 l 1
 600 200 l 1
 600 250 l 1
 650 250 l 1
 650 300 l 1
 700 300 l 1
 700 350 l 1
 750 350 l 1
 750 400 l 1
 800 400 l 1
 800 450 l 1
 850 450 l 1
 850 500 l 1
 900 500 l 1
 900 550 l 1
 950 550 l 1
 950 600 l 1
 1000 600 l 1
 1000 550 l 1
 950 550 l 1
 950 500 l 1
 900 500 l 1
 900 450 l 1
 850 450 l 1
 850 400 l 1
 800 400 l 1
 800 350 l 1
 750 350 l 1
 750 300 l 1
 700 300 l 1
 700 250 l 1
 650 250 l 1
 650 200 l 1
 600 200 l 1
 600 150 l 1
 550 150 l 1
 550 100 l 1
 500 100 l 1
 500 50 l 1
 550 50 l 1
 550 100 l 1
 600 100 l 1
 600 150 l 1
 650 150 l 1
 650 200 l 1
 700 200 l 1
 700 250 l 1
 750 250 l 1
 750 300 l 1
 800 300 l 1
 800 350 l 1
 850 350 l 1
 850 400 l 1
 900 400 l 1
 900 450 l 1
 950 450 l 1
 950 500 l 1
 1000 500 l 1
 1000 450 l 1
 950 450 l 1
 950 400 l 1
 900 400 l 1
 900 350 l 1
 850 350 l 1
 850 300 l 1
 800 300 l 1
 800 250 l 1
 750 250 l 1
 750 200 l 1
 700 200 l 1
 700 150 l 1
 650 150 l 1
 650 100 l 1
 600 100 l 1
 600 50 l 1
 550 50 l 1
 550 0 l 1
 500 0 l 1
 500 -50 l 1
 550 -50 l 1
 550 0 l 1
 600 0 l 1
 600 50 l 1
 650 50 l 1
 650 100 l 1
 700 100 l 1
 700 150 l 1
 750 150 l 1
 750 200 l 1
 800 200 l 1
 800 250 l 1
 850 250 l 1
 850 300 l 1
 900 300 l 1
 900 350 l 1
 950 350 l 1
 950 400 l 1
 1000 400 l 1
 1000 350 l 1
 950 350 l 1
 950 300 l 1
 900 300 l 1
 900 250 l 1
 850 250 l 1
 850 200 l 1
 800 200 l 1
 800 150 l 1
 750 150 l 1
 750 100 l 1
 700 100 l 1
 700 50 l 1
 650 50 l 1
 650 0 l 1
 600 0 l 1
 600 -50 l 1
 550 -50 l 1
 550 -100 l 1
 500 -100 l 1
 500 -150 l 1
 550 -150 l 1
 550 -100 l 1
 600 -100 l 1
 600 -50 l 1
 650 -50 l 1
 650 0 l 1
 700 0 l 1
 700 50 l 1
 750 50 l 1
 750 100 l 1
 800 100 l 1
 800 150 l 1
 850 150 l 1
 850 200 l 1
 900 200 l 1
 900 250 l 1
 950 250 l 1
 950 300 l 1
 1000 300 l 1
 1000 250 l 1
 950 250 l 1
 950 200 l 1
 900 200 l 1
 900 150 l 1
 850 150 l 1
 850 100 l 1
 800 100 l 1
 800 50 l 1
 750 50 l 1
 750 0 l 1
 700 0 l 1
 700 -50 l 1
 650 -50 l 1
 650 -100 l 1
 600 -100 l 1
 600 -150 l 1
 550 -150 l 1
 550 -200 l 1
 0 -200 l 1
 0 800 l 1
 500 800 l 1
 500 750 l 1
 550 750 l 1
950 800 m 1
 1000 800 l 1
 1000 750 l 1
 950 750 l 1
 950 800 l 1
850 800 m 1
 900 800 l 1
 900 750 l 1
 850 750 l 1
 850 800 l 1
750 800 m 1
 800 800 l 1
 800 750 l 1
 750 750 l 1
 750 800 l 1
650 800 m 1
 700 800 l 1
 700 750 l 1
 650 750 l 1
 650 800 l 1
550 800 m 1
 600 800 l 1
 600 750 l 1
 550 750 l 1
 550 800 l 1
EndSplineSet
EndChar

StartChar: u1FB94
Encoding: 129940 129940 321
Width: 1000
Flags: HW
LayerCount: 2
Fore
SplineSet
450 -150 m 1
 450 -200 l 1
 400 -200 l 1
 400 -150 l 1
 450 -150 l 1
350 -150 m 1
 350 -200 l 1
 300 -200 l 1
 300 -150 l 1
 350 -150 l 1
250 -150 m 1
 250 -200 l 1
 200 -200 l 1
 200 -150 l 1
 250 -150 l 1
150 -150 m 1
 150 -200 l 1
 100 -200 l 1
 100 -150 l 1
 150 -150 l 1
50 -150 m 1
 50 -200 l 1
 0 -200 l 1
 0 -150 l 1
 50 -150 l 1
400 -100 m 1
 400 -150 l 1
 350 -150 l 1
 350 -100 l 1
 400 -100 l 1
300 -100 m 1
 300 -150 l 1
 250 -150 l 1
 250 -100 l 1
 300 -100 l 1
200 -100 m 1
 200 -150 l 1
 150 -150 l 1
 150 -100 l 1
 200 -100 l 1
100 -100 m 1
 100 -150 l 1
 50 -150 l 1
 50 -100 l 1
 100 -100 l 1
450 -50 m 1
 450 -100 l 1
 500 -100 l 1
 500 -50 l 1
 450 -50 l 1
350 -50 m 1
 350 -100 l 1
 300 -100 l 1
 300 -50 l 1
 350 -50 l 1
250 -50 m 1
 250 -100 l 1
 200 -100 l 1
 200 -50 l 1
 250 -50 l 1
150 -50 m 1
 150 -100 l 1
 100 -100 l 1
 100 -50 l 1
 150 -50 l 1
50 -50 m 1
 50 -100 l 1
 0 -100 l 1
 0 -50 l 1
 50 -50 l 1
300 0 m 1
 300 -50 l 1
 250 -50 l 1
 250 0 l 1
 300 0 l 1
200 0 m 1
 200 -50 l 1
 150 -50 l 1
 150 0 l 1
 200 0 l 1
100 0 m 1
 100 -50 l 1
 50 -50 l 1
 50 0 l 1
 100 0 l 1
450 50 m 1
 450 0 l 1
 400 0 l 1
 400 -50 l 1
 450 -50 l 1
 450 0 l 1
 500 0 l 1
 500 50 l 1
 450 50 l 1
250 50 m 1
 250 0 l 1
 200 0 l 1
 200 50 l 1
 250 50 l 1
150 50 m 1
 150 0 l 1
 100 0 l 1
 100 50 l 1
 150 50 l 1
50 50 m 1
 50 0 l 1
 0 0 l 1
 0 50 l 1
 50 50 l 1
200 100 m 1
 200 50 l 1
 150 50 l 1
 150 100 l 1
 200 100 l 1
100 100 m 1
 100 50 l 1
 50 50 l 1
 50 100 l 1
 100 100 l 1
450 150 m 1
 450 100 l 1
 400 100 l 1
 400 50 l 1
 350 50 l 1
 350 0 l 1
 400 0 l 1
 400 50 l 1
 450 50 l 1
 450 100 l 1
 500 100 l 1
 500 150 l 1
 450 150 l 1
150 150 m 1
 150 100 l 1
 100 100 l 1
 100 150 l 1
 150 150 l 1
50 150 m 1
 50 100 l 1
 0 100 l 1
 0 150 l 1
 50 150 l 1
100 200 m 1
 100 150 l 1
 50 150 l 1
 50 200 l 1
 100 200 l 1
450 250 m 1
 450 200 l 1
 400 200 l 1
 400 150 l 1
 350 150 l 1
 350 100 l 1
 300 100 l 1
 300 50 l 1
 350 50 l 1
 350 100 l 1
 400 100 l 1
 400 150 l 1
 450 150 l 1
 450 200 l 1
 500 200 l 1
 500 250 l 1
 450 250 l 1
50 250 m 1
 50 200 l 1
 0 200 l 1
 0 250 l 1
 50 250 l 1
450 350 m 1
 450 300 l 1
 400 300 l 1
 400 250 l 1
 350 250 l 1
 350 200 l 1
 300 200 l 1
 300 150 l 1
 250 150 l 1
 250 100 l 1
 300 100 l 1
 300 150 l 1
 350 150 l 1
 350 200 l 1
 400 200 l 1
 400 250 l 1
 450 250 l 1
 450 300 l 1
 500 300 l 1
 500 350 l 1
 450 350 l 1
450 450 m 1
 450 400 l 1
 400 400 l 1
 400 350 l 1
 350 350 l 1
 350 300 l 1
 300 300 l 1
 300 250 l 1
 250 250 l 1
 250 200 l 1
 200 200 l 1
 200 150 l 1
 250 150 l 1
 250 200 l 1
 300 200 l 1
 300 250 l 1
 350 250 l 1
 350 300 l 1
 400 300 l 1
 400 350 l 1
 450 350 l 1
 450 400 l 1
 500 400 l 1
 500 450 l 1
 450 450 l 1
450 550 m 1
 450 500 l 1
 400 500 l 1
 400 450 l 1
 350 450 l 1
 350 400 l 1
 300 400 l 1
 300 350 l 1
 250 350 l 1
 250 300 l 1
 200 300 l 1
 200 250 l 1
 150 250 l 1
 150 200 l 1
 200 200 l 1
 200 250 l 1
 250 250 l 1
 250 300 l 1
 300 300 l 1
 300 350 l 1
 350 350 l 1
 350 400 l 1
 400 400 l 1
 400 450 l 1
 450 450 l 1
 450 500 l 1
 500 500 l 1
 500 550 l 1
 450 550 l 1
450 650 m 1
 450 600 l 1
 400 600 l 1
 400 550 l 1
 350 550 l 1
 350 500 l 1
 300 500 l 1
 300 450 l 1
 250 450 l 1
 250 400 l 1
 200 400 l 1
 200 350 l 1
 150 350 l 1
 150 300 l 1
 100 300 l 1
 100 250 l 1
 150 250 l 1
 150 300 l 1
 200 300 l 1
 200 350 l 1
 250 350 l 1
 250 400 l 1
 300 400 l 1
 300 450 l 1
 350 450 l 1
 350 500 l 1
 400 500 l 1
 400 550 l 1
 450 550 l 1
 450 600 l 1
 500 600 l 1
 500 650 l 1
 450 650 l 1
450 750 m 1
 450 700 l 1
 400 700 l 1
 400 650 l 1
 350 650 l 1
 350 600 l 1
 300 600 l 1
 300 550 l 1
 250 550 l 1
 250 500 l 1
 200 500 l 1
 200 450 l 1
 150 450 l 1
 150 400 l 1
 100 400 l 1
 100 350 l 1
 50 350 l 1
 50 300 l 1
 100 300 l 1
 100 350 l 1
 150 350 l 1
 150 400 l 1
 200 400 l 1
 200 450 l 1
 250 450 l 1
 250 500 l 1
 300 500 l 1
 300 550 l 1
 350 550 l 1
 350 600 l 1
 400 600 l 1
 400 650 l 1
 450 650 l 1
 450 700 l 1
 500 700 l 1
 500 750 l 1
 450 750 l 1
450 750 m 1
 450 800 l 1
 1000 800 l 1
 1000 -200 l 1
 500 -200 l 1
 500 -150 l 1
 450 -150 l 1
 450 -100 l 1
 400 -100 l 1
 400 -50 l 1
 350 -50 l 1
 350 0 l 1
 300 0 l 1
 300 50 l 1
 250 50 l 1
 250 100 l 1
 200 100 l 1
 200 150 l 1
 150 150 l 1
 150 200 l 1
 100 200 l 1
 100 250 l 1
 50 250 l 1
 50 300 l 1
 0 300 l 1
 0 350 l 1
 50 350 l 1
 50 400 l 1
 0 400 l 1
 0 450 l 1
 50 450 l 1
 50 500 l 1
 0 500 l 1
 0 550 l 1
 50 550 l 1
 50 600 l 1
 0 600 l 1
 0 650 l 1
 50 650 l 1
 50 700 l 1
 100 700 l 1
 100 650 l 1
 50 650 l 1
 50 600 l 1
 100 600 l 1
 100 650 l 1
 150 650 l 1
 150 700 l 1
 200 700 l 1
 200 650 l 1
 150 650 l 1
 150 600 l 1
 100 600 l 1
 100 550 l 1
 50 550 l 1
 50 500 l 1
 100 500 l 1
 100 550 l 1
 150 550 l 1
 150 600 l 1
 200 600 l 1
 200 650 l 1
 250 650 l 1
 250 700 l 1
 300 700 l 1
 300 650 l 1
 250 650 l 1
 250 600 l 1
 200 600 l 1
 200 550 l 1
 150 550 l 1
 150 500 l 1
 100 500 l 1
 100 450 l 1
 50 450 l 1
 50 400 l 1
 100 400 l 1
 100 450 l 1
 150 450 l 1
 150 500 l 1
 200 500 l 1
 200 550 l 1
 250 550 l 1
 250 600 l 1
 300 600 l 1
 300 650 l 1
 350 650 l 1
 350 700 l 1
 400 700 l 1
 400 750 l 1
 450 750 l 1
350 750 m 1
 350 700 l 1
 300 700 l 1
 300 750 l 1
 350 750 l 1
250 750 m 1
 250 700 l 1
 200 700 l 1
 200 750 l 1
 250 750 l 1
150 750 m 1
 150 700 l 1
 100 700 l 1
 100 750 l 1
 150 750 l 1
50 750 m 1
 50 700 l 1
 0 700 l 1
 0 750 l 1
 50 750 l 1
350 800 m 1
 400 800 l 1
 400 750 l 1
 350 750 l 1
 350 800 l 1
250 800 m 1
 300 800 l 1
 300 750 l 1
 250 750 l 1
 250 800 l 1
150 800 m 1
 200 800 l 1
 200 750 l 1
 150 750 l 1
 150 800 l 1
50 800 m 1
 100 800 l 1
 100 750 l 1
 50 750 l 1
 50 800 l 1
EndSplineSet
EndChar

StartChar: u1FB95
Encoding: 129941 129941 322
Width: 1000
Flags: HW
LayerCount: 2
Fore
SplineSet
750 50 m 1
 1000 50 l 1
 1000 -200 l 1
 750 -200 l 1
 750 50 l 1
250 50 m 1
 500 50 l 1
 500 -200 l 1
 250 -200 l 1
 250 50 l 1
500 300 m 1
 750 300 l 1
 750 50 l 1
 500 50 l 1
 500 300 l 1
0 300 m 1
 250 300 l 1
 250 50 l 1
 0 50 l 1
 0 300 l 1
750 550 m 1
 1000 550 l 1
 1000 300 l 1
 750 300 l 1
 750 550 l 1
250 550 m 1
 500 550 l 1
 500 300 l 1
 250 300 l 1
 250 550 l 1
500 800 m 1
 750 800 l 1
 750 550 l 1
 500 550 l 1
 500 800 l 1
0 800 m 1
 250 800 l 1
 250 550 l 1
 0 550 l 1
 0 800 l 1
EndSplineSet
EndChar

StartChar: u1FB96
Encoding: 129942 129942 323
Width: 1000
Flags: HW
LayerCount: 2
Fore
SplineSet
500 50 m 1
 750 50 l 1
 750 -200 l 1
 500 -200 l 1
 500 50 l 1
0 50 m 1
 250 50 l 1
 250 -200 l 1
 0 -200 l 1
 0 50 l 1
750 300 m 1
 1000 300 l 1
 1000 50 l 1
 750 50 l 1
 750 300 l 1
250 300 m 1
 500 300 l 1
 500 50 l 1
 250 50 l 1
 250 300 l 1
500 550 m 1
 750 550 l 1
 750 300 l 1
 500 300 l 1
 500 550 l 1
0 550 m 1
 250 550 l 1
 250 300 l 1
 0 300 l 1
 0 550 l 1
750 800 m 1
 1000 800 l 1
 1000 550 l 1
 750 550 l 1
 750 800 l 1
250 800 m 1
 500 800 l 1
 500 550 l 1
 250 550 l 1
 250 800 l 1
EndSplineSet
EndChar

StartChar: u1FB97
Encoding: 129943 129943 324
Width: 1000
Flags: HW
LayerCount: 2
Fore
SplineSet
0 50 m 1
 1000 50 l 1
 1000 -200 l 1
 0 -200 l 1
 0 50 l 1
0 550 m 1
 1000 550 l 1
 1000 300 l 1
 0 300 l 1
 0 550 l 1
EndSplineSet
EndChar

StartChar: u1FB98
Encoding: 129944 129944 325
Width: 1000
Flags: HW
LayerCount: 2
Fore
SplineSet
1000 113 m 1
 1000 -12 l 1
 188 800 l 1
 313 800 l 1
 1000 113 l 1
1000 363 m 1
 1000 237 l 1
 437 800 l 1
 563 800 l 1
 1000 363 l 1
1000 613 m 1
 1000 487 l 1
 687 800 l 1
 813 800 l 1
 1000 613 l 1
1000 738 m 1
 938 800 l 1
 1000 800 l 1
 1000 738 l 1
0 738 m 1
 0 800 l 1
 62 800 l 1
 1000 -138 l 1
 1000 -200 l 1
 938 -200 l 1
 0 738 l 1
0 612 m 1
 812 -200 l 1
 687 -200 l 1
 0 487 l 1
 0 612 l 1
0 363 m 1
 563 -200 l 1
 437 -200 l 1
 0 237 l 1
 0 363 l 1
0 113 m 1
 313 -200 l 1
 187 -200 l 1
 0 -13 l 1
 0 113 l 1
0 -138 m 1
 62 -200 l 1
 0 -200 l 1
 0 -138 l 1
EndSplineSet
EndChar

StartChar: u1FB99
Encoding: 129945 129945 326
Width: 1000
Flags: HW
LayerCount: 2
Fore
SplineSet
188 -200 m 1
 1000 612 l 1
 1000 487 l 1
 313 -200 l 1
 188 -200 l 1
437 -200 m 1
 1000 363 l 1
 1000 237 l 1
 563 -200 l 1
 437 -200 l 1
687 -200 m 1
 1000 113 l 1
 1000 -13 l 1
 813 -200 l 1
 687 -200 l 1
938 -200 m 1
 1000 -138 l 1
 1000 -200 l 1
 938 -200 l 1
0 -138 m 1
 938 800 l 1
 1000 800 l 1
 1000 738 l 1
 62 -200 l 1
 0 -200 l 1
 0 -138 l 1
0 113 m 1
 687 800 l 1
 812 800 l 1
 0 -12 l 1
 0 113 l 1
0 363 m 1
 437 800 l 1
 563 800 l 1
 0 237 l 1
 0 363 l 1
0 613 m 1
 187 800 l 1
 313 800 l 1
 0 487 l 1
 0 613 l 1
0 738 m 1
 0 800 l 1
 62 800 l 1
 0 738 l 1
EndSplineSet
EndChar

StartChar: u1FB9A
Encoding: 129946 129946 327
Width: 1000
Flags: HW
LayerCount: 2
Fore
SplineSet
1000 -200 m 1
 0 -200 l 1
 500 300 l 1
 1000 -200 l 1
0 800 m 1
 1000 800 l 1
 500 300 l 1
 0 800 l 1
EndSplineSet
EndChar

StartChar: u1FB9B
Encoding: 129947 129947 328
Width: 1000
Flags: HW
LayerCount: 2
Fore
SplineSet
1000 800 m 1
 1000 -200 l 1
 500 300 l 1
 1000 800 l 1
0 -200 m 1
 0 800 l 1
 500 300 l 1
 0 -200 l 1
EndSplineSet
EndChar

StartChar: u1FB9C
Encoding: 129948 129948 329
Width: 1000
Flags: HW
LayerCount: 2
Fore
SplineSet
50 -100 m 1
 50 -150 l 1
 0 -150 l 1
 0 -100 l 1
 50 -100 l 1
100 -50 m 1
 100 -100 l 1
 50 -100 l 1
 50 -50 l 1
 100 -50 l 1
150 0 m 1
 150 -50 l 1
 100 -50 l 1
 100 0 l 1
 150 0 l 1
50 0 m 1
 50 -50 l 1
 0 -50 l 1
 0 0 l 1
 50 0 l 1
200 50 m 1
 200 0 l 1
 150 0 l 1
 150 50 l 1
 200 50 l 1
100 50 m 1
 100 0 l 1
 50 0 l 1
 50 50 l 1
 100 50 l 1
250 100 m 1
 250 50 l 1
 200 50 l 1
 200 100 l 1
 250 100 l 1
150 100 m 1
 150 50 l 1
 100 50 l 1
 100 100 l 1
 150 100 l 1
50 100 m 1
 50 50 l 1
 0 50 l 1
 0 100 l 1
 50 100 l 1
300 150 m 1
 300 100 l 1
 250 100 l 1
 250 150 l 1
 300 150 l 1
200 150 m 1
 200 100 l 1
 150 100 l 1
 150 150 l 1
 200 150 l 1
100 150 m 1
 100 100 l 1
 50 100 l 1
 50 150 l 1
 100 150 l 1
350 200 m 1
 350 150 l 1
 300 150 l 1
 300 200 l 1
 350 200 l 1
250 200 m 1
 250 150 l 1
 200 150 l 1
 200 200 l 1
 250 200 l 1
150 200 m 1
 150 150 l 1
 100 150 l 1
 100 200 l 1
 150 200 l 1
50 200 m 1
 50 150 l 1
 0 150 l 1
 0 200 l 1
 50 200 l 1
400 250 m 1
 400 200 l 1
 350 200 l 1
 350 250 l 1
 400 250 l 1
300 250 m 1
 300 200 l 1
 250 200 l 1
 250 250 l 1
 300 250 l 1
200 250 m 1
 200 200 l 1
 150 200 l 1
 150 250 l 1
 200 250 l 1
100 250 m 1
 100 200 l 1
 50 200 l 1
 50 250 l 1
 100 250 l 1
450 300 m 1
 450 250 l 1
 400 250 l 1
 400 300 l 1
 450 300 l 1
350 300 m 1
 350 250 l 1
 300 250 l 1
 300 300 l 1
 350 300 l 1
250 300 m 1
 250 250 l 1
 200 250 l 1
 200 300 l 1
 250 300 l 1
150 300 m 1
 150 250 l 1
 100 250 l 1
 100 300 l 1
 150 300 l 1
50 300 m 1
 50 250 l 1
 0 250 l 1
 0 300 l 1
 50 300 l 1
500 350 m 1
 500 300 l 1
 450 300 l 1
 450 350 l 1
 500 350 l 1
400 350 m 1
 400 300 l 1
 350 300 l 1
 350 350 l 1
 400 350 l 1
300 350 m 1
 300 300 l 1
 250 300 l 1
 250 350 l 1
 300 350 l 1
200 350 m 1
 200 300 l 1
 150 300 l 1
 150 350 l 1
 200 350 l 1
100 350 m 1
 100 300 l 1
 50 300 l 1
 50 350 l 1
 100 350 l 1
550 400 m 1
 550 350 l 1
 500 350 l 1
 500 400 l 1
 550 400 l 1
450 400 m 1
 450 350 l 1
 400 350 l 1
 400 400 l 1
 450 400 l 1
350 400 m 1
 350 350 l 1
 300 350 l 1
 300 400 l 1
 350 400 l 1
250 400 m 1
 250 350 l 1
 200 350 l 1
 200 400 l 1
 250 400 l 1
150 400 m 1
 150 350 l 1
 100 350 l 1
 100 400 l 1
 150 400 l 1
50 400 m 1
 50 350 l 1
 0 350 l 1
 0 400 l 1
 50 400 l 1
600 450 m 1
 600 400 l 1
 550 400 l 1
 550 450 l 1
 600 450 l 1
500 450 m 1
 500 400 l 1
 450 400 l 1
 450 450 l 1
 500 450 l 1
400 450 m 1
 400 400 l 1
 350 400 l 1
 350 450 l 1
 400 450 l 1
300 450 m 1
 300 400 l 1
 250 400 l 1
 250 450 l 1
 300 450 l 1
200 450 m 1
 200 400 l 1
 150 400 l 1
 150 450 l 1
 200 450 l 1
100 450 m 1
 100 400 l 1
 50 400 l 1
 50 450 l 1
 100 450 l 1
650 500 m 1
 650 450 l 1
 600 450 l 1
 600 500 l 1
 650 500 l 1
550 500 m 1
 550 450 l 1
 500 450 l 1
 500 500 l 1
 550 500 l 1
450 500 m 1
 450 450 l 1
 400 450 l 1
 400 500 l 1
 450 500 l 1
350 500 m 1
 350 450 l 1
 300 450 l 1
 300 500 l 1
 350 500 l 1
250 500 m 1
 250 450 l 1
 200 450 l 1
 200 500 l 1
 250 500 l 1
150 500 m 1
 150 450 l 1
 100 450 l 1
 100 500 l 1
 150 500 l 1
50 500 m 1
 50 450 l 1
 0 450 l 1
 0 500 l 1
 50 500 l 1
700 550 m 1
 700 500 l 1
 650 500 l 1
 650 550 l 1
 700 550 l 1
600 550 m 1
 600 500 l 1
 550 500 l 1
 550 550 l 1
 600 550 l 1
500 550 m 1
 500 500 l 1
 450 500 l 1
 450 550 l 1
 500 550 l 1
400 550 m 1
 400 500 l 1
 350 500 l 1
 350 550 l 1
 400 550 l 1
300 550 m 1
 300 500 l 1
 250 500 l 1
 250 550 l 1
 300 550 l 1
200 550 m 1
 200 500 l 1
 150 500 l 1
 150 550 l 1
 200 550 l 1
100 550 m 1
 100 500 l 1
 50 500 l 1
 50 550 l 1
 100 550 l 1
750 600 m 1
 750 550 l 1
 700 550 l 1
 700 600 l 1
 750 600 l 1
650 600 m 1
 650 550 l 1
 600 550 l 1
 600 600 l 1
 650 600 l 1
550 600 m 1
 550 550 l 1
 500 550 l 1
 500 600 l 1
 550 600 l 1
450 600 m 1
 450 550 l 1
 400 550 l 1
 400 600 l 1
 450 600 l 1
350 600 m 1
 350 550 l 1
 300 550 l 1
 300 600 l 1
 350 600 l 1
250 600 m 1
 250 550 l 1
 200 550 l 1
 200 600 l 1
 250 600 l 1
150 600 m 1
 150 550 l 1
 100 550 l 1
 100 600 l 1
 150 600 l 1
50 600 m 1
 50 550 l 1
 0 550 l 1
 0 600 l 1
 50 600 l 1
800 650 m 1
 800 600 l 1
 750 600 l 1
 750 650 l 1
 800 650 l 1
700 650 m 1
 700 600 l 1
 650 600 l 1
 650 650 l 1
 700 650 l 1
600 650 m 1
 600 600 l 1
 550 600 l 1
 550 650 l 1
 600 650 l 1
500 650 m 1
 500 600 l 1
 450 600 l 1
 450 650 l 1
 500 650 l 1
400 650 m 1
 400 600 l 1
 350 600 l 1
 350 650 l 1
 400 650 l 1
300 650 m 1
 300 600 l 1
 250 600 l 1
 250 650 l 1
 300 650 l 1
200 650 m 1
 200 600 l 1
 150 600 l 1
 150 650 l 1
 200 650 l 1
100 650 m 1
 100 600 l 1
 50 600 l 1
 50 650 l 1
 100 650 l 1
850 700 m 1
 850 650 l 1
 800 650 l 1
 800 700 l 1
 850 700 l 1
750 700 m 1
 750 650 l 1
 700 650 l 1
 700 700 l 1
 750 700 l 1
650 700 m 1
 650 650 l 1
 600 650 l 1
 600 700 l 1
 650 700 l 1
550 700 m 1
 550 650 l 1
 500 650 l 1
 500 700 l 1
 550 700 l 1
450 700 m 1
 450 650 l 1
 400 650 l 1
 400 700 l 1
 450 700 l 1
350 700 m 1
 350 650 l 1
 300 650 l 1
 300 700 l 1
 350 700 l 1
250 700 m 1
 250 650 l 1
 200 650 l 1
 200 700 l 1
 250 700 l 1
150 700 m 1
 150 650 l 1
 100 650 l 1
 100 700 l 1
 150 700 l 1
50 700 m 1
 50 650 l 1
 0 650 l 1
 0 700 l 1
 50 700 l 1
900 750 m 1
 900 700 l 1
 850 700 l 1
 850 750 l 1
 900 750 l 1
900 750 m 1
 900 800 l 1
 950 800 l 1
 950 750 l 1
 900 750 l 1
800 750 m 1
 800 700 l 1
 750 700 l 1
 750 750 l 1
 800 750 l 1
800 750 m 1
 800 800 l 1
 850 800 l 1
 850 750 l 1
 800 750 l 1
700 750 m 1
 700 700 l 1
 650 700 l 1
 650 750 l 1
 700 750 l 1
700 750 m 1
 700 800 l 1
 750 800 l 1
 750 750 l 1
 700 750 l 1
600 750 m 1
 600 700 l 1
 550 700 l 1
 550 750 l 1
 600 750 l 1
600 750 m 1
 600 800 l 1
 650 800 l 1
 650 750 l 1
 600 750 l 1
500 750 m 1
 500 700 l 1
 450 700 l 1
 450 750 l 1
 500 750 l 1
500 750 m 1
 500 800 l 1
 550 800 l 1
 550 750 l 1
 500 750 l 1
400 750 m 1
 400 700 l 1
 350 700 l 1
 350 750 l 1
 400 750 l 1
400 750 m 1
 400 800 l 1
 450 800 l 1
 450 750 l 1
 400 750 l 1
300 750 m 1
 300 700 l 1
 250 700 l 1
 250 750 l 1
 300 750 l 1
300 750 m 1
 300 800 l 1
 350 800 l 1
 350 750 l 1
 300 750 l 1
200 750 m 1
 200 700 l 1
 150 700 l 1
 150 750 l 1
 200 750 l 1
200 750 m 1
 200 800 l 1
 250 800 l 1
 250 750 l 1
 200 750 l 1
100 750 m 1
 100 700 l 1
 50 700 l 1
 50 750 l 1
 0 750 l 1
 0 800 l 1
 50 800 l 1
 50 750 l 1
 100 750 l 1
100 750 m 1
 100 800 l 1
 150 800 l 1
 150 750 l 1
 100 750 l 1
EndSplineSet
EndChar

StartChar: u1FB9D
Encoding: 129949 129949 330
Width: 1000
Flags: HW
LayerCount: 2
Fore
SplineSet
50 750 m 1
 0 800 l 1
 50 800 l 1
 50 750 l 1
950 -150 m 1
 1000 -150 l 1
 1000 -200 l 1
 950 -150 l 1
950 -100 m 1
 950 -150 l 1
 900 -100 l 1
 950 -100 l 1
950 -50 m 1
 1000 -50 l 1
 1000 -100 l 1
 950 -100 l 1
 950 -50 l 1
900 -50 m 1
 900 -100 l 1
 850 -50 l 1
 900 -50 l 1
950 0 m 1
 950 -50 l 1
 900 -50 l 1
 900 0 l 1
 950 0 l 1
850 0 m 1
 850 -50 l 1
 800 0 l 1
 850 0 l 1
950 50 m 1
 1000 50 l 1
 1000 0 l 1
 950 0 l 1
 950 50 l 1
900 50 m 1
 900 0 l 1
 850 0 l 1
 850 50 l 1
 900 50 l 1
800 50 m 1
 800 0 l 1
 750 50 l 1
 800 50 l 1
950 100 m 1
 950 50 l 1
 900 50 l 1
 900 100 l 1
 950 100 l 1
850 100 m 1
 850 50 l 1
 800 50 l 1
 800 100 l 1
 850 100 l 1
750 100 m 1
 750 50 l 1
 700 100 l 1
 750 100 l 1
950 150 m 1
 1000 150 l 1
 1000 100 l 1
 950 100 l 1
 950 150 l 1
900 150 m 1
 900 100 l 1
 850 100 l 1
 850 150 l 1
 900 150 l 1
800 150 m 1
 800 100 l 1
 750 100 l 1
 750 150 l 1
 800 150 l 1
700 150 m 1
 700 100 l 1
 650 150 l 1
 700 150 l 1
950 200 m 1
 950 150 l 1
 900 150 l 1
 900 200 l 1
 950 200 l 1
850 200 m 1
 850 150 l 1
 800 150 l 1
 800 200 l 1
 850 200 l 1
750 200 m 1
 750 150 l 1
 700 150 l 1
 700 200 l 1
 750 200 l 1
650 200 m 1
 650 150 l 1
 600 200 l 1
 650 200 l 1
950 250 m 1
 1000 250 l 1
 1000 200 l 1
 950 200 l 1
 950 250 l 1
900 250 m 1
 900 200 l 1
 850 200 l 1
 850 250 l 1
 900 250 l 1
800 250 m 1
 800 200 l 1
 750 200 l 1
 750 250 l 1
 800 250 l 1
700 250 m 1
 700 200 l 1
 650 200 l 1
 650 250 l 1
 700 250 l 1
600 250 m 1
 600 200 l 1
 550 250 l 1
 600 250 l 1
950 300 m 1
 950 250 l 1
 900 250 l 1
 900 300 l 1
 950 300 l 1
850 300 m 1
 850 250 l 1
 800 250 l 1
 800 300 l 1
 850 300 l 1
750 300 m 1
 750 250 l 1
 700 250 l 1
 700 300 l 1
 750 300 l 1
650 300 m 1
 650 250 l 1
 600 250 l 1
 600 300 l 1
 650 300 l 1
550 300 m 1
 550 250 l 1
 500 300 l 1
 550 300 l 1
950 350 m 1
 1000 350 l 1
 1000 300 l 1
 950 300 l 1
 950 350 l 1
900 350 m 1
 900 300 l 1
 850 300 l 1
 850 350 l 1
 900 350 l 1
800 350 m 1
 800 300 l 1
 750 300 l 1
 750 350 l 1
 800 350 l 1
700 350 m 1
 700 300 l 1
 650 300 l 1
 650 350 l 1
 700 350 l 1
600 350 m 1
 600 300 l 1
 550 300 l 1
 550 350 l 1
 600 350 l 1
500 350 m 1
 500 300 l 1
 450 350 l 1
 500 350 l 1
950 400 m 1
 950 350 l 1
 900 350 l 1
 900 400 l 1
 950 400 l 1
850 400 m 1
 850 350 l 1
 800 350 l 1
 800 400 l 1
 850 400 l 1
750 400 m 1
 750 350 l 1
 700 350 l 1
 700 400 l 1
 750 400 l 1
650 400 m 1
 650 350 l 1
 600 350 l 1
 600 400 l 1
 650 400 l 1
550 400 m 1
 550 350 l 1
 500 350 l 1
 500 400 l 1
 550 400 l 1
450 400 m 1
 450 350 l 1
 400 400 l 1
 450 400 l 1
950 450 m 1
 1000 450 l 1
 1000 400 l 1
 950 400 l 1
 950 450 l 1
900 450 m 1
 900 400 l 1
 850 400 l 1
 850 450 l 1
 900 450 l 1
800 450 m 1
 800 400 l 1
 750 400 l 1
 750 450 l 1
 800 450 l 1
700 450 m 1
 700 400 l 1
 650 400 l 1
 650 450 l 1
 700 450 l 1
600 450 m 1
 600 400 l 1
 550 400 l 1
 550 450 l 1
 600 450 l 1
500 450 m 1
 500 400 l 1
 450 400 l 1
 450 450 l 1
 500 450 l 1
400 450 m 1
 400 400 l 1
 350 450 l 1
 400 450 l 1
950 500 m 1
 950 450 l 1
 900 450 l 1
 900 500 l 1
 950 500 l 1
850 500 m 1
 850 450 l 1
 800 450 l 1
 800 500 l 1
 850 500 l 1
750 500 m 1
 750 450 l 1
 700 450 l 1
 700 500 l 1
 750 500 l 1
650 500 m 1
 650 450 l 1
 600 450 l 1
 600 500 l 1
 650 500 l 1
550 500 m 1
 550 450 l 1
 500 450 l 1
 500 500 l 1
 550 500 l 1
450 500 m 1
 450 450 l 1
 400 450 l 1
 400 500 l 1
 450 500 l 1
350 500 m 1
 350 450 l 1
 300 500 l 1
 350 500 l 1
950 550 m 1
 1000 550 l 1
 1000 500 l 1
 950 500 l 1
 950 550 l 1
900 550 m 1
 900 500 l 1
 850 500 l 1
 850 550 l 1
 900 550 l 1
800 550 m 1
 800 500 l 1
 750 500 l 1
 750 550 l 1
 800 550 l 1
700 550 m 1
 700 500 l 1
 650 500 l 1
 650 550 l 1
 700 550 l 1
600 550 m 1
 600 500 l 1
 550 500 l 1
 550 550 l 1
 600 550 l 1
500 550 m 1
 500 500 l 1
 450 500 l 1
 450 550 l 1
 500 550 l 1
400 550 m 1
 400 500 l 1
 350 500 l 1
 350 550 l 1
 400 550 l 1
300 550 m 1
 300 500 l 1
 250 550 l 1
 300 550 l 1
950 600 m 1
 950 550 l 1
 900 550 l 1
 900 600 l 1
 950 600 l 1
850 600 m 1
 850 550 l 1
 800 550 l 1
 800 600 l 1
 850 600 l 1
750 600 m 1
 750 550 l 1
 700 550 l 1
 700 600 l 1
 750 600 l 1
650 600 m 1
 650 550 l 1
 600 550 l 1
 600 600 l 1
 650 600 l 1
550 600 m 1
 550 550 l 1
 500 550 l 1
 500 600 l 1
 550 600 l 1
450 600 m 1
 450 550 l 1
 400 550 l 1
 400 600 l 1
 450 600 l 1
350 600 m 1
 350 550 l 1
 300 550 l 1
 300 600 l 1
 350 600 l 1
250 600 m 1
 250 550 l 1
 200 600 l 1
 250 600 l 1
950 650 m 1
 1000 650 l 1
 1000 600 l 1
 950 600 l 1
 950 650 l 1
900 650 m 1
 900 600 l 1
 850 600 l 1
 850 650 l 1
 900 650 l 1
800 650 m 1
 800 600 l 1
 750 600 l 1
 750 650 l 1
 800 650 l 1
700 650 m 1
 700 600 l 1
 650 600 l 1
 650 650 l 1
 700 650 l 1
600 650 m 1
 600 600 l 1
 550 600 l 1
 550 650 l 1
 600 650 l 1
500 650 m 1
 500 600 l 1
 450 600 l 1
 450 650 l 1
 500 650 l 1
400 650 m 1
 400 600 l 1
 350 600 l 1
 350 650 l 1
 400 650 l 1
300 650 m 1
 300 600 l 1
 250 600 l 1
 250 650 l 1
 300 650 l 1
200 650 m 1
 200 600 l 1
 150 650 l 1
 200 650 l 1
950 700 m 1
 950 650 l 1
 900 650 l 1
 900 700 l 1
 950 700 l 1
850 700 m 1
 850 650 l 1
 800 650 l 1
 800 700 l 1
 850 700 l 1
750 700 m 1
 750 650 l 1
 700 650 l 1
 700 700 l 1
 750 700 l 1
650 700 m 1
 650 650 l 1
 600 650 l 1
 600 700 l 1
 650 700 l 1
550 700 m 1
 550 650 l 1
 500 650 l 1
 500 700 l 1
 550 700 l 1
450 700 m 1
 450 650 l 1
 400 650 l 1
 400 700 l 1
 450 700 l 1
350 700 m 1
 350 650 l 1
 300 650 l 1
 300 700 l 1
 350 700 l 1
250 700 m 1
 250 650 l 1
 200 650 l 1
 200 700 l 1
 250 700 l 1
150 700 m 1
 150 650 l 1
 100 700 l 1
 150 700 l 1
950 750 m 1
 1000 750 l 1
 1000 700 l 1
 950 700 l 1
 950 750 l 1
900 750 m 1
 900 700 l 1
 850 700 l 1
 850 750 l 1
 900 750 l 1
900 750 m 1
 900 800 l 1
 950 800 l 1
 950 750 l 1
 900 750 l 1
800 750 m 1
 800 700 l 1
 750 700 l 1
 750 750 l 1
 800 750 l 1
800 750 m 1
 800 800 l 1
 850 800 l 1
 850 750 l 1
 800 750 l 1
700 750 m 1
 700 700 l 1
 650 700 l 1
 650 750 l 1
 700 750 l 1
700 750 m 1
 700 800 l 1
 750 800 l 1
 750 750 l 1
 700 750 l 1
600 750 m 1
 600 700 l 1
 550 700 l 1
 550 750 l 1
 600 750 l 1
600 750 m 1
 600 800 l 1
 650 800 l 1
 650 750 l 1
 600 750 l 1
500 750 m 1
 500 700 l 1
 450 700 l 1
 450 750 l 1
 500 750 l 1
500 750 m 1
 500 800 l 1
 550 800 l 1
 550 750 l 1
 500 750 l 1
400 750 m 1
 400 700 l 1
 350 700 l 1
 350 750 l 1
 400 750 l 1
400 750 m 1
 400 800 l 1
 450 800 l 1
 450 750 l 1
 400 750 l 1
300 750 m 1
 300 700 l 1
 250 700 l 1
 250 750 l 1
 300 750 l 1
300 750 m 1
 300 800 l 1
 350 800 l 1
 350 750 l 1
 300 750 l 1
200 750 m 1
 200 700 l 1
 150 700 l 1
 150 750 l 1
 200 750 l 1
200 750 m 1
 200 800 l 1
 250 800 l 1
 250 750 l 1
 200 750 l 1
100 750 m 1
 100 700 l 1
 50 750 l 1
 100 750 l 1
100 750 m 1
 100 800 l 1
 150 800 l 1
 150 750 l 1
 100 750 l 1
EndSplineSet
EndChar

StartChar: u1FB9E
Encoding: 129950 129950 331
Width: 1000
Flags: HW
LayerCount: 2
Fore
SplineSet
950 -150 m 1
 1000 -150 l 1
 1000 -200 l 1
 950 -200 l 1
 950 -150 l 1
900 -150 m 1
 900 -200 l 1
 850 -200 l 1
 850 -150 l 1
 900 -150 l 1
800 -150 m 1
 800 -200 l 1
 750 -200 l 1
 750 -150 l 1
 800 -150 l 1
700 -150 m 1
 700 -200 l 1
 650 -200 l 1
 650 -150 l 1
 700 -150 l 1
600 -150 m 1
 600 -200 l 1
 550 -200 l 1
 550 -150 l 1
 600 -150 l 1
500 -150 m 1
 500 -200 l 1
 450 -200 l 1
 450 -150 l 1
 500 -150 l 1
400 -150 m 1
 400 -200 l 1
 350 -200 l 1
 350 -150 l 1
 400 -150 l 1
300 -150 m 1
 300 -200 l 1
 250 -200 l 1
 250 -150 l 1
 300 -150 l 1
200 -150 m 1
 200 -200 l 1
 150 -200 l 1
 150 -150 l 1
 200 -150 l 1
100 -150 m 1
 100 -200 l 1
 50 -200 l 1
 50 -150 l 1
 100 -150 l 1
950 -100 m 1
 950 -150 l 1
 900 -150 l 1
 900 -100 l 1
 950 -100 l 1
850 -100 m 1
 850 -150 l 1
 800 -150 l 1
 800 -100 l 1
 850 -100 l 1
750 -100 m 1
 750 -150 l 1
 700 -150 l 1
 700 -100 l 1
 750 -100 l 1
650 -100 m 1
 650 -150 l 1
 600 -150 l 1
 600 -100 l 1
 650 -100 l 1
550 -100 m 1
 550 -150 l 1
 500 -150 l 1
 500 -100 l 1
 550 -100 l 1
450 -100 m 1
 450 -150 l 1
 400 -150 l 1
 400 -100 l 1
 450 -100 l 1
350 -100 m 1
 350 -150 l 1
 300 -150 l 1
 300 -100 l 1
 350 -100 l 1
250 -100 m 1
 250 -150 l 1
 200 -150 l 1
 200 -100 l 1
 250 -100 l 1
150 -100 m 1
 150 -150 l 1
 100 -150 l 1
 100 -100 l 1
 150 -100 l 1
950 -50 m 1
 1000 -50 l 1
 1000 -100 l 1
 950 -100 l 1
 950 -50 l 1
900 -50 m 1
 900 -100 l 1
 850 -100 l 1
 850 -50 l 1
 900 -50 l 1
800 -50 m 1
 800 -100 l 1
 750 -100 l 1
 750 -50 l 1
 800 -50 l 1
700 -50 m 1
 700 -100 l 1
 650 -100 l 1
 650 -50 l 1
 700 -50 l 1
600 -50 m 1
 600 -100 l 1
 550 -100 l 1
 550 -50 l 1
 600 -50 l 1
500 -50 m 1
 500 -100 l 1
 450 -100 l 1
 450 -50 l 1
 500 -50 l 1
400 -50 m 1
 400 -100 l 1
 350 -100 l 1
 350 -50 l 1
 400 -50 l 1
300 -50 m 1
 300 -100 l 1
 250 -100 l 1
 250 -50 l 1
 300 -50 l 1
200 -50 m 1
 200 -100 l 1
 150 -100 l 1
 150 -50 l 1
 200 -50 l 1
950 0 m 1
 950 -50 l 1
 900 -50 l 1
 900 0 l 1
 950 0 l 1
850 0 m 1
 850 -50 l 1
 800 -50 l 1
 800 0 l 1
 850 0 l 1
750 0 m 1
 750 -50 l 1
 700 -50 l 1
 700 0 l 1
 750 0 l 1
650 0 m 1
 650 -50 l 1
 600 -50 l 1
 600 0 l 1
 650 0 l 1
550 0 m 1
 550 -50 l 1
 500 -50 l 1
 500 0 l 1
 550 0 l 1
450 0 m 1
 450 -50 l 1
 400 -50 l 1
 400 0 l 1
 450 0 l 1
350 0 m 1
 350 -50 l 1
 300 -50 l 1
 300 0 l 1
 350 0 l 1
250 0 m 1
 250 -50 l 1
 200 -50 l 1
 200 0 l 1
 250 0 l 1
950 50 m 1
 1000 50 l 1
 1000 0 l 1
 950 0 l 1
 950 50 l 1
900 50 m 1
 900 0 l 1
 850 0 l 1
 850 50 l 1
 900 50 l 1
800 50 m 1
 800 0 l 1
 750 0 l 1
 750 50 l 1
 800 50 l 1
700 50 m 1
 700 0 l 1
 650 0 l 1
 650 50 l 1
 700 50 l 1
600 50 m 1
 600 0 l 1
 550 0 l 1
 550 50 l 1
 600 50 l 1
500 50 m 1
 500 0 l 1
 450 0 l 1
 450 50 l 1
 500 50 l 1
400 50 m 1
 400 0 l 1
 350 0 l 1
 350 50 l 1
 400 50 l 1
300 50 m 1
 300 0 l 1
 250 0 l 1
 250 50 l 1
 300 50 l 1
950 100 m 1
 950 50 l 1
 900 50 l 1
 900 100 l 1
 950 100 l 1
850 100 m 1
 850 50 l 1
 800 50 l 1
 800 100 l 1
 850 100 l 1
750 100 m 1
 750 50 l 1
 700 50 l 1
 700 100 l 1
 750 100 l 1
650 100 m 1
 650 50 l 1
 600 50 l 1
 600 100 l 1
 650 100 l 1
550 100 m 1
 550 50 l 1
 500 50 l 1
 500 100 l 1
 550 100 l 1
450 100 m 1
 450 50 l 1
 400 50 l 1
 400 100 l 1
 450 100 l 1
350 100 m 1
 350 50 l 1
 300 50 l 1
 300 100 l 1
 350 100 l 1
950 150 m 1
 1000 150 l 1
 1000 100 l 1
 950 100 l 1
 950 150 l 1
900 150 m 1
 900 100 l 1
 850 100 l 1
 850 150 l 1
 900 150 l 1
800 150 m 1
 800 100 l 1
 750 100 l 1
 750 150 l 1
 800 150 l 1
700 150 m 1
 700 100 l 1
 650 100 l 1
 650 150 l 1
 700 150 l 1
600 150 m 1
 600 100 l 1
 550 100 l 1
 550 150 l 1
 600 150 l 1
500 150 m 1
 500 100 l 1
 450 100 l 1
 450 150 l 1
 500 150 l 1
400 150 m 1
 400 100 l 1
 350 100 l 1
 350 150 l 1
 400 150 l 1
950 200 m 1
 950 150 l 1
 900 150 l 1
 900 200 l 1
 950 200 l 1
850 200 m 1
 850 150 l 1
 800 150 l 1
 800 200 l 1
 850 200 l 1
750 200 m 1
 750 150 l 1
 700 150 l 1
 700 200 l 1
 750 200 l 1
650 200 m 1
 650 150 l 1
 600 150 l 1
 600 200 l 1
 650 200 l 1
550 200 m 1
 550 150 l 1
 500 150 l 1
 500 200 l 1
 550 200 l 1
450 200 m 1
 450 150 l 1
 400 150 l 1
 400 200 l 1
 450 200 l 1
950 250 m 1
 1000 250 l 1
 1000 200 l 1
 950 200 l 1
 950 250 l 1
900 250 m 1
 900 200 l 1
 850 200 l 1
 850 250 l 1
 900 250 l 1
800 250 m 1
 800 200 l 1
 750 200 l 1
 750 250 l 1
 800 250 l 1
700 250 m 1
 700 200 l 1
 650 200 l 1
 650 250 l 1
 700 250 l 1
600 250 m 1
 600 200 l 1
 550 200 l 1
 550 250 l 1
 600 250 l 1
500 250 m 1
 500 200 l 1
 450 200 l 1
 450 250 l 1
 500 250 l 1
950 300 m 1
 950 250 l 1
 900 250 l 1
 900 300 l 1
 950 300 l 1
850 300 m 1
 850 250 l 1
 800 250 l 1
 800 300 l 1
 850 300 l 1
750 300 m 1
 750 250 l 1
 700 250 l 1
 700 300 l 1
 750 300 l 1
650 300 m 1
 650 250 l 1
 600 250 l 1
 600 300 l 1
 650 300 l 1
550 300 m 1
 550 250 l 1
 500 250 l 1
 500 300 l 1
 550 300 l 1
950 350 m 1
 1000 350 l 1
 1000 300 l 1
 950 300 l 1
 950 350 l 1
900 350 m 1
 900 300 l 1
 850 300 l 1
 850 350 l 1
 900 350 l 1
800 350 m 1
 800 300 l 1
 750 300 l 1
 750 350 l 1
 800 350 l 1
700 350 m 1
 700 300 l 1
 650 300 l 1
 650 350 l 1
 700 350 l 1
600 350 m 1
 600 300 l 1
 550 300 l 1
 550 350 l 1
 600 350 l 1
950 400 m 1
 950 350 l 1
 900 350 l 1
 900 400 l 1
 950 400 l 1
850 400 m 1
 850 350 l 1
 800 350 l 1
 800 400 l 1
 850 400 l 1
750 400 m 1
 750 350 l 1
 700 350 l 1
 700 400 l 1
 750 400 l 1
650 400 m 1
 650 350 l 1
 600 350 l 1
 600 400 l 1
 650 400 l 1
950 450 m 1
 1000 450 l 1
 1000 400 l 1
 950 400 l 1
 950 450 l 1
900 450 m 1
 900 400 l 1
 850 400 l 1
 850 450 l 1
 900 450 l 1
800 450 m 1
 800 400 l 1
 750 400 l 1
 750 450 l 1
 800 450 l 1
700 450 m 1
 700 400 l 1
 650 400 l 1
 650 450 l 1
 700 450 l 1
950 500 m 1
 950 450 l 1
 900 450 l 1
 900 500 l 1
 950 500 l 1
850 500 m 1
 850 450 l 1
 800 450 l 1
 800 500 l 1
 850 500 l 1
750 500 m 1
 750 450 l 1
 700 450 l 1
 700 500 l 1
 750 500 l 1
950 550 m 1
 1000 550 l 1
 1000 500 l 1
 950 500 l 1
 950 550 l 1
900 550 m 1
 900 500 l 1
 850 500 l 1
 850 550 l 1
 900 550 l 1
800 550 m 1
 800 500 l 1
 750 500 l 1
 750 550 l 1
 800 550 l 1
950 600 m 1
 950 550 l 1
 900 550 l 1
 900 600 l 1
 950 600 l 1
850 600 m 1
 850 550 l 1
 800 550 l 1
 800 600 l 1
 850 600 l 1
950 650 m 1
 1000 650 l 1
 1000 600 l 1
 950 600 l 1
 950 650 l 1
900 650 m 1
 900 600 l 1
 850 600 l 1
 850 650 l 1
 900 650 l 1
950 700 m 1
 950 650 l 1
 900 650 l 1
 900 700 l 1
 950 700 l 1
950 700 m 1
 950 750 l 1
 1000 750 l 1
 1000 700 l 1
 950 700 l 1
EndSplineSet
EndChar

StartChar: u1FB9F
Encoding: 129951 129951 332
Width: 1000
Flags: HW
LayerCount: 2
Fore
SplineSet
950 -200 m 1
 950 -150 l 1
 1000 -200 l 1
 950 -200 l 1
0 750 m 1
 0 800 l 1
 50 750 l 1
 0 750 l 1
900 -150 m 1
 900 -200 l 1
 850 -200 l 1
 850 -150 l 1
 900 -150 l 1
900 -150 m 1
 900 -100 l 1
 950 -150 l 1
 900 -150 l 1
800 -150 m 1
 800 -200 l 1
 750 -200 l 1
 750 -150 l 1
 800 -150 l 1
700 -150 m 1
 700 -200 l 1
 650 -200 l 1
 650 -150 l 1
 700 -150 l 1
600 -150 m 1
 600 -200 l 1
 550 -200 l 1
 550 -150 l 1
 600 -150 l 1
500 -150 m 1
 500 -200 l 1
 450 -200 l 1
 450 -150 l 1
 500 -150 l 1
400 -150 m 1
 400 -200 l 1
 350 -200 l 1
 350 -150 l 1
 400 -150 l 1
300 -150 m 1
 300 -200 l 1
 250 -200 l 1
 250 -150 l 1
 300 -150 l 1
200 -150 m 1
 200 -200 l 1
 150 -200 l 1
 150 -150 l 1
 200 -150 l 1
100 -150 m 1
 100 -200 l 1
 50 -200 l 1
 50 -150 l 1
 100 -150 l 1
850 -100 m 1
 850 -150 l 1
 800 -150 l 1
 800 -100 l 1
 850 -100 l 1
850 -100 m 1
 850 -50 l 1
 900 -100 l 1
 850 -100 l 1
750 -100 m 1
 750 -150 l 1
 700 -150 l 1
 700 -100 l 1
 750 -100 l 1
650 -100 m 1
 650 -150 l 1
 600 -150 l 1
 600 -100 l 1
 650 -100 l 1
550 -100 m 1
 550 -150 l 1
 500 -150 l 1
 500 -100 l 1
 550 -100 l 1
450 -100 m 1
 450 -150 l 1
 400 -150 l 1
 400 -100 l 1
 450 -100 l 1
350 -100 m 1
 350 -150 l 1
 300 -150 l 1
 300 -100 l 1
 350 -100 l 1
250 -100 m 1
 250 -150 l 1
 200 -150 l 1
 200 -100 l 1
 250 -100 l 1
150 -100 m 1
 150 -150 l 1
 100 -150 l 1
 100 -100 l 1
 150 -100 l 1
50 -100 m 1
 50 -150 l 1
 0 -150 l 1
 0 -100 l 1
 50 -100 l 1
800 -50 m 1
 800 -100 l 1
 750 -100 l 1
 750 -50 l 1
 800 -50 l 1
800 -50 m 1
 800 0 l 1
 850 -50 l 1
 800 -50 l 1
700 -50 m 1
 700 -100 l 1
 650 -100 l 1
 650 -50 l 1
 700 -50 l 1
600 -50 m 1
 600 -100 l 1
 550 -100 l 1
 550 -50 l 1
 600 -50 l 1
500 -50 m 1
 500 -100 l 1
 450 -100 l 1
 450 -50 l 1
 500 -50 l 1
400 -50 m 1
 400 -100 l 1
 350 -100 l 1
 350 -50 l 1
 400 -50 l 1
300 -50 m 1
 300 -100 l 1
 250 -100 l 1
 250 -50 l 1
 300 -50 l 1
200 -50 m 1
 200 -100 l 1
 150 -100 l 1
 150 -50 l 1
 200 -50 l 1
100 -50 m 1
 100 -100 l 1
 50 -100 l 1
 50 -50 l 1
 100 -50 l 1
750 0 m 1
 750 -50 l 1
 700 -50 l 1
 700 0 l 1
 750 0 l 1
750 0 m 1
 750 50 l 1
 800 0 l 1
 750 0 l 1
650 0 m 1
 650 -50 l 1
 600 -50 l 1
 600 0 l 1
 650 0 l 1
550 0 m 1
 550 -50 l 1
 500 -50 l 1
 500 0 l 1
 550 0 l 1
450 0 m 1
 450 -50 l 1
 400 -50 l 1
 400 0 l 1
 450 0 l 1
350 0 m 1
 350 -50 l 1
 300 -50 l 1
 300 0 l 1
 350 0 l 1
250 0 m 1
 250 -50 l 1
 200 -50 l 1
 200 0 l 1
 250 0 l 1
150 0 m 1
 150 -50 l 1
 100 -50 l 1
 100 0 l 1
 150 0 l 1
50 0 m 1
 50 -50 l 1
 0 -50 l 1
 0 0 l 1
 50 0 l 1
700 50 m 1
 700 0 l 1
 650 0 l 1
 650 50 l 1
 700 50 l 1
700 50 m 1
 700 100 l 1
 750 50 l 1
 700 50 l 1
600 50 m 1
 600 0 l 1
 550 0 l 1
 550 50 l 1
 600 50 l 1
500 50 m 1
 500 0 l 1
 450 0 l 1
 450 50 l 1
 500 50 l 1
400 50 m 1
 400 0 l 1
 350 0 l 1
 350 50 l 1
 400 50 l 1
300 50 m 1
 300 0 l 1
 250 0 l 1
 250 50 l 1
 300 50 l 1
200 50 m 1
 200 0 l 1
 150 0 l 1
 150 50 l 1
 200 50 l 1
100 50 m 1
 100 0 l 1
 50 0 l 1
 50 50 l 1
 100 50 l 1
650 100 m 1
 650 50 l 1
 600 50 l 1
 600 100 l 1
 650 100 l 1
650 100 m 1
 650 150 l 1
 700 100 l 1
 650 100 l 1
550 100 m 1
 550 50 l 1
 500 50 l 1
 500 100 l 1
 550 100 l 1
450 100 m 1
 450 50 l 1
 400 50 l 1
 400 100 l 1
 450 100 l 1
350 100 m 1
 350 50 l 1
 300 50 l 1
 300 100 l 1
 350 100 l 1
250 100 m 1
 250 50 l 1
 200 50 l 1
 200 100 l 1
 250 100 l 1
150 100 m 1
 150 50 l 1
 100 50 l 1
 100 100 l 1
 150 100 l 1
50 100 m 1
 50 50 l 1
 0 50 l 1
 0 100 l 1
 50 100 l 1
600 150 m 1
 600 100 l 1
 550 100 l 1
 550 150 l 1
 600 150 l 1
600 150 m 1
 600 200 l 1
 650 150 l 1
 600 150 l 1
500 150 m 1
 500 100 l 1
 450 100 l 1
 450 150 l 1
 500 150 l 1
400 150 m 1
 400 100 l 1
 350 100 l 1
 350 150 l 1
 400 150 l 1
300 150 m 1
 300 100 l 1
 250 100 l 1
 250 150 l 1
 300 150 l 1
200 150 m 1
 200 100 l 1
 150 100 l 1
 150 150 l 1
 200 150 l 1
100 150 m 1
 100 100 l 1
 50 100 l 1
 50 150 l 1
 100 150 l 1
550 200 m 1
 550 150 l 1
 500 150 l 1
 500 200 l 1
 550 200 l 1
550 200 m 1
 550 250 l 1
 600 200 l 1
 550 200 l 1
450 200 m 1
 450 150 l 1
 400 150 l 1
 400 200 l 1
 450 200 l 1
350 200 m 1
 350 150 l 1
 300 150 l 1
 300 200 l 1
 350 200 l 1
250 200 m 1
 250 150 l 1
 200 150 l 1
 200 200 l 1
 250 200 l 1
150 200 m 1
 150 150 l 1
 100 150 l 1
 100 200 l 1
 150 200 l 1
50 200 m 1
 50 150 l 1
 0 150 l 1
 0 200 l 1
 50 200 l 1
500 250 m 1
 500 200 l 1
 450 200 l 1
 450 250 l 1
 500 250 l 1
500 250 m 1
 500 300 l 1
 550 250 l 1
 500 250 l 1
400 250 m 1
 400 200 l 1
 350 200 l 1
 350 250 l 1
 400 250 l 1
300 250 m 1
 300 200 l 1
 250 200 l 1
 250 250 l 1
 300 250 l 1
200 250 m 1
 200 200 l 1
 150 200 l 1
 150 250 l 1
 200 250 l 1
100 250 m 1
 100 200 l 1
 50 200 l 1
 50 250 l 1
 100 250 l 1
450 300 m 1
 450 250 l 1
 400 250 l 1
 400 300 l 1
 450 300 l 1
450 300 m 1
 450 350 l 1
 500 300 l 1
 450 300 l 1
350 300 m 1
 350 250 l 1
 300 250 l 1
 300 300 l 1
 350 300 l 1
250 300 m 1
 250 250 l 1
 200 250 l 1
 200 300 l 1
 250 300 l 1
150 300 m 1
 150 250 l 1
 100 250 l 1
 100 300 l 1
 150 300 l 1
50 300 m 1
 50 250 l 1
 0 250 l 1
 0 300 l 1
 50 300 l 1
400 350 m 1
 400 300 l 1
 350 300 l 1
 350 350 l 1
 400 350 l 1
400 350 m 1
 400 400 l 1
 450 350 l 1
 400 350 l 1
300 350 m 1
 300 300 l 1
 250 300 l 1
 250 350 l 1
 300 350 l 1
200 350 m 1
 200 300 l 1
 150 300 l 1
 150 350 l 1
 200 350 l 1
100 350 m 1
 100 300 l 1
 50 300 l 1
 50 350 l 1
 100 350 l 1
350 400 m 1
 350 350 l 1
 300 350 l 1
 300 400 l 1
 350 400 l 1
350 400 m 1
 350 450 l 1
 400 400 l 1
 350 400 l 1
250 400 m 1
 250 350 l 1
 200 350 l 1
 200 400 l 1
 250 400 l 1
150 400 m 1
 150 350 l 1
 100 350 l 1
 100 400 l 1
 150 400 l 1
50 400 m 1
 50 350 l 1
 0 350 l 1
 0 400 l 1
 50 400 l 1
300 450 m 1
 300 400 l 1
 250 400 l 1
 250 450 l 1
 300 450 l 1
300 450 m 1
 300 500 l 1
 350 450 l 1
 300 450 l 1
200 450 m 1
 200 400 l 1
 150 400 l 1
 150 450 l 1
 200 450 l 1
100 450 m 1
 100 400 l 1
 50 400 l 1
 50 450 l 1
 100 450 l 1
250 500 m 1
 250 450 l 1
 200 450 l 1
 200 500 l 1
 250 500 l 1
250 500 m 1
 250 550 l 1
 300 500 l 1
 250 500 l 1
150 500 m 1
 150 450 l 1
 100 450 l 1
 100 500 l 1
 150 500 l 1
50 500 m 1
 50 450 l 1
 0 450 l 1
 0 500 l 1
 50 500 l 1
200 550 m 1
 200 500 l 1
 150 500 l 1
 150 550 l 1
 200 550 l 1
200 550 m 1
 200 600 l 1
 250 550 l 1
 200 550 l 1
100 550 m 1
 100 500 l 1
 50 500 l 1
 50 550 l 1
 100 550 l 1
150 600 m 1
 150 550 l 1
 100 550 l 1
 100 600 l 1
 150 600 l 1
150 600 m 1
 150 650 l 1
 200 600 l 1
 150 600 l 1
50 600 m 1
 50 550 l 1
 0 550 l 1
 0 600 l 1
 50 600 l 1
100 650 m 1
 100 600 l 1
 50 600 l 1
 50 650 l 1
 100 650 l 1
100 650 m 1
 100 700 l 1
 150 650 l 1
 100 650 l 1
50 700 m 1
 50 650 l 1
 0 650 l 1
 0 700 l 1
 50 700 l 1
50 700 m 1
 50 750 l 1
 100 700 l 1
 50 700 l 1
EndSplineSet
EndChar

StartChar: u1FBA0
Encoding: 129952 129952 333
Width: 1000
Flags: HW
LayerCount: 2
Fore
SplineSet
0 379 m 1
 421 800 l 1
 579 800 l 1
 0 221 l 1
 0 379 l 1
EndSplineSet
EndChar

StartChar: u1FBA1
Encoding: 129953 129953 334
Width: 1000
Flags: HW
LayerCount: 2
Fore
SplineSet
1000 379 m 1
 1000 221 l 1
 421 800 l 1
 579 800 l 1
 1000 379 l 1
EndSplineSet
EndChar

StartChar: u1FBA2
Encoding: 129954 129954 335
Width: 1000
Flags: HW
LayerCount: 2
Fore
SplineSet
0 379 m 1
 579 -200 l 1
 421 -200 l 1
 0 221 l 1
 0 379 l 1
EndSplineSet
EndChar

StartChar: u1FBA3
Encoding: 129955 129955 336
Width: 1000
Flags: HW
LayerCount: 2
Fore
SplineSet
421 -200 m 1
 1000 379 l 1
 1000 221 l 1
 579 -200 l 1
 421 -200 l 1
EndSplineSet
EndChar

StartChar: u1FBA4
Encoding: 129956 129956 337
Width: 1000
Flags: HW
LayerCount: 2
Fore
SplineSet
0 221 m 1
 0 379 l 1
 421 800 l 1
 579 800 l 1
 79 300 l 1
 579 -200 l 1
 421 -200 l 1
 0 221 l 1
EndSplineSet
EndChar

StartChar: u1FBA5
Encoding: 129957 129957 338
Width: 1000
Flags: HW
LayerCount: 2
Fore
SplineSet
579 -200 m 1
 421 -200 l 1
 921 300 l 1
 421 800 l 1
 579 800 l 1
 1000 379 l 1
 1000 221 l 1
 579 -200 l 1
EndSplineSet
EndChar

StartChar: u1FBA6
Encoding: 129958 129958 339
Width: 1000
Flags: HW
LayerCount: 2
Fore
SplineSet
0 379 m 1
 500 -121 l 1
 1000 379 l 1
 1000 221 l 1
 579 -200 l 1
 421 -200 l 1
 0 221 l 1
 0 379 l 1
EndSplineSet
EndChar

StartChar: u1FBA7
Encoding: 129959 129959 340
Width: 1000
Flags: HW
LayerCount: 2
Fore
SplineSet
0 221 m 1
 0 379 l 1
 421 800 l 1
 579 800 l 1
 1000 379 l 1
 1000 221 l 1
 500 721 l 1
 0 221 l 1
EndSplineSet
EndChar

StartChar: u1FBA8
Encoding: 129960 129960 341
Width: 1000
Flags: HW
LayerCount: 2
Fore
SplineSet
421 -200 m 1
 1000 379 l 1
 1000 221 l 1
 579 -200 l 1
 421 -200 l 1
0 379 m 1
 421 800 l 1
 579 800 l 1
 0 221 l 1
 0 379 l 1
EndSplineSet
EndChar

StartChar: u1FBA9
Encoding: 129961 129961 342
Width: 1000
Flags: HW
LayerCount: 2
Fore
SplineSet
0 379 m 1
 579 -200 l 1
 421 -200 l 1
 0 221 l 1
 0 379 l 1
1000 379 m 1
 1000 221 l 1
 421 800 l 1
 579 800 l 1
 1000 379 l 1
EndSplineSet
EndChar

StartChar: u1FBAA
Encoding: 129962 129962 343
Width: 1000
Flags: HW
LayerCount: 2
Fore
SplineSet
500 -121 m 1
 921 300 l 1
 421 800 l 1
 579 800 l 1
 1000 379 l 1
 1000 221 l 1
 579 -200 l 1
 421 -200 l 1
 0 221 l 1
 0 379 l 1
 500 -121 l 1
EndSplineSet
EndChar

StartChar: u1FBAB
Encoding: 129963 129963 344
Width: 1000
Flags: HW
LayerCount: 2
Fore
SplineSet
0 221 m 1
 0 379 l 1
 421 800 l 1
 579 800 l 1
 79 300 l 1
 500 -121 l 1
 1000 379 l 1
 1000 221 l 1
 579 -200 l 1
 421 -200 l 1
 0 221 l 1
EndSplineSet
EndChar

StartChar: u1FBAC
Encoding: 129964 129964 345
Width: 1000
Flags: HW
LayerCount: 2
Fore
SplineSet
921 300 m 1
 500 721 l 1
 0 221 l 1
 0 379 l 1
 421 800 l 1
 579 800 l 1
 1000 379 l 1
 1000 221 l 1
 579 -200 l 1
 421 -200 l 1
 921 300 l 1
EndSplineSet
EndChar

StartChar: u1FBAD
Encoding: 129965 129965 346
Width: 1000
Flags: HW
LayerCount: 2
Fore
SplineSet
0 221 m 1
 0 379 l 1
 421 800 l 1
 579 800 l 1
 1000 379 l 1
 1000 221 l 1
 500 721 l 1
 79 300 l 1
 579 -200 l 1
 421 -200 l 1
 0 221 l 1
EndSplineSet
EndChar

StartChar: u1FBAE
Encoding: 129966 129966 347
Width: 1000
Flags: HW
LayerCount: 2
Fore
SplineSet
0 221 m 1
 0 379 l 1
 421 800 l 1
 579 800 l 1
 1000 379 l 1
 1000 221 l 1
 579 -200 l 1
 421 -200 l 1
 0 221 l 1
79 300 m 1
 500 -121 l 1
 921 300 l 1
 500 721 l 1
 79 300 l 1
EndSplineSet
EndChar

StartChar: u1FBAF
Encoding: 129967 129967 348
Width: 1000
Flags: HW
LayerCount: 2
Fore
SplineSet
0 244 m 1
 0 356 l 1
 389 356 l 1
 389 550 l 1
 611 550 l 1
 611 356 l 1
 1000 356 l 1
 1000 244 l 1
 611 244 l 1
 611 50 l 1
 389 50 l 1
 389 244 l 1
 0 244 l 1
EndSplineSet
EndChar

StartChar: u1FBCE
Encoding: 129998 129998 349
Width: 1000
Flags: HW
LayerCount: 2
Fore
SplineSet
0 800 m 1
 667 800 l 1
 667 -200 l 1
 0 -200 l 1
 0 800 l 1
EndSplineSet
EndChar

StartChar: u1FBCF
Encoding: 129999 129999 350
Width: 1000
Flags: HW
LayerCount: 2
Fore
SplineSet
0 800 m 1
 333 800 l 1
 333 -200 l 1
 0 -200 l 1
 0 800 l 1
EndSplineSet
EndChar

StartChar: u1FBD0
Encoding: 130000 130000 351
Width: 1000
Flags: HW
LayerCount: 2
Fore
SplineSet
0 -138 m 1
 1000 362 l 1
 1000 238 l 1
 124 -200 l 1
 0 -200 l 1
 0 -138 l 1
EndSplineSet
EndChar

StartChar: u1FBD1
Encoding: 130001 130001 352
Width: 1000
Flags: HW
LayerCount: 2
Fore
SplineSet
0 362 m 1
 876 800 l 1
 1000 800 l 1
 1000 738 l 1
 0 238 l 1
 0 362 l 1
EndSplineSet
EndChar

StartChar: u1FBD2
Encoding: 130002 130002 353
Width: 1000
Flags: HW
LayerCount: 2
Fore
SplineSet
0 738 m 1
 0 800 l 1
 124 800 l 1
 1000 362 l 1
 1000 238 l 1
 0 738 l 1
EndSplineSet
EndChar

StartChar: u1FBD3
Encoding: 130003 130003 354
Width: 1000
Flags: HW
LayerCount: 2
Fore
SplineSet
0 362 m 1
 1000 -138 l 1
 1000 -200 l 1
 876 -200 l 1
 0 238 l 1
 0 362 l 1
EndSplineSet
EndChar

StartChar: u1FBD4
Encoding: 130004 130004 355
Width: 1000
Flags: HW
LayerCount: 2
Fore
SplineSet
0 676 m 1
 0 800 l 1
 62 800 l 1
 562 -200 l 1
 438 -200 l 1
 0 676 l 1
EndSplineSet
EndChar

StartChar: u1FBD5
Encoding: 130005 130005 356
Width: 1000
Flags: HW
LayerCount: 2
Fore
SplineSet
938 -200 m 1
 438 800 l 1
 562 800 l 1
 1000 -76 l 1
 1000 -200 l 1
 938 -200 l 1
EndSplineSet
EndChar

StartChar: u1FBD6
Encoding: 130006 130006 357
Width: 1000
Flags: HW
LayerCount: 2
Fore
SplineSet
562 -200 m 1
 438 -200 l 1
 938 800 l 1
 1000 800 l 1
 1000 676 l 1
 562 -200 l 1
EndSplineSet
EndChar

StartChar: u1FBD7
Encoding: 130007 130007 358
Width: 1000
Flags: HW
LayerCount: 2
Fore
SplineSet
0 -76 m 1
 438 800 l 1
 562 800 l 1
 62 -200 l 1
 0 -200 l 1
 0 -76 l 1
EndSplineSet
EndChar

StartChar: u1FBD8
Encoding: 130008 130008 359
Width: 1000
Flags: HW
LayerCount: 2
Fore
SplineSet
0 721 m 1
 0 800 l 1
 79 800 l 1
 500 379 l 1
 921 800 l 1
 1000 800 l 1
 1000 721 l 1
 500 221 l 1
 0 721 l 1
EndSplineSet
EndChar

StartChar: u1FBD9
Encoding: 130009 130009 360
Width: 1000
Flags: HW
LayerCount: 2
Fore
SplineSet
921 -200 m 1
 421 300 l 1
 921 800 l 1
 1000 800 l 1
 1000 721 l 1
 579 300 l 1
 1000 -121 l 1
 1000 -200 l 1
 921 -200 l 1
EndSplineSet
EndChar

StartChar: u1FBDA
Encoding: 130010 130010 361
Width: 1000
Flags: HW
LayerCount: 2
Fore
SplineSet
0 -121 m 1
 500 379 l 1
 1000 -121 l 1
 1000 -200 l 1
 921 -200 l 1
 500 221 l 1
 79 -200 l 1
 0 -200 l 1
 0 -121 l 1
EndSplineSet
EndChar

StartChar: u1FBDB
Encoding: 130011 130011 362
Width: 1000
Flags: HW
LayerCount: 2
Fore
SplineSet
0 721 m 1
 0 800 l 1
 79 800 l 1
 579 300 l 1
 79 -200 l 1
 0 -200 l 1
 0 -121 l 1
 421 300 l 1
 0 721 l 1
EndSplineSet
EndChar

StartChar: u1FBDC
Encoding: 130012 130012 363
Width: 1000
Flags: HW
LayerCount: 2
Fore
SplineSet
0 676 m 1
 0 800 l 1
 62 800 l 1
 500 -76 l 1
 938 800 l 1
 1000 800 l 1
 1000 676 l 1
 562 -200 l 1
 438 -200 l 1
 0 676 l 1
EndSplineSet
EndChar

StartChar: u1FBDD
Encoding: 130013 130013 364
Width: 1000
Flags: HW
LayerCount: 2
Fore
SplineSet
0 238 m 1
 0 362 l 1
 876 800 l 1
 1000 800 l 1
 1000 738 l 1
 124 300 l 1
 1000 -138 l 1
 1000 -200 l 1
 876 -200 l 1
 0 238 l 1
EndSplineSet
EndChar

StartChar: u1FBDE
Encoding: 130014 130014 365
Width: 1000
Flags: HW
LayerCount: 2
Fore
SplineSet
0 -76 m 1
 438 800 l 1
 562 800 l 1
 1000 -76 l 1
 1000 -200 l 1
 938 -200 l 1
 500 676 l 1
 62 -200 l 1
 0 -200 l 1
 0 -76 l 1
EndSplineSet
EndChar

StartChar: u1FBDF
Encoding: 130015 130015 366
Width: 1000
Flags: HW
LayerCount: 2
Fore
SplineSet
0 738 m 1
 0 800 l 1
 124 800 l 1
 1000 362 l 1
 1000 238 l 1
 124 -200 l 1
 0 -200 l 1
 0 -138 l 1
 876 300 l 1
 0 738 l 1
EndSplineSet
EndChar

StartChar: u1FBE0
Encoding: 130016 130016 367
Width: 1000
Flags: HW
LayerCount: 2
Fore
SplineSet
889 800 m 1
 1000 800 l 1
 1000 524 776 300 500 300 c 0
 224 300 0 524 0 800 c 1
 111 800 l 1
 111 585 285 411 500 411 c 0
 715 411 889 585 889 800 c 1
EndSplineSet
EndChar

StartChar: u1FBE1
Encoding: 130017 130017 368
Width: 1000
Flags: HW
LayerCount: 2
Fore
SplineSet
1000 -89 m 1
 1000 -200 l 1
 724 -200 500 24 500 300 c 0
 500 576 724 800 1000 800 c 1
 1000 689 l 1
 785 689 611 515 611 300 c 0
 611 85 785 -89 1000 -89 c 1
EndSplineSet
EndChar

StartChar: u1FBE2
Encoding: 130018 130018 369
Width: 1000
Flags: HW
LayerCount: 2
Fore
SplineSet
889 -200 m 1
 889 15 715 189 500 189 c 0
 285 189 111 15 111 -200 c 1
 0 -200 l 1
 0 76 224 300 500 300 c 0
 776 300 1000 76 1000 -200 c 1
 889 -200 l 1
EndSplineSet
EndChar

StartChar: u1FBE3
Encoding: 130019 130019 370
Width: 1000
Flags: HW
LayerCount: 2
Fore
SplineSet
0 -89 m 1
 215 -89 389 85 389 300 c 0
 389 515 215 689 0 689 c 1
 0 800 l 1
 276 800 500 576 500 300 c 0
 500 24 276 -200 0 -200 c 1
 0 -89 l 1
EndSplineSet
EndChar

StartChar: u1FBE4
Encoding: 130020 130020 371
Width: 1000
Flags: HW
LayerCount: 2
Fore
SplineSet
250 800 m 1
 750 800 l 1
 750 300 l 1
 250 300 l 1
 250 800 l 1
EndSplineSet
EndChar

StartChar: u1FBE5
Encoding: 130021 130021 372
Width: 1000
Flags: HW
LayerCount: 2
Fore
SplineSet
250 300 m 1
 750 300 l 1
 750 -200 l 1
 250 -200 l 1
 250 300 l 1
EndSplineSet
EndChar

StartChar: u1FBE6
Encoding: 130022 130022 373
Width: 1000
Flags: HW
LayerCount: 2
Fore
SplineSet
0 550 m 1
 500 550 l 1
 500 50 l 1
 0 50 l 1
 0 550 l 1
EndSplineSet
EndChar

StartChar: u1FBE7
Encoding: 130023 130023 374
Width: 1000
Flags: HW
LayerCount: 2
Fore
SplineSet
500 550 m 1
 1000 550 l 1
 1000 50 l 1
 500 50 l 1
 500 550 l 1
EndSplineSet
EndChar

StartChar: u1FBE8
Encoding: 130024 130024 375
Width: 1000
Flags: HW
LayerCount: 2
Fore
SplineSet
1000 800 m 1
 1000 524 776 300 500 300 c 0
 224 300 0 524 0 800 c 1
 1000 800 l 1
EndSplineSet
EndChar

StartChar: u1FBE9
Encoding: 130025 130025 376
Width: 1000
Flags: HW
LayerCount: 2
Fore
SplineSet
1000 -200 m 1
 724 -200 500 24 500 300 c 0
 500 576 724 800 1000 800 c 1
 1000 -200 l 1
EndSplineSet
EndChar

StartChar: u1FBEA
Encoding: 130026 130026 377
Width: 1000
Flags: HW
LayerCount: 2
Fore
SplineSet
0 -200 m 1
 0 76 224 300 500 300 c 0
 776 300 1000 76 1000 -200 c 1
 0 -200 l 1
EndSplineSet
EndChar

StartChar: u1FBEB
Encoding: 130027 130027 378
Width: 1000
Flags: HW
LayerCount: 2
Fore
SplineSet
0 -200 m 1
 0 800 l 1
 276 800 500 576 500 300 c 0
 500 24 276 -200 0 -200 c 1
EndSplineSet
EndChar

StartChar: u1FBEC
Encoding: 130028 130028 379
Width: 1000
Flags: HW
LayerCount: 2
Fore
SplineSet
1000 300 m 1
 724 300 500 524 500 800 c 1
 1000 800 l 1
 1000 300 l 1
EndSplineSet
EndChar

StartChar: u1FBED
Encoding: 130029 130029 380
Width: 1000
Flags: HW
LayerCount: 2
Fore
SplineSet
0 300 m 1
 276 300 500 76 500 -200 c 1
 0 -200 l 1
 0 300 l 1
EndSplineSet
EndChar

StartChar: u1FBEE
Encoding: 130030 130030 381
Width: 1000
Flags: HW
LayerCount: 2
Fore
SplineSet
500 -200 m 1
 500 76 724 300 1000 300 c 1
 1000 -200 l 1
 500 -200 l 1
EndSplineSet
EndChar

StartChar: u1FBEF
Encoding: 130031 130031 382
Width: 1000
Flags: HW
LayerCount: 2
Fore
SplineSet
0 300 m 1
 0 800 l 1
 500 800 l 1
 500 524 276 300 0 300 c 1
EndSplineSet
EndChar

StartChar: u1CC1B
Encoding: 117787 117787 383
Width: 1000
Flags: HW
LayerCount: 2
Fore
SplineSet
0 244 m 1
 0 356 l 1
 888 356 l 1
 888 800 l 1
 1000 800 l 1
 1000 244 l 1
 0 244 l 1
EndSplineSet
EndChar

StartChar: u1CC1C
Encoding: 117788 117788 384
Width: 1000
Flags: HW
LayerCount: 2
Fore
SplineSet
888 244 m 1
 0 244 l 1
 0 356 l 1
 1000 356 l 1
 1000 -200 l 1
 888 -200 l 1
 888 244 l 1
EndSplineSet
EndChar

StartChar: u1CC1D
Encoding: 117789 117789 385
Width: 1000
Flags: HW
LayerCount: 2
Fore
SplineSet
112 688 m 1
 112 244 l 1
 0 244 l 1
 0 800 l 1
 1000 800 l 1
 1000 688 l 1
 112 688 l 1
EndSplineSet
EndChar

StartChar: u1CC1E
Encoding: 117790 117790 386
Width: 1000
Flags: HW
LayerCount: 2
Fore
SplineSet
0 356 m 1
 112 356 l 1
 112 -88 l 1
 1000 -88 l 1
 1000 -200 l 1
 0 -200 l 1
 0 356 l 1
EndSplineSet
EndChar

StartChar: u1CC1F
Encoding: 117791 117791 387
Width: 1000
Flags: HW
LayerCount: 2
Fore
SplineSet
236 -200 m 1
 78 -200 l 1
 1000 722 l 1
 1000 564 l 1
 236 -200 l 1
0 -122 m 1
 0 36 l 1
 764 800 l 1
 922 800 l 1
 0 -122 l 1
EndSplineSet
EndChar

StartChar: u1CC20
Encoding: 117792 117792 388
Width: 1000
Flags: HW
LayerCount: 2
Fore
SplineSet
1000 36 m 1
 1000 -122 l 1
 78 800 l 1
 236 800 l 1
 1000 36 l 1
0 722 m 1
 922 -200 l 1
 764 -200 l 1
 0 564 l 1
 0 722 l 1
EndSplineSet
EndChar

